<mxfile host="app.diagrams.net" agent="Mozilla/5.0 (X11; Linux x86_64) AppleWebKit/537.36 (KHTML, like Gecko) Chrome/127.0.0.0 Safari/537.36" version="24.7.6">
  <diagram name="Page-1" id="aaaa8250-4180-3840-79b5-4cada1eebb92">
    <mxGraphModel dx="3379" dy="-622" grid="0" gridSize="10" guides="0" tooltips="1" connect="1" arrows="1" fold="1" page="1" pageScale="1" pageWidth="850" pageHeight="1100" background="none" math="0" shadow="0">
      <root>
        <mxCell id="0" />
        <mxCell id="1" parent="0" />
        <mxCell id="8n4HYUna0BRvYn9VdKNQ-233" value="" style="group;rounded=1;" parent="1" vertex="1" connectable="0">
          <mxGeometry x="-314" y="3536" width="1812" height="594" as="geometry" />
        </mxCell>
        <mxCell id="8n4HYUna0BRvYn9VdKNQ-234" value="EKS Deployments" style="fillColor=none;strokeColor=#5A6C86;dashed=1;verticalAlign=top;fontStyle=0;fontColor=#5A6C86;whiteSpace=wrap;html=1;rounded=1;" parent="8n4HYUna0BRvYn9VdKNQ-233" vertex="1">
          <mxGeometry y="46" width="1552.3614016172507" height="548" as="geometry" />
        </mxCell>
        <mxCell id="8n4HYUna0BRvYn9VdKNQ-235" value="" style="points=[[0,0,0],[0.25,0,0],[0.5,0,0],[0.75,0,0],[1,0,0],[0,1,0],[0.25,1,0],[0.5,1,0],[0.75,1,0],[1,1,0],[0,0.25,0],[0,0.5,0],[0,0.75,0],[1,0.25,0],[1,0.5,0],[1,0.75,0]];outlineConnect=0;fontColor=#232F3E;fillColor=#ED7100;strokeColor=#ffffff;dashed=0;verticalLabelPosition=bottom;verticalAlign=top;align=center;html=1;fontSize=12;fontStyle=0;aspect=fixed;shape=mxgraph.aws4.resourceIcon;resIcon=mxgraph.aws4.eks;rounded=1;" parent="8n4HYUna0BRvYn9VdKNQ-233" vertex="1">
          <mxGeometry x="1.920976768809363" y="46" width="41" height="41" as="geometry" />
        </mxCell>
        <mxCell id="8n4HYUna0BRvYn9VdKNQ-215" value="&lt;b&gt;&lt;font color=&quot;#ff0000&quot;&gt;SLA para&amp;nbsp;&lt;span style=&quot;background-color: initial;&quot;&gt;seguir&lt;/span&gt;&lt;span style=&quot;background-color: initial;&quot;&gt;&amp;nbsp;&lt;/span&gt;&lt;/font&gt;&lt;/b&gt;&lt;div&gt;&lt;b&gt;&lt;font color=&quot;#ff0000&quot;&gt;&lt;span style=&quot;background-color: initial;&quot;&gt;pagamentos&amp;nbsp;&lt;/span&gt;&lt;span style=&quot;background-color: initial;&quot;&gt;caso&amp;nbsp;&lt;/span&gt;&lt;/font&gt;&lt;/b&gt;&lt;/div&gt;&lt;div&gt;&lt;span style=&quot;background-color: initial;&quot;&gt;&lt;b&gt;&lt;font color=&quot;#ff0000&quot;&gt;LYNX off-line?&lt;/font&gt;&lt;/b&gt;&lt;/span&gt;&lt;/div&gt;" style="text;html=1;align=left;verticalAlign=middle;resizable=0;points=[];autosize=1;strokeColor=none;fillColor=none;rounded=1;" parent="8n4HYUna0BRvYn9VdKNQ-233" vertex="1">
          <mxGeometry x="631.7859657122868" y="76" width="123" height="55" as="geometry" />
        </mxCell>
        <mxCell id="8n4HYUna0BRvYn9VdKNQ-194" value="- DLQ&lt;div&gt;- Retry&lt;/div&gt;" style="text;html=1;align=left;verticalAlign=middle;resizable=0;points=[];autosize=1;strokeColor=none;fillColor=none;rounded=1;" parent="8n4HYUna0BRvYn9VdKNQ-233" vertex="1">
          <mxGeometry x="530.2965799114853" y="59" width="54" height="41" as="geometry" />
        </mxCell>
        <mxCell id="8n4HYUna0BRvYn9VdKNQ-129" value="Amazon Aurora" style="points=[[0,0,0],[0.25,0,0],[0.5,0,0],[0.75,0,0],[1,0,0],[0,1,0],[0.25,1,0],[0.5,1,0],[0.75,1,0],[1,1,0],[0,0.25,0],[0,0.5,0],[0,0.75,0],[1,0.25,0],[1,0.5,0],[1,0.75,0]];outlineConnect=0;fontColor=#232F3E;fillColor=#C925D1;strokeColor=#ffffff;dashed=0;verticalLabelPosition=bottom;verticalAlign=top;align=center;html=1;fontSize=12;fontStyle=0;aspect=fixed;shape=mxgraph.aws4.resourceIcon;resIcon=mxgraph.aws4.aurora;rounded=1;" parent="8n4HYUna0BRvYn9VdKNQ-233" vertex="1">
          <mxGeometry x="180.0025798552658" y="249" width="78" height="78" as="geometry" />
        </mxCell>
        <mxCell id="8n4HYUna0BRvYn9VdKNQ-146" value="&lt;div style=&quot;text-align: left;&quot;&gt;&lt;i style=&quot;background-color: initial;&quot;&gt;Log eventos&lt;/i&gt;&lt;/div&gt;&lt;div style=&quot;text-align: left;&quot;&gt;- Base controle/apoio&lt;i&gt;&lt;br&gt;&lt;/i&gt;&lt;/div&gt;" style="text;html=1;align=center;verticalAlign=middle;resizable=0;points=[];autosize=1;strokeColor=none;fillColor=none;rounded=1;" parent="8n4HYUna0BRvYn9VdKNQ-233" vertex="1">
          <mxGeometry x="194.99711140539648" y="363" width="131" height="41" as="geometry" />
        </mxCell>
        <mxCell id="8n4HYUna0BRvYn9VdKNQ-163" value="" style="shape=image;verticalLabelPosition=bottom;labelBackgroundColor=default;verticalAlign=top;aspect=fixed;imageAspect=0;image=data:image/png,iVBORw0KGgoAAAANSUhEUgAAAREAAAEMCAYAAADj3ILLAAAABHNCSVQICAgIfAhkiAAAABl0RVh0U29mdHdhcmUAZ25vbWUtc2NyZWVuc2hvdO8Dvz4AAAAtdEVYdENyZWF0aW9uIFRpbWUAU3VuIDIxIEp1bCAyMDI0IDAxOjM2OjAxIEFNIC0wM0yqq2kAACAASURBVHic7J15nBxHefe/T1X3zOy9uu/TkiVLsnzItnxbtjHGNgZsriS2OWJwgIQkBMKRkBdCSIBwhgAhnAYbCHcg+ADfB75vy7JlS7ZkS9Yt7T07091V7x/VPdMzO7taaVeSJc1Pn1bP9HRXV9dW/fq56im5asE1ljrqOOgw0m4ro1KLOsA70BWoo469huwlkdg6gYwm1IGuQB111HFwo04idRwwCHWl4lBAnUTqOCCQQT7XcfChTiJ17HdIai9Vx4YHW2eeVxDqhtU6DhDKRlEBLBLvB/4+ALKb3+vYr6iTSB37DIMLC7ZqT4lAJHVO3YlycKBOInXsE+yOQGQAkZgqSUQQm/bGVpdYLYnUGedAoU4idYw6dm/nGEggVtnUd4nZY+8sJnXsX9RJpI4DhDKRWGVBIsoKjWAtgKZMIHUbyCsVdRLZI+xdh96dIL6vIIO8wYdlvBxFWBPfRyyIxegIo4pYCTA6xErIpCnjaR/bCggdO7vo6eqjr6eIBBk0GcRqxNQlk1ci6iQybFRHNgxvANbq7sO/eu8hyKA3ESlbJvYbkViLiKUYFbFeP9KcZ/FJR7DiglM5+oTJZJqlgqP7Oy0/+K+bufu6h4n6G9BRFp9c+in2S73r2D2kPgFvOKh+Aw70LqR/T3sYKr8PffVoISGQISURAbuPalJqrbhYa529I/KKeK2G01+zjMveezymQZBGMNrVIDGiigVlQYXQ9aLlv7/wW156Zhvd2wtI6ONLhhGFOFXYW+oYKerBZqOGFIEkNkIrez1H7FCCCIi20FDk+FfN57IPLsO2C7YRQgVpbQfc98iC8aBljvDX//Y6Lnz7mfR5OyjQh85o6jaSVw70svGXfvJAV+KVA6nYyv9I7ak6VvkPW3ldqdjd3m00tvRdB5NDyjcf7Dn2FrX8KdYa8EICr5djz5jPuz9yLtIimAxYFRNMSgIRCzo+joAR8LLC/MXjOHrxMl5Yu5benh6sEcSq1J32tqZ1jBR1SaQEGfgtJVGUPyebqtqoisZOuyyHutMooaKOtaigPHB292x7QyTp5xYsWEt3VyeRCSnQS8OUkKs+fB5emzinS9W1Crj9lnt46fktqChWZyxoC0oADQtPaObDn7ycafMzSLaAUYa6RHLgUScRoHo2Ry2JYrC3fsXbWyxWTGobfI7HqEogtlqiGN4TD/ose0kkSbnO2hLR3NpAwfSSbbN89NPvJzNJKr226esEFh65kO9944fYPhCTpr2YURph7ByfT3zpXUyd1wqZfowK96qedYwe6iSyV4gHmhUkeZMjWCyGEEOAIcJakzJeHtooPWXcHlordM6imvo593WnMn2JBq8stEGlUmGBadPG0rfV8IefPQghA4U5AZqAVuGTX76cqUc2IpkAg9kPT1jHYDisSWRvNGPXr53EEUlApIoEup+i10vR76aY7aSY63D7TDeB10eoi9iko6dVh/2GatllH99NATrC+P3MXTqZN1+5DPxKp0h1LQwWLJx8/Glc9+s/UOywEFWfZFyPzQKtwj9/6W1Mm9caqzYhSqnYE1TH/sRha1iVis+V5sBq42DyzcaD0Iol0hHWDwj9PAXdjW4pcvQpczn1/GM4ccUS5h09neZxGTp6tpPv70Osh7ZVsvyojedaNZZYzamheJX+G6ICe1s3ASsh4geMnZ7lPf9wOS2ztBv88S0HGF/jSFVlIBOM4fc33MS4Ce3MWTBtoPojOCOJArSwYsUSHnnoaXZs6UKTKZGzyFAPUDesjiYOy2CzgZ248nM1bPy/FUOkQ4wK6O7fSVt7IyeevIRL3nIWUxYp15oqdZFdSrDr1Tx5fw8/+fb/0rmpH9unUNZHqVEUAitnqpUOlSwKYjAqwCiDtiqunhtISgQnJLm3uLURViwi8ajfwxe7BUIp0jZOePM7L2bqYq9EBEKlKmNTe2vLzyBWuOfW+zj79Se6uiWGWBGwsaVVAznACp/44uW8//Kv0721C183ERYsSik8XWXBrWOf4LBWZxIkrsXB7KAWgyGCXERmXETzdMNf/dPl/PfP/4r3/cvZTDlaQQa3+fEWf/cnCsdf1MKnvn05045pRRoNfsZDVJq2hrMNrFWlS6V83gBVQRXpz3ZwxPGTeP8nLueU1xxHv9dF4PdyzPKjKKp+oijAmJBQ9RPpApEYbK3CdoMwDJk8cwJnX7qcY8+fMKghdXBYxCo2vrCFkqmj+vpEZVFAA9AmfPor78PkuugtdGAx6NEk6TqGxGEliVRIxRXjMpUSx7rvSIhVEZFykkd/1Muy5UdzwRvP5ahTs25wKMo0nHyOb2INhAaUdjaChknCR//1LfzDn3+Xzg2deDQgDDdoKv3eJnVN6r1uU8dEQEUYKRLqIqHfy6e+9HfMWio8c3/E3Y/8gZmLJvPOt/8pa1Zt5Z4HbiOMA7jOPucs5s6ax7Xf/yU6Uin1J9Va1pGqKDCxJwoMoQkYM3UM5196Kme+ZZIj0nTVapTlDqVkFLGYyFDsE3atNoxZpJyfVxRYm2qF5DmBLLTNFt7zgcv41pd/TouXpZA32HB3ak0do4HDhkRKWrAtf6/43cZ6OYCE6GxAR2ELE2a2seSkebzjQxeU1RWVKjQd7xRzkEhZu9DxIDIWsuOFv/3Hd/Avf/8Vgm6DbxsRiQdqSh0ZKAGkBf/kkEWqfrfY2KgZovwAm+vl5HMX8q4PnQ85Iei2fPkbn+bYk5bylx+4hM0vWX7yi/8mN9bnhDOO5h3vvJiMgn/9+5/j2X60sRWxL0kVrYrAFimEefBDWsc00VPsYvbcqfzVB/6McUcI5KS26cFUaV5S+WHewlaiCKLQ49GHnuacRYshJVUkqqWQKt8DMsKp583iqSeWcv9tT+F57YShQtdtH/schwWJlLrRoGEb1g0MImc78PJMmNPGG85/PSe/agkN0wQ8MCpCpCqCovSmS/R5SPfv5J7iASFMPVJz0VvP5K7rn2THxl6yNCC28s9QRRflytd6pnQ1xMbSUx6vqcDb3ncJp1w626lXAs+sX8sH/vEvWHjMFAjgO//zH5zxmmN455VvQCYIFOEn3/o9q158gKzXgpZM6tZlY48Vg5GAbJNG5Qx+e553/+mbWX7OkdDo2ioRsgZ4aWvYRkonCZAD3/PQhRyPP7SKcy5fXPqtUv6ycVu7AoMgwB/j8673v5pVK1dT7LBEIS5+vk4k+xSHxQS80jCvQSJiAR2BXyTwell43GxOOfcYTnntHOdKVGBC9/YVzRAkkr4TKYsh5HsiGppjI58Bs8vys+/ey903PMb253tp8trw/ZSxtcKeWS6zQjS3Jpboy8eMColUQDHbwTs++HpWvG4hJgPKTylDSZBncoPE8ywQFOH5Z14kQwOe9dEmro9VPPHISgTlPCliUL4we94sZsyZTGO7OKJK2z9UuVxSt0vC2dPfSyaOECjCVRf8M15fC2QjPvfjD9EyU+Lwk5g+jI2dNElB8d4AffDIzS9x9X/eQNCdI+iL0NUhsvUJeKOKw0ISGQwlu4ixnH3OCk591VymnpAyknrxCb4dZpdLvfXigWr7YcO6jcxfMpMoAO2DGiP8yV+cQhBF3Pbr+5H+kCgAY3RsEFSOrOIRNzD2waK0wkhIYAOsRBSjPI2tWZQf8DcfvJLjLhyP9YhdruUqod2gtQmhaucZCYohuSaf+UfPRFfbJC1MO/bkymOpc6ytVOGsVHErg0lXVYhVw0zOx/Zpgv6Qxx54mjOmLkI8sBKXUlIRLSopObGP5GDpSdOZc9QUnntsK7qosIGt20b2IQ6LOJG0wpGWStLH1r2wjt/fdAd/uOle1q5bT0OLz6RpE0onlAd1XIbUGCnVd4xDt594+GnmzJtOULB4mViezwpLl82iqXksL764nqBgsKG7mYhCqYRI0tJGWaBXPvRFPfRLB9nxlqPPOII/fd/FXPZXZzF9UZMjQVW7iiKVpRHfB6uc/bIGAZQaquolbquOl6bz17pvqmmkxnkSSxOP37uGnq0FwjAioI9TXnW0I7tSATalMlYXCMoTjpozn+t/extZr5moWE0idUlkNHFYSyJOv48wOqC7fxev/7Pzed0VS8lOEafKjLx4AJqbmtj0fAdT5rQDEARgPfCb4Ly3LGTi1In89kc3sX7VJor9gjI+WjJ44rtprADKEuGygBldhEzEkuVHcNq5y1m+YgLS4mwRVsPwJ7eWZQOtVRymzwBRYuis67txvdRCjdNKZKRhxpypvPTYLpTxWLNyAzueNYxbXG1cdeeXpJHYMJ54a9rnKy665Gx+c80dZHU7YhX1YNZ9g8NSErHWYiKLkQAaQs646AQ+8tlLOeaiKXjNUrKFUJE8uKq8oaSQRKtR7vKWxnZu+/3dLF46z9lYgCj2UqgMTJrVwFkXLyHb0sK2js1EJiAKDaBQsR0isAGhzkNzntNfexxv+9tLuPCKRUxf0oQ0CNYDSdzOwxnLUhamhErJwNl9pPz7IFv5QQe+2QdrntRUo2qbdMkI3bU94P5bVqLDLP29RbyMZvHymVg/fb6t+DtURB1bIICjFk/hj7esotAbYSPiALqkgLokMlo4pEikWuKunoNb/m4JwgJNYzKcecGJNE/2WbttPV4uR8v4RudJUTCYFr9bEklXQkG20ePnV/+OM05ejmqU2EAbJ9+Bkjdj/qKJnHPO8Rx3/IkUwoDIFujq30nk9TNmaiMnn3sM7/jrN3HWG+cwZppHlHESjU2Tx3DHRskoknqm6mcc/OndJ9k90STNFEUGpaRS3UmrRUmZCmwhy0O3P0XU55H1Gnhy1Upe+6Yz8RqFqHTfWK1J1yet2ijAE/ziWJ54dBVYL5V/pE4io4lDxjszoEtUh4Gn9taGBKaXKNdHMbeLINfDFe/9Ey5+yylEkfNmkESB1midoUkkPiPdT0O47od3U+gvcOlV5zq1w0IQOqnEi9+w2oAUYddGy5hJ7uLuLZYX1u3gqCXj8LNApqy2DFvqqGqDagx/0lr81t/N6YmhNf09DEOMtWRzfhzmPtBzk1CCV4CPX34NW1b3kVUZ+uhk2asXctWHz0daBfw4xwi4pEfxxY6zpSzuBMA2y4ff9V06NodIEIuYe53MqI5aOCRig6vVlYH5NarkE9+iWwzSWGDKvHF85iv/7AjEgPKgRCB7DVt2R8YVO/Os07juuuscaxhXvB9LJKVBJIAHDWPcHh9aZgpLzxqPP16gRdx8Ed+9sRNVZE/aaGSw5XrGMMZiTLmtEsIoFgPC0E3DFQV+xkMpRW93Hx07u0pG52qPcxKSMmfBLEJVJLCW5uw4bvr1vTxwy1Y8Yu+2Tc5PpI+4nCopkHbhxNOWYlWATZIY1XNWjioOCRIZLhI1PiSgO9zBiotP4d++/AGOWNru5nXp1Em1zSF7dqPSvBZomSoYE/HgnU85HSbxSoobFBC/QDVkWoVIuQTGRoNRzr5a2ii/bKvNmrXIojaBlOs3HJVkgIoSb0oLSpclr4QwSnEvqZv3dHez7oUXePKxlS7pkIEoGtjMVsH5l55OUfcQRAWKeUObnsivf3gj29ZbPFxWAEscK5K+NmGXpI4aLv2TE/FzYEtr28De/3HrqMYhYRORqn31EZuEiCtD6PUTZrp5z4eu4DVvWkpmrJQDMoewgwy431DqTFrvJ9bVLezY3MN9dz3EOeec6oKzYmkishalSic7KSNWV5I3a3rgJtpSrTYY6vNA7OlAqk1T1uACwFKikYkMURS5sP742XztEQYh1mj+/TP/RVNuIkfMnuDsz1WVbm0WXnhuB9s3duJFWYr5iN7eXjZv28YJJx2Jn5OyE0nikP9SE1qXLEqAEFSz8NR9G9mxpRPQVbaROkaKw4ZErLVEfoHGaYaPf+F9LFnRhs5IOf4g6ZDD6Fh7TCLxh6hf8Zsf3chZy8+neZIukYgx1n1O6stAKaNWzYYii30zRGqXGltKkJRca40ttbuOo9eUVrS2tTJ2zHiWLDiWL/7rV3nynvUsmH0sbWPFRajHbVKMYOqUuTx81xMUug1aNJ6XYfOGbXTvMiw+fjo6I6W5SpQC0coB9SJSSmxkuht59MEnXAp5q8upDuoYMQ5REqn6pixFk2fyEWP52L9dxqTFsZ/Vd6KzUrWjLIe83zBIpDSRBufFGNs8njt/9yBdO3tZdvqC0pwWBCJjhswxUoswhi9xjBYGoaYabaeUoD3tCCSOkHUr4Qnag6yf5ZTlZ/LQPY/x8//5FWIaOWrBDIyN/yYeTByn2bCqnxef20xDtgGNh0Q+K59YSVP7BOYvmOCM4InWJMRh+e5LSTKKYExDK7+//m5s5KHwnaRSJ5FRwSFsEym/xyMdMO2o8fzdP11CY5Pww6/fVU6UE7+QVGr5gtEPkbZYgYYxwpxZc3novsfYtq5YsioqFTueD4FoKGsgDKI4ziVG3M5KO/e2Vc7uM31hjg996t3MnDuNn33r//jcB39C90aLKsbeFwvtY9sJikXyfXmwlmJvgbHNk/jdtTfz6B27sP1lm5KLbVFYXPY5oPR3bj1CkWkBnUkm2dQpZLRwaJJIqXeUDYcXXvQavvvdG3jvez6PMSEl6/2gL6RhdDFLbd2jwt3iDtjYHXHUogX09vTw8L2Pl5MRA0rpgy6i0hqDiSqTJDuvkWCMwUS1H8hYl1M1BBrHC5/6/F8ya84sVj7yDB9+36d44fEevBCIYP3z62lqasRTiqgYkvF8wrwh7PT41dU3sHG1QRdBlfKxuj+oRRxVxMZVFCxcPA8vo4hsRGwJqxPJKOAQJJHyiE66k288fvLNn7L6kWfJZYW3XbnCdawhsue5gCZVcytPMKnarJSOpyMoXW1ckuFZR0zBEHDbTXeVJJHEDVw+dyA/DcZXBxKiFGrAbD3QnnIuXV1jiMZryoALWbcabCP82zevYuqCcfTvCvnCx7/BwzdthdCy+olnESulJMxKKSRUUPR5adV2vvDR77HuIYPpsaX1agRBpf4CyYejFi3CGEd6h4LU90rBIUgiDpIaciaKCPMhJgx5y2WvR7Wk3Bv76lVUZgZKw15g0fEzyTb5bNvUwbpH+tO/lj4fdN27mt2sUzGisIY0osq063lCGJmYSIR///r7mTl3Br27+vmvz3+P3357NaZfaMhmy/YVwNMaz3hI0Wfr2i4+9w/f5N4/bKF/p0XCeMGrxMZq4ptZyOfzsceoLn+MJg5REql6n2tD3vZw7CmLWHHR/HLuCxggTIy2W6Ni3RmBzCRh+uypFHvg7lseKucRjX8v6/evXDhVJcKaVGXT7ZbYQAYzFCvQIpjQkPWUIxwFNAif+ca7mT5/ElGP5nc/voWMNBIUo5TNyGKMi/do8LM06haKuxTf/9LPuO6aJ+ncZF2kaoBTF6N4D7zw/PP7qEUObxyiJALp97mVCN0UceGlr0KapDQxdt9KIdUu5/ibhiXHL2Zs23geuOtR8rtsKVlSaYp+7Wj7VwxEnHoh6bSFBkxkSyQIZWNqAhNZ+vMF8n39RJHB08qpN7EWGCqgUfjs169ixhGT6Q/zWCxhMXDxJbjFwIw1WBu5qF/xkaIPPVl+e+1N/PBrN7JptYEi5S0CQsszK18Ao1BSqTbWMTIcsi7e9LFIFxg/p5G3XnUiNEppIen9UqnY1SiJyxHYtTXPI7etpq+nwIwjpzNj/hhsDTqvyLVRVXS1wLQ/JBdbKVSVjyVLPaQTlZQ9reVrlOB5Hp7n0dfXRyaTKf8m7jJRIJ5w+rlLWfX08+x8uQsV+iTDPYrCUqHpLHM2EjJelnVrXuLe2x+ja1MO2z2e4k544fGIr37qf9jyUgc+TYjRaPHi53kly3wHBw6PfCISMW/RPEcgBjdLd1/DSmXgU3JcwYzZUxAlFPtCHr7nCU4+f87AZECvwL6dZFpzsHFAmftcy8BauxBHGE1NTfT09NLc3FSSBjwNxcBNSPTahA984nL+8V3fIL8loMFrRowiigxRYAjDkCiK0FqjEBQK02/I6Bbo8bjr+oe484YHkZKLBtobJ2MCQ2QtxhhE4jRvr8TGPohwCKszZVgsU6ZPKlHm/usyKf0kdWj6rLE0tzeAgscfWAV5W5owXD1F/hULEUSrOD+KIYxCp2YkIshuNtHQ0NxEV28vCGgFYWjwfZdrJVLQPEH4+JfeixrXz67e7fR09xAUAkQE3/cREcIwjO1OLgO8sppib0SxJyTojkqfiz0Rhd4QUwBlnG/f2ngWYF2pGREOCRKpdosOHIWCjWesyXCXehklDJwwavGahUnTJtA+Zgxd2/t5+uG+PZpYOvB59/aRhjHaB7E2G2PcnCQRtNbo3aw2Z4wpu1cpqy6NTU109/RirMuuFkYuIbYVsBmYOEdx2XsuZfKsMTQ0+/gZhee51JGJahSGIZFxgSLKKDzr45nUVvoe5xSx4uxQpZwkdYwEhwSJQLorSOm9lHwXq1m7+qXyvPPhYHdjaXfjrRTIJgzM7wnzjzqCfKGPxkwb997+MCao9SzDed6BpDK8R9xTAqkkkiSzWZIgSAY8Z9Xd4t8HkF5cbBJ2Y6xxZccTIk0GjjtlNktOnA25PL09HYTFIohToRIPkLVOvcIqlwqiYlPlLb5h3c07ejhkSAQGk0QErGbD2k3OSh+wJyNt9CqWhsDcBbMpRkW0zbD6yTWYQpr2hl/sgfIyVGYXG975iaV4YPBcOaqnlAw7JhKroGWi8KdXnU3TREWmVcjne1yWNGsR5SQhG7u04qtxL49kq6C/0WmAOko4pEhkIJwKo61mx6ZOdqw2B156je8/fU47VodEkWXX1i42bQwHrItzoKs6FNygt6l92RZiB/nHgG+1+Ny1QCLIKc/lVMlMFd77kSuwfpGG5gyRCUuEU5ZGTJzpLL6XVG51+8e+waFLImnXolF4UZZbb3wM2/8KCMIQGDdTkW3OoKyit7uf559ejw0Oxvfk7gL0y5utQRmJH1hsrMEYjTbliFNjcAZxD2Yva+XCN5+DaooohPkSeQiCElWRYW3wutYx2jgkSaQkIieeADSezXHjb26hYzu1Xn/DLXSklSpDQTEsuHwbxuepR5+FQvmcCrPKCG47atiHKqBYhbJgC3F2hADIQ9gHEjkysRbw4A3vPoGoqQ+8yEkdBtw6PbqUv6SO/YtDIthscDgzmhKX+Kev2EO/9HH8afP2OMlxqsiRn2cBA4/ctY7OTX0IigI9vOaSE12OE9l9EbVCSgb6pGqaY0pV2N09Kupb68Z7jTI1WiAswJonNnL3TY/x22tu4+4bH6Nra8jYlik0jxFHJBD/zQRTyLBm5QaiPoXOZFyUrIib0GcZxMhb+T2dhe0VRNUHJQ5JSaQaLnGYR0O2hTtuuYc1T+w6sJJtLGY0tTQRmggRzY7NnQQ9rlKjVbXhKhq1rtmf8NDc8/tHueGau3jmzpd54b5d/PZbd/ORKz7DV//uV+RftJhe67xrWXjdn59E+9gWrHXLUCA4A6unS7EqdXlk/+GQJxGXscyNWhMoVH8TP/3+/zlPTXWq8UEL2RcVc2K452cQNEQeLz4/tL1m99EbIyOOkqcnVh9MBDYa6uI9eXsPrHFSlAecftw56N5mdH8LXn8rmUI7uWAcq+7bwN+843M8df92wt4yOSw58SikAfrDIsSuY1EuTZ0hdvkO8ew28SsPvbxfHcPAIU8iADYWdXWUw+tr59n7t3Djj1e62Z0JkaQJZagRNyoVctvjjz6JFo3CgyjDE4+sKp0yaNgJtYduLdWl1qNUh8oYqh49Xs7CRri4CxMTiakspGLFud2iMrimWpXylfDv//IfSLEBT2WxKIxoIIcKmyHfzr//w/d49sECEkEkcMK5J9JFB0VbcOWJS0Kk4pT9tjqzdUW71Ar2qWNvcUiTSKnPW4sVQYmPDhvxiq38/Ds3sHmVKUsko4lh9MnCLosyGaxVgAbjke8t1oxcrdXlhyuNQG0uFOuygel4U2G8GWfMVBY05RXuSgVV1GtPJZGqesblKYVbf9j4eCoDolyEsXhgsuioCb84lu9/7ecQgfZg0TJNdqyHURGRWIwC0VJhXE0EjeptsPrUsXc4pEkEKvt98lmZDKarkW9+7qcUttjhqzV7emep2pKbWHjhuQLaZohCC6KIipbOXT2jVg1btU8gxEQR4qbJ9wA7LdufMXQ+b7G7LOQprY2zX4wkg/RCEUGUoNDkVCM7N3Vz942bnASZFWbNn46hlBexJJHU7SH7F4fFLN7qTqWMh44aWb9qOz/42m1c9f/OKesMsPuXVFp3GPJcW/VRSp+fe+oFlMliI0FpjQmhc1dXTa/LSGEt2AAycZmP3P0Szz7+IqufWMv6tRvo7y4ieBSK/bSObWbCzEYufOtyzjp/eTl5kx3FClVDwOgioS6gjY9bI7QME8azhUXzwJ2Pcvo5k+kLYOmyRax9YBMmsGidRLrKQZer9mDHYUAiNVx9FrRooiDDY3et5bpvT+OiqxaUFpQq6QhDdcY9GVDpt3mcOGPtM+vQYYYwcV8aobc7X05QNILbJbdMyvEt5HdYfvPLh7n31kfZuHYrEvpI5IHJ4dlGRBS+tGK3W17u2QmhVybVarFGqFxpbg8hpNaLAVDw1x+9is9+7Ou0+xPJSBMiCpMyelprwSgef2AVfV0XoNtg8oyJ8XO6P5oyYEUBEZEtr9cb36KOfYTDgERqwSnHGcmR39HPbdc9yPgpY1n+ugmOSAwj73UVIkU8nC0Qwc4XDC89twmJPJSYOFpTERZCpwXVKGJPYCwuc5goPAOP3rGRX3z3OtY8vpEmNYYWmYSnnVxiVTVTWgoq4KzXLEsVmKrQCKSRwXjZKFh88gRmHjWBjheKKJpLs67BuW/FghKNDYRi3qUJmDpjAoizgUhEaS7P7iYD1jG6OAwJOhELnP6S0Tm2b+zi6q/9goev7yDaZZ2toNrYmvBAYpzb3VYLRyYZ/wAAIABJREFUBoJtlpt/dRc7N3VCCFoUBotWyl02AlE8ua0W8LXC5uFHX7iD//zHa9n+XJ5mGYe2WWxkCcOwlAMkvSWtE3RYTOgYzaRvMMTYHE6T1CrCKMhOEN5y5euwfoif9bDWVMwOVsrNwA2LEX09FuXB+Cni0gJYi4kNW2XuqOs0+wuHIYmkYAWswqOBsNvnsx//T/7wq9Xxb1WnpfZVP1cWWbEl89kFG7uTX1y9ixv+93YK3SEqErQosAatBYmlgpG88AXnWbF9cNtvVnLr/z6I6cxR6BC8KEtGsmjloZSbRl9rKr9Yn8998luowD2wxA6kgXcqf959fQc6VtNFhQpOXDGTecdMpzPYCqoIUYANArQYMAFaLIQBxby7prVNaG5uJFnFo3SfuhCyX3F4kwgACm19bMGjxZvI/117B//1yZuhAH09znUYiotNqHbiDBZW4rZ4ert1mwA71lu+9Plvk9VteGTRaEcikfOrjh/XNjrGywjymy0//cYNBF0KAo2WDEp55bVzjCrVrXqTIMvGp/p49NbNEJVtFwMJNM4dG38eHOUrJUWvac+xFZAGeOcH38KkIxuxXh/KFlFRgaCnC88U0VEBXxlsGLprBbZt3wxi0AIiCW2X6Lu8Tnsd+wz19gVA0HjoqIFih8eDtz7Fp//uWmy3i53Q8RhIxPqhySNlf7Qu5kJC2PKs4Ruf+xE7NxTIdxqyOuekBhGsijC2nynTJ8a1GSEM/OBrv6ewUyHFDL7K4msfrT2wChvJoARiLajIx8s3838/vaVsH0qZdWq13+6RpleQKiIBMAKT52ne/K4LaZuhsa1dBE27UGP6sC1dFL2dZJoDVDYgmbA7dlwb1oYVKQDq2L84TA2raZQ7nUIwkY/qb2Tdwzv4h3d9jSv/7s9Yeto4yDndPVkLCQYOnbS1ReKgLULY+Zzhsx/5Nuuf3sSYpgl4NoMSHwGMifCzQt70snDJEaMjiVh4+tFn0cUsWjyXvlBp9wAV7//K508gRiGR5tmVzw84c3Q0BVdS4lU3pMJoFBx75gyOWvIeHrpvFWPaxpDL5NBGWL16NRu2bKRlcpZiCA0Kxo4fw5ZtPdh4zTtRlGf91rFfUCeRNKxbfpEoAwVFcVuBr3/6e5z7+tM4/YKTmHqE54JLY+OqkYGDShGvCxtCcYflF1ffx92/f5CerRGTW2ejEjWCOIGONTS35egPhWPPHgtSOcz32LUbq04d27vIMQFPeehYjRlIILWhlEZZoa25zYW929Eij4qaAolCFEPiyZIeZMcLJ5y3GF+D0oCBWctPLhFNb7xyxNhxbWyRrhpPtC8DW+pIo04iA+C6o7KC6deIbeK2nz3EPTc+zooLT2HFa4+hfbpgPCBJKEw5Vk2FQAC/+/7j3PCL2wm7FJ5poi3nY6PYgKls7IYNaWxqYPvOLZx3xRmQY0C/H85QKIVsiPu8bvUugiCkSWm0jgmknFyF4Yj81lqiKNrH2oGN280tKOam8VOKy/P8sne81FOtexTlJZ8Nom2sa6q4MWpJWXVC2Veok0gNCGCNoMSDvEYFGfL5kF9+50ZuvfF2lp9zHCeffSxTZ7XS0OLsC6IAC3+8cQ0//vYv6d+uaJA2MqEPkUfagyEarDFEqkBX2MOkI9t41RtOcx6QvQneSl1jraWpqYlsNoMuajchzZbf98MR862NiDBYHc8tokxQo4/aROJuWrXFxyxu/owNYdrcSTy/8mXCzghtM6kL6/rM/kKdRGoiCQhRoCxBISLCktUtdK7v557/fYo7fvkQzW0NtLQ30tTczK6dHezY0kG+p0Br01gaQw8bxRJAMqsu3kU2Am3ItAhTFo3jn75wBbSJe5FK5RDYU04REVpbfTzPQ0eeS1RMeT6JwklBQw0xIxFWFznmhEXgsx9cpmUiSddLxYt/VzeCStpIwYVvPZk/XHcrWrVD1ICKZwyO9pzKOgZHnURSKMcpCZI4rozFUxpfsoRRkcgKQZegdJbe/oDezV3YqAsxgqaRFmlB9Xqxp8O4IKhkcWsBIxYrIYWoh4tefzZv/OtlLpuZdoNiMKPtniDbKOCFmLCIDjNYo1JxFGCi2G8rFhGLlWTRKVdfowtYP895F58B1uU5VUNWaDTe+nEcSYqxhrqlwhHumGnCn//1ZXznMz9FSwbfZkZ/VnYdQ+IQT484fKS7rsSSiPunUOIh1mXNinTIq1+7gk071mEJMQVBRR7KKhTKRaAag7EBlpCIAlYF9Afd6FxEy9gsE2e38JcffjunvXkmZIGMI5CkEiN98YvA9HFH8vjDTyKRhkiRyfpkMj6dnV3OWyMWIZ7Oq0KMFMEP6Q13EGV7WXbWkVx4+XGldI3WxpKBONVN4riMMkZTfXApCAY1CKVVGwUTp7ShVRNPPP4EymYQ46XC3muF7tXD4kcTdUmEVJ+0lVSSjAtr3Or1KEF8w/KzF3DJO4/itltXcsfv72Pz+m1kvAwR4mbQW0NkI0RbQlPEz3pMGNfK8Scdx2lnnMKMZbqUwRyPisW8R6VrKzjhgkn8/EeKtQ+9xJTWWeT73PKTuUYf7VsMAYWgj8D209LWyNhxzRx9/FEcvWwRY6c0M2mOAs89dpJTpHKJz30VkzE8RS7hGCvQ0C6seN2xbHp5C/de9wSNeoxL9BTuvpw6Rg65asE1h70FyjkspFIaSRGKEkciRekhaO3i+9f/LbSKM4T2Q9cOy313PoKKp7BH1oAYvIzHpKkTmXvEFDI58LLiJI/SoiqUzS+MXncXA0Sw5r4e/vPjPyDalYHAo7evF6/JkmvR+I2WpScu5pSzTmTB8Y3QAGQSq6VzX6NiL0hFQyXYNyRS4fgdqvj4ZxNfpAyse7LID7/yS557eAMNtCGBR82M3FZil3cdo4E6iVCWOipoxJZfu0oEG1oKqpuovYvv3/xBbBbIxWJ+0psH8yjGRZW8OPGxWg0/vEiO3cDGttwAnrm5m298/vsUegy5hiynrFjGUcfM45gVYyAnsXEBZ9TVZU8pkjJsVj9PqYb7hkSk1GC7OTlFJBbwQnj89l1854s/Jr/FIoUGJKoR+F4nkVFFXZ0ZBkzs21RK092Xd+EWKu7wsSSxOxU7EWyGIo5RQ1KghoWvauFjM9/Dqiee4eTTjqZprLjsRMnYSuoVh+KqeGCq4SZo2kdVH/zAwJ+TU4yGY84cwxt3XsjPvn4DYWSwCBLVA8/2JeokMkwopchkM7Q0tjIg4w2kcnfuGfZF1zZx9mUlID5MOjLDlKOWlm8o5dgzANISUvx9n1VuTzDM+6ftI5EPy8+ZzSN3zmL1Ay9hjSBGxUmUEsv1YS98jyrqMt0wYK3FGIO1Ft/zCbpHp9x9NUaVAq0dMUQGVHXGtjjOopT+tapSUsOMsL8wnMmN1Ruk+DA2tJ5z0elkWgWrI/CkxhV1Ihkt1EmEcph1RReT5BeLNS6JT6EYEAQhfX0jv+e+HqMWiCJHJgiEEYOv+pcilz2D7KNt74ik9Nwa5h3XylmvPQm/2WBV0UXfppM5SPWVdewt6iQSIyGSkqhPajV5jXPvIkSRoXuXjQ2xIxkmQ2PkwzAlUYibhzLgxjUrM9zBta8IRLADKzUsJDUPBTIThTe9+zgmzm0h8vKgQ4yqWlxIXIBdnUxGhjqJpDDo1C0RlBdnArP6oFCpRVLG0YofGIQ8XlnYW7WmdL0C0wBve9+bCPxujC4iymKriaSOEaNOIsOCRVQ88iLFyxs6SseH16UPJgyPYfZmkO+udUZSXnVKIgECC0csy3HqhceicvHKXJhUcupqC3Mde4M6iQwTbharBaPYsW1n3FsPNQJ5ZWAwW0c1KlS3GseUditfXP4XFzJhxhgiVSAijEurE8hooU4iw0QpDiReH6aO0UeFphWzRiJlJLCpDzYCG8Zb1aS7tLfGbxJOOuNY+k0PRkUky4Lv2TKgdQyGepzIMCEiLhbcaDa+uAns0Qe6Sgc1YlmgJiSKl/oktuskYkkEYdESBbD2uW2IdZMdLRHTZk4m2wK6UdzaQanC/QY464JjuOY7P6Mp1wb9LgK5TiGjgzqJDBMibkavhJpnV62tfCW6Mw5QzQ5e1CKSkiQSuez4a596mZdf3Ma9dzxAsT8k39NPIV8kigzZTBZrDUFYxMtpzn/jGbzxvadhM1VGcgXN42HJSQt44YEt5GymvtzmKKJOIkC5O++GEKygrKbQGzoZ26jUxJk69hiJNdQAAfR1WlY++QwrH1nNH299EinkMHlx2edNDm2zaJOlIbL09xfINTWilRCagGJXkev/53ZOu+A4pixqdBN4Y1gBv0U4etmRbF/dje1QRPU/2aihTiIlpN+LA9+RURQ58Vo8goJw+/8+w4o3LQRfStnI6hg+rAVCkADWPxbwo2//kpdf2Ep3Zy+NuVbIjwXro6xGUERWXAi7dUtNaAzaemgrWGPJoYnCHvLdBZRprLCwWhzfH7d8Mb/79u000lCXREYRdRKpQFoSqSQSa+M1XhHEeqx6ZC0rXrfQtWCdQfYYYkCKcPWXbuX2/3uQdn8SxR0N+KaBDC1QDLEItmJmo1v8ylpDxsuiRENkMYEl15il11jGj2uveT8jMHV6C5ENMBjihQfrGAXUvTN7DIuymlWPrsX22CpXbx3DQRIoesf1a7j7ukfJ9rfRt7OIjUCLJigGcQKk6nZ1OVhFBKUVIsRzmgw9fZ1MnTGJpma37EQpa3wKDc1C65gWEDB1fWbUUCeRvYBYTe+OgOdXFurcsbcI4fZb7sYzOTK2kaxuoLm5Bd/PlCY81kSspjh1xIK1BGEB4xVZfPxC/EapkCfTCqoxMHPWDIxNYkXqGA3USWQvIEYT9WX43a9vhmLp6IGs0kEHq2H+wrmALUkFQTEo/T5YDtT0wuPgJJGmthzSGHDW+ctdrhQq/xrpz9pTRCaqSElZx8hQb8q9gFiNhD5PP7aGHZuKiE0bRupksjtYAdFw4SVnUNR99JpOjDh/SmJ7SuA+2dJ8OYx1diktWGsITUh3fydLT1nA+NlSsvIlq/ZV/DWUI5Faqk4de486iewFxApZnaVjeze9HcXYVVkrCLuOwWAUtE8VrvzQW6G9j1AVB54UE4eybr0cwbp1dGIGMFgiG9LQnuGsi5bjT4jbXcpr0yRIAteiKEJ7SQRbHaOBOonUgFuDxe1r/QPwlEdLQyv5rgDbT9wn63Mxhg0BPDjtwll89ZqPUsx1UMh0E3r9iO8mynkKVLy0hViLsvHnmFCKYR8F3cXMoyay+MxJ5QTTQ9xTa43S9W4/mqi35iBIiKT2ZtFKaGttJcgXsaHd8zl4I50Ge4C3kWQMId5bAXLQOkv45m8+zOmXHo1uL6BzIY0NGk8MEi/EoVKbNQE2CijSQ8tMuOqjb3ZLb8Rz6mqZU5JDO3fsHMYfp449QZ1EhsDgkohFi9DfmyfsN6isDCSQQ11aHsHzSeqDUWAzkJ0gvP2DZ/Cxz74PWnvpNJvoNTuIvF7wiqACXHRaSCR5+swubGMf7/vY22mdLS5bPaaUODsd5ZP2Fvf19mHNof7H2b+ok8jewLqlKKN8wHNPr3U2kSJuH7FnEslhigrJRHDZ43Iw4wTFl3/8ft77yT9l5gntdEYvE/l9RPQRknepDrMF9Lg8l7//9Sw8PVZjSDw65cZ3zR/P2LVQ7LTk+wpxkFld7Rwt1CNW9xBJxzfGYJWw+qnnITqd/m5Lboyz5kWh8z6Icvt6fx0c6Sn7aKeK6HZh2Wums+y8d9K33nL/nc/xyH2PYwJLJpuhod3n1ZeezuwT20BDJKZcWirUvcKwamH92g7Copu+oEUGcPxw/0z1d0Ml6iSyByiJxYCX8TB4rH92I2y2PPbw88xYMIlp85vRmXhuSFoaqRPJkEirOHg4ycRA4zzh7LlHcvYVR7q29IAwJp2UZ11EYg5Jh5elyMTCC2vXY8IIbe0AJtiTP096quZgz3E4EU1dndlLeBkfEZ+gT3ju0ZAn7nmOpx94Hgz07IrDtg1EAYdXjxop0nqOBny3KFVRWaIMkIEoazFZ6/KoYlCxJbU6yVBaqSGAF55bhwltavU7ia+K97FLebiG4VpVr/UYh/r7o04ie4rYaBdEIUo8Gr02HrvvWbo2FFn90IsQWO666V42v7TLiebKEUkU2VeGmeSV2rOH8G4pDzJZQcdys/YEpaQiMG1ghGvld1OwPPvUc0ShYI1C0JXX2YHX1K6YLS9uPojrKlGUEsl1wNo+hxjqJLIHSJvsgiDEGMEEmrtuuZ8X12zjiQfWQB5W3ruOT37wi2xb7wKolE53rSH66yhW8u7bHuDldTudwTeKf6pyIiUuUbu7V+/uXrv7AylySWbfWmuxFoyx8eYW6zKW1DR/hbKQ74IX12zBU1kkNlQpUSUppELGKDVQ+S+WEIfTmtwJSqjYyueIWyDR2lJMSy0J51BBnUT2EEn8iDEWtzC0RxhCEAkZ1c7dP+/F65lG95oc3/7ML8jvtM7AChVTz0tEsi96k4HOLYa//8t/5dE/boLIDayIyqzoQ7z8B6JaVt+fsEAIm57vJt9lMfHzGEtpZUJr4lUKsaW1k0sI4cZfPUaLNxXPNCJGuQXbSzEvZUUomZvjpEiFFkGLQiEDNq0UWrmlRJLNfXdWEyU2DpazKGvQpYC58nYouPH0svGXfvJAV+KgQ+wESIx51kAYWUQ0YjN0buujZ2eB3p5eGsY0Mm/RJFDxEr6qVETFfjTrBjB/7nQ2vNjLj374M9Y9t4PTzzraGYUTyaPqkmHx2f54hVbfw+LYr89y5WV/y6suWEG2OYN1qeUqBr3Ese7JXhGHzIdw9Zd+T8fGAG19VKSxVnDUAEokJgEpleeOSar88gYx2cQVTvLMOC5w+U4cXYcYFWJViOgIxOAp7c4d4B06eGWTuiSyl3AvsrgbKNfpTGhY+9watm7eQlZnyHcWuffmhwm7XDauIDDEs9fdBLF99RJSYJvgyr+5hHPOXcEDdz7GFed9kjX3FlBFBl18a6gg1X2OmDyS+xlibSICAvh/f/kt5k1ZzMQpzfgZyPiKjO/heRqtFVo7ElDx4FbEtogi3H39i+zY0EVWGiHSKOXheR5KiQuDV2pQsijVyBqwsdQT/wGtsVhjsJHFhIYojAjDiDAMCE0/gcoT6F6Kfif9mZ0EmS6sFEmWvbGHiHJTd/GOADbu9aIo5bfYtbMDE0X4SpPNNfLi01vZuc4y1nMqT9bZ81D7MCOaFTcIG9qE9/79a2n0m7npt3fyTx/6NKeffwKXv/t1NLW5pRSsLg/cA9WV07Yii1NXdOwtoQhf+X8/4ZmnnuODH/0bd6Lsvr4WiAqQsfCra66nvzOksWRMVc5Dk9hUK9SfOHtaSaJwQ93GuqiJF7+KTEBoQyJrEA1WGawYt8KehBxz3FFMnjqeOfNnMmnaRObN99n2ouXj7/k6FEB8f5AlCg8+1Elkr5GItapkULPWoBBsrC94kiEqNPDDb1zHh75yMV/9529y9nlnc8arFuzzUSvxf9aHt39gBdkGj19eex2P3LyadY99i9e/9dWcet5s9FjBegeWQMrSh8HibBFSBPos1375Tlbd/wIz5k5h+WumOxEjUcuorHdJdrCORD0FD/5uB5ue3YVvWypIw1iDxElFEqlQ4t/SBIK4c8FiJcLoCOOFkA2xUqC5PceMudOYv3gu02dPYdbciUyeFZODweU3EaDf0v+yIZIQiQwog6qTSB0QZ9cyTiRNBGmtYtejVXgmx6Y1O3jsxh7GZ2Zy7dd/xVFzP8L4I9Q+VSadaQ8iBcqHt1x5OkccMZ+vfuo7bN/YwTVf/znX/6aZK//2z5h3XLtbq0Ux7EXhdqfipJWBWt/Tn+PFLQHlkjAboM/yifd/h44XAshn+bM/uQJ8gSB2r1ZpG0lhYkHHdhDTa/nF1dfR4o0jigSNilURZ48wxoA4wrDW2SysipxEISGIQcSSafDI5Hwam7NMnTWZqbMncexJS5i5QNBtifElbj/luoN7qcTeGgtoYdwMjdeg0WGGSA2MmD1YIVctuOZQeZb9hMSYkcQYJIThdGSsxZgIpQQvowmjkKLJM3FGO8edtJS77ryb+cdN428+//pSFq5Rr6EMGFtgweThsTs38t0vXUv/FkNGMviNivlLZ/G2972BcUcqIgHJJK7Mmk9fsR8MQ5FItfQBCrHujaYioAj/8q5rWffkZtqyY9nV08Ep5x3HRW8+i2nHVZGvAAY2rSyyacM2Nr20jU0bt7HhpS1s3diJzWfp6wxQVqHFQynP2aSMU0OVL1gvIrD9FE0fDS0eLWNyTJ01gWkzJzJt5iSmzJjMlJnNtExOLOqVW8lQXWW0toaUlAqqG95z7lfwuscQIlg5NCSROonsMZLIIUt5wpfjlcToZq1z62pPYSJLodiPl4OmpgaMgU6ziR/c9VHIUh4QiWw+CnrFgHiQpHgDvoGXnzJ8/V+uZv1Tm8npJowKCbN9nPGaE7nwzecybaFP2ToZT25TsUEYhmWTGIpEnCO2Mheq70wJPHzrRq7+j/+hZ52hwbahPZ9ilCdQeSKvn/EzWjn2hMWEJmDnjh28/OJmdm3rgsDDBgobCjZU+H6ObK4RL+O76f9iXR4RJSgt9OV7mTRlPOMnjWXG3GnMOmI68xZOY9osQY+tlC7SbZGQRLodhnreNFQe/vyUz5Ltm4ARDzex6uBHnUT2CmUiAcqWfFMmkOS4NRCYCE+7c5RWFFUHRy4fw0f+44qSGjEAI3lJ1SARTEx0EXgR9HVY/v3j17Jx5S7oz6C0sKNzG+Ont3PSmcfw1necjmoE3Srohiq3cGrwVN12AOwQZya/aAO6CH/40bP85prfk98ekbUNSOS0bdE4EUUZTLI3sacrtGjxXCxM5NIligZ8i9URIUV0Vpg8cyJTZrht8ozxnHHh/HIbp8m7+nP1sarnr6WeDWwDB68AH7r4v+l43uB5jVgODRKp20T2ConC676VrPulzuUkFBu/rjzll3qSCUF5OV56egddqw2ti5SbI1LdA0fB8Fp6O8ZhCzYuM/IhO174py9dzrVfvZ87r3sAClma/XHsXNfHE7zAI398nKUnL2DFRady5LKmkr5vpbw3pUpWDimpuHv51S3E9ozEkGlcHMfODZaf/vdNPHDLE0hPA426FafoGOdFsRaswhqLwsNGBkyEsRFRFGIzFp0VIlOkpb2B2fNmMG7yWGbMmcLMudOYOrsBr9GtyUsuljL2dna1VLZt+alro+I3gbET29n2/Ba02KEvPIhQJ5FRRjm+oHpfhjIePVuL3H3zk1w4/xjXoQdN+zlYTxt6BCRDu6S6p6STKO6/ulG49C+Ws+DYOfz6ezeyeU0HrV4rPdsK5PMBD+x4lqfvfZFMm/DWt1/CkpPbyYwTd72mIuDK1bR814qnTwluKjEphUCf5VdXP8Ed199Hz/YCmagVpTUmcgZNV4DFisGoAKMDrHbBW8Uwz9RZk5g2aybT5kzmmBOW0D6hmTHjQDVX2S6q/xy1/jQjGNDpth6yGIFxE8cQ2hdHdsNXGOokMhJUh34OE8oo2nPjue+2h7nwnUud18E5Jwa7UdX33dy3LBgNrGJKpw+B7Dhh6ZkTaW19C9f95CZW3r8GL2igKdOC6tcUtysKHQHf+LcfkGmHk84+lvNffyZT5imsQGjieyhKUaOl8ZvW+pwxpLS/+ZfPct3Pb6H75QBdbMAPm9Dac9KFF2B0P5EEgFNhjjlhEZOnTWD2vBlMnjqByTMzNLQAzVIm4URCStstqM0Zo2B6GtCswyGSsRPGYAgwyjoj8iGAOonsNfa+G4poTNGw6aWtbF1fZOKi7MjdvYOoP2LLQk7JPiLlzh4BXrNw1OkNzF96Mb+8+mGu/8ktNNgJ2LxgAoOyGj9sJtwScPfPnuTOXz7EpJljWXTsPI49aQkLjx2DzuLSRHqUR1GEY6p+C1l49LYdrHn6ef5424Ns39QDxQyeyTgjtFZEUeQ8JV4Pb3jHeYyf1cIRC2cyaZpytqPBpIqENEabGUYB1VVqasnh52rprwcv6iRyAGCtRaxCi8+mDduYuGj6CAtM7WsRSfonW7ZLJOH3WOgpWFoahD/58xNYtvA4vvvFn5EPQ3rzeaQoeL6Hr3x3GxWybXUvNz17L9f97BbIhEyeMZ72cS00NTcyduxYlGi6dvXQsb2b7o5eejryREVDVDBE/Qo/bMbXDW75Bg1KCd3FTnKt8KYrLuSCyxYQZAR8COOMZ+oVRhKDubuTODWdigYGQKC5tZFccxbbWyeROkYIay2eaNY++zzHvHqEJDLkjdymElctzqApST7YeGpvx0bLjk5Lfqdlw5qtHDF3Hqt71hIEXTQ1NlXlLwVf5dDikZMmwNC30dK1voMw2oZSG5BEt4gAIy461GpEFL5otO/H679AZEL6owLSWOCMS07mwisXgu8iTg9YKO1uMBiBKFxbP3DPSk46ZQnoynOaWhvJNWboq5NIHSNBkhJARLNp49b4YNVJUuvgIKihiFdM8DOw9smt7NzRyaaXX2bXtm6eXfUyOd3Cyy9uYtf2TiZNnEznzm7CfotnfCT0yOocLS0NzhtirZsdS5IbQ2GtWzeXKCYWiJNVCyLOmyLp17AkBljr5prYAuJBKH00tvtc9p7LOPUNU7G+ywKPuLZKIj+Hu1xMheSVbs6RosrWUr1XUErWfduNd3PSSUvieVXlIlpaGsnlMvRx6CwoXieRAwYFRvH4o0+CeVNFvlCgzDSDEUl1Jq/aQRoQwtsv/hjZ/jYKXW4quhIFkcZGfSjxaGcCxZcNTdLqEvUoZ4NwEbghFoMJIkTinBmeF2f+SaKvyiKDSkLLY2OFSjw3cay6WNwcFCkS6gJdxZ1MP3ICb3rbxSw9bQpkKUXLJrlbJHYtpefJ1VxbJv7dSiWvDu4nG10kXqcvfuIgGezrAAAgAElEQVT79HdFSTw/6XCQpqZGikGBQ2noHTpPcrAhGXxWQcFCJtXFSyNg70VeQ9md2pqbgOlsQPoEz9OIBqWdETNyi1ES2ZDQmjgM3QXMjZs4hilTJjJu3DimTZ3K5k1beHb1c2zetBVTEMRqfJXDE5cI1aksoEoWTouIxYqNjZ5ub3WA8ftQjUXmzhjPX334XUyYnYFWKfGRxG/qMlns3qVd3XwVx6oZZS8xmBQCgIHuDZYn73uO9jGtzqhcNblx/ESPfL4XpG1kFXkFoU4iBwSJXKywFrp2QmtTcjiOwtrbXh+fXpINBMaPb2fL5jyiPawSIikQSCcN7R5jxrfS2Jpj/sK5tI9rZfL0iYwZ186MeQ2ghcqgynnkt57K+uc2c+dND7FhzVa2rNtJb1eIiny0yZDz/z97bx4vyVHd+X5PRGZV3f327X1v7UJICJCFQBKrWYyMsTHg9dkG2xgbL8/jwcb2zPPDy9jzhrEHjz3GNozBZjHLYBaBAEsgIUCAxCK0Sy2p1ft297WqMjPO+yMys7LqVt2l+7bUl76nP9lVNyszIjIy4hdni3N6CIMQEYhdnVhrRK5OpBFYRa2its5V11/Gy37kei59wZYmE23DmUty1iPPRtjuQRc5dSaoCCDa8sOXbvwuc8Ng4jm/OFSaG1UehIS49c5VTWsg8pSRZ++dU6anq/THXT42hUkQ0XSnqtCWb18KFZbibds3c+y+x8n2GScm4n9/7A+gB+jGc0GZB2c2kTv4rXTtFC7dvpVLn/sjRCPK+FHl4KMn2ffIQfY/coDHHzvA8Pg0QWjo7u9CTUx1dhICZfcFu3j+i6/j6mufxuA2gQqN9BCtj6lejNHMhW0FPHjPJBmABD778ZvZ1L+N8enjRBMQ9rdcWBLCckC0BiJrdPrUAJGoHgFdTaH+TtvlPStDYeuuLTj3CIFUEAVHHTYC3YJLfKiApn0krc2EZgWDAF0Qbhc2bhU2XrGZZ5vNMHsV1Sk4eXSGOI5RdYhV+tb1s259gO1NC3P4kVfcxbwISLTqmU8VW88EGUBqcNMHv011IqZcsYizjJ1QNu2Q5khyAn0DvYycfKpau/K0BiJPCUm6vvqYFnEc58YLMYY8PPvpVQGpWXfbjs15ZC4Rg9OE/Y9NsfvKfiRcmpPWvEmbiTmKN8soEAqVXhjqqdBVtj5gcUBjr0rWruJnkc4kt7GYK+lpkHFQH1e+8G9fpiRdJHUfkGp0ZIJNrJvXjnXrBxl5bPzMNOYpoO+PgAariqTpUFWG1mcDbZ6UvXzSwkfqprF+4zo028wGoH67PECtCsnpYFZx0hsghJ6hANMj0OX/zi1PT5aZpBOdqXodfP0LjzO8b4ZAu4ijhFKpwujoBCQFI1Za/8C6Pr6fdCJrIPKkUqaVUFRiYqnjJGbdTr9iSxrvgjRa+WnpQ2hsV+nuq3jlZGrxUBUeffhxiKBcOoVQn+1EnuJhWo7W35dabjt96jKpk1PYonUvkUy6d+DjH7iJLlkHcYBLIDAhc7NVb5qmAeoodPWUaR8iYXXSmjjzJJKQGl1EcbZGVSd51nOuaJ5wK1yhCGzcYkiISDQmEIPBcPLYsL9ETnFNbBUPlisuLDZpC7uhpV3ZneqS+ZcsZWOc5P8tUn6B0pjM3PHZg0wPJ5R1EBc5Kl3dqJtjdGS8qf4MRLv7uslDvn8f0Bon8iSTqAAJLqgxE4/xmtf/cMG0ma5Z+bJ1GvWkxYkBQmFo0zpijfJfTx4f9vWejuNkK3fRynEsdCyHVmC+rdSULeir/YIwo9z6mW8i9TKShKgzzEzXcAmMjjZAJOdGLHT3dX1fcSJrIPIkkihIohijzOkEOy/exJ6nDRRAJN/dwqnNtgJpQSIysGnLehIiVBTBMDo8nnuBnk2WjpUn7XCcYlEU3oqDO28Z48D9J7Fa9oGfEZ+PJjFMjE3hXKFWASx09XWd1ebq5dIaiDxJlIfpMQ4JE+rM8PyXXYOpnNnRlIHIlm2bSFJOxGAYH51cEZ3D6qAVAJCWoky6R+bGj/w7bibAJhZUCYKA9Rs24GKYmpylXm/wHIp3UO5Z40TWaLkkSJr7VRGbMDk3yvYLNvKiH7quEaw5y3G58pWDwObtm3x8UhRRIak7aqO6IvPq+5raMYQKksBXbzrMyNEpqFlc4n1+RCCJHRbL8PERKr2Siz/guZEdu7bit1F/f9AaiDwZpJkuxEEYY7oSfunXfo7BHdLk6u2vXaEZnQ5+SSMSbd2+OQ0urogYkkgZG07yS7+vKN0zZByYRDCJwWiLX30Lcrbtdenw3QE1+NrNd1GfchhCnPOJxMUYonqElYCoFhPNan57JtL0Dnx/WWfWQOQMU67dSPxW9snaKC979fN52vXr5ytUV5jyUhU2bh1CrOLwu3GjumN8ZNJft1rHc9q5TX4Y2UMncN8d+/njX/s7TtyXwFzK7C1ggmkSeqSNEFTAn0fvinni3mNo5M3yYg0msPm1TiGKEibHfL1FkWZgXbGhq5/WQGQFqcWNrHA4JEjQUg3tmeXHf+G6xqazHETal3JKpo3CJSI+3MfQJoHA4VI2OqkrE6OTp/nETxFl4EGHie6AOvzLX3+Cfd8e4W2//F+4+WP3+By4Ebi64Fwj3WmROqlhFUiDzPt4IZ+7g+mRCFEfD1IBMQanSuIUYwxJlDA1MTOP2TRlUHF8n+SuWgORlaLGIElBI/9MUKnjSrO4nmn+5/v/H7q2SiPfjLQrZWVtpCpQ6QWCKFWuKiQwenI8Z/2XtCieDQunNK/hxSZlwdpQ+Nz7HmHiQIlkoo+wuoUPvOMW3v7GD/PwV6rYJM20p81c2EKPp4BzkETw0Lcn+MoX76Jk+xAJSMQrTDGQ5HFgfGCm8dGJ5r0z6TP0DfRAkHX+6hYo10BkhSmHAfUgohpDOWLGDPPH7/y/WXeRQSsUsCC1seZ/r8yAKk40Sd3Rt+3aTKJ17x4SK8PHR+ebLRcq8CygJktHywF+TlZHlY+89zMw20tfaROm3kO5voGjD8zxV3/0T3zonXcysk99vt4ajfhPHcrNDsFn6vv0x25GkgriArJMfgokqnkcIq9Ot4yPTM0HaYGhjYMkGhXcdFYvkKyByApRY3AXhHNNsCWY03F+98/fzKYrfVBih5eZc9CYJ6ufBuXFFEauAUrC9t2bPSfim8bISb+342wBiKVSJyARBRPBp//1TmxcxiYBqBDYgMCGuFmhfiLgs+/7Cn/9hx/koS9PE0iqs9DO4JEBgzg48EDMvV97GOOC/LVlu68bJGkAbMlN6Uaau3ndhn4SrXN63n5nB62ByApSPrjVIUYxZccMw/z677+Ry1+4nrnUZ0Ak3a+Sj6ozvAoJEMLgxgGSJAEEowETI5Mwt7rMvB0srrjUGjP6uONrn/82NikjahCEJElwicMQ0EUflWiAw/eP83d//s989G/uwI0rpurTeRZVnsVuMYCrKrd/7huUtR/jgrzuTLGbK3jTlooaJkam5vevwOBQP5HWUvf31cuFwBqIrDh5BZvgJGJGR3nzf/5Zrv6RzVQTpdwlPv5nq3I+F2Mkj0W6opQW2T/Yiw/yYzAa8Pje/T7y1ioBkAUpVaa+808+QDQaYuIwT66ekYhnOwITEiZdTByKuel9X+MvfvPD7PtWHeoeSFQbebayu63CyUMxt970dWy9C3GLbDtzgjjjlddu/hvtH+pD0+xV83Qmq4zWQGQZtFTVZmIj5oJx3vIHb+C5N+ykbsCWJc8SB23MhgVa2SRMmgco2rB5HcYKLnFYCUgiRcd1dYFIm7ZaoKRw2417efBbjxNPgNHmZNmZuKGqGGMxhFTow870cuDeEf7kd/6SD/7V7dROKmEEoTb03ka9VecLn/gyyZwhqUlbYGhtZ2BDpsanfazVlsYPDvUhtqFtWc28yBqILJHaveS250S44LLd/MW738rVr97CnFNsCEEaxauV9e2kIFwZ0rxODGzbtQ2xaTgkFYxaThxZXeJMRkVlp0lg+pDy8ffexGDPBqIoafs8JosaVzDJBmGJaFao1If4/Afu4O2/+l4OfdvBTAoeeO7k8H2O2z97FwFdXoHqfL+1Hxc+TkxgQyZGpyBqAWqBgaE+TJi5nK1mCFkDkRZq5jWK/7yMS55ftugHAjHO1nClGfY8YwOv/Klr2fp0w5xA2OU5ENU0y0L6mR3zQCQDltPYFVdg4MlUvd7duh+xIFYwGKwJOHZkpLBSLlDmYuzXUzAPBLxiuA6f/cidTBypUp2K6enppf3qnpmiBDGCtT5akqUE1RI9up7Rx2v8l9/9Gz7893cQnVSCWWBCufnjXyeI+sAFhKUQa62fPNmYKBxZ64yxTI5PE9ey7mm0aGjDYBpbNo3xsoqBZC2eSE4y/y9t/bWgzNAGiGhQJ7KTXHrVHn7nT15OMCjEAd52aHzia6fM3y2bnm86lSnn1ANJ0WTcRB04B0XTvCtZWyVbd5EABtf3kwwDDoIg5MCBg1zJxqV0UOtiOp+kzYVnkhxIHR777hzfuv1e4mlDb6UPTQQj1ptuRZtEmSJZa4ljgxjBBCWgRGAN1hk+8a7b+c4XHufNb/lpuspw8J5JZoaVvt4yExNT9PUO4PJo9G0ofZEuVibGlPUbGu9SBcSqz79DgkrDt2TVsYSsgUhK0vSZu290ulxBSCPSBBFaqXL9S67k537zpdh1Qj0AFcWYdEikg81pY33UeeNFmz5EpMksKC0raydlXPPpRiWK50DWbRjk2PAkTnzjJienVic/qqAR2Ag+9O5/48hjw5RtPyWp4JJUYGmH2umL9RYdxQYhgQg2CInjGBdbTC2gl82MP5HwkXd9BRHhwL6TlKUbowHlUqWQoKvNONFUue4UnGFyrMZ67Wq6pH9dGTUZgBQtNKsPSNZAZMlUfMku50DmgjGe/4qr+MXffxmxKkkANgCnjWDMDcoGsMwfJjLvSpJ0Hgg0+aP5LHItLiFpGQId0yuYADZsHuLgA8MEUiFRx+TkxKobt6LeWgJw+6f3c+839lKK+ump9KWOY+1ZIpHMAqYYSfUa+PcRRREiQr1eZ3p6GkRInOPBBx4GoKurQhCE1Ot1usplFEPiFvDxUPEerrEyOT4N2tUUA2r9BnAa4TTxMV5WUf+30hqILIv8bHNEaGkW01vlP7ztTTzj5RupJ2C6BGMKIkrGVaTmFqNCceHJL5NUB5LrQxoWmjTNrbcUSOOzKG41L7jSDqI8WdiwaR0JEVbKqFMmJ1fh/hkFEpg+qvzLuz7CusomRMqgtgVE2pNLHE4TEDDG4pyPsxKGISJCEieIEbq6uujt6cFab+mZnp7GOaXUU2Z2rrZoM12iaCLeQqNeZMys+VIRVHz2QcUhefKd1YcmayCyLErFkrDOzsv7+bm3/DznPbuXWIGAXHzJJnUWJiQLYDM3qYyfUGamEqrVOYbW97JxqxAOSB5jVa1PZp1xIqal+iarhJDvEG2j0cnVqvnQNLBx83pcnpJCePDBB6FOmo17lZADZpQP/v0tRNOCiQOMhktWTqoqzjnEmNyXRFWp1+uUSiX6B/qp1+s5d+Kco1qt4pwjCALmZqq+89tQZtER8RYaHN5Cow0O0qnf0b1+83rGJnyuY7D576uN1kBkiaSAmpg4qNKzSfmNP/wZhs4zRAKmBKGhsZlLwFoYG5lh36MHOXF4hNpszPjwNMcOjDM2Msmjjz6S5pnxloLtO7dz4cXnc/kzLuXCS89nw6aQUo9AkG4sy7iOZeovGupVTxu2rPdKvdil+mFlelLp7enIvyxaZscLzhQ5+N7XRrjji9+hIoMYSoDJFZ1ZE+jwl7WWIAxQNPXg9fqRqFZHVenp6aFcLlOtVonjmDhJcElCuVzGGMP09AyVnmYdR7GmjNtQB1YCpsan/I8tqo+BwV5GZBQVh8HvKs7U4KuJ1kBkCaQA4oiCObY8vZs/f9fP4gy4AIIgFT+ySZ5enyTQP9DDM6+6FHk2uaJW8wLhofuOcfdd9/HgvY+x75EjjBy8n299/hE0jrnuxVdz/UuuYfelfXSvF2wZ1Pjt6E0iv7SfzG3nsXhxBuvQlBkxYpiYqNK7tWvJ8VazubDgYG8RuU6JpFFf/qcCDj7wno9Scj0kde/vImKaqlKKyudmyMv2uqh6y40xBhHBVtJcPLUa1lpKpRLOOW/ONQaTci69vT3EuoA+JK1DHQQSMjE2BQlI2PyuBtb1oXoCyDxrV6OGew1EUmqdFgqSkLklOhOT2DrbL13Hn/79T5OkuWtNh97Lg9BIZiXw5zN1SJan4ZIrt3DZM7ZA8lKOPOL4/Ce+zJ23f5fZ8YhbPvMVbr/l61xy+YVc++JruPJ55zO4RbDd4NLlLl/1OlC7iT60uYSEiqs51BnElZgam0O1a8msdCdOZB5eFP0mioDQDvhab870Q9nPqR7EAkceqnFk3wjdyWashoA0cSF5Gzs0UFVxsQcBU0i6k4EFkIsx9XodgFKplHMtxmRo3kymMHzU+TCUVgO/fyYptCu9bGCgz3OWrXb+VUb2qg0//vanuhFnD6W6BInBziF2DkyNpDTFVS89j7f999flya9NAJkPQpZ3u3hkM1zSE8W55I+CD4iBvg3Cs645j6te+Ew2bB9g78OPY1w3MyMJ93/nUR743mNcfPHT6dsgXn8hra1ueZI2v4tCGArf+NKDzIzFoAG2FLJl1xbOv3wjuoBeRNp8b1dvky+JAhFMTyqliuAMJDJ/X0pTe1Olcotu2ls1ImBS+Y9vege22o9JujC5QnJ+a+adKZi4Mt8R51yuE0mSxHuaBkHOdTjn8msyYKnV61iRDk5mnrsTAZfElMOATdsHuOYVl+TvLbv+kXuOs+++o0hUxmiAYFiNZprVyT+dMUqHtjhE6jhbJQ6n2HFJP2/5ox/LAQRxqHbaQ6/50UnMyJWiBtQoThSHQ8uw+YIuXvlTV/Hf3/2fufK5lzE2NUpUdTx27xF+981/xh1fOICN8CtbC7u/EOVtCVJvSQE0QOIy48MzTUrb1qO1juK51uvy+lJm7tMf+g4fe89t3H/HJPURxVYhiPGBgRzeWpVuelNpbLvPAgxl+iBxEBh49ztvIZ6oYJIKxqUA0uxK3OZNZIf/l4kzzjnilLsIggARIY7jXKmqqlQqFSqVCsYYr0sJgoLyq0MfA6jDKBgXcHj/sbbX9Pf3Uy6XcYlrCSWwumhNnFmA1ERsv2SIt7/rV72C02YrZjpac56+8zTOF9gOg0TS1TGT0Z0DjNC3U3jL21/J0551Ee/9n/9Kb2k9XdLLu//0I9zzjSt4y5/8EHG2Q0yb61qQBIY2DaIcQ1TQSBk5Poq1nZ+ikw6kkzgjgMZw5BHHv/7Pm+ixQ3zhfXcysL6XS6+8kKddeRFXXbuH9VsF2+stU86mYhoNX4q8PPV+IXd/5Ri33fh1upMNCDb9vU2r2+pjGq0t7u61qT4EGqJNxpW0Xuucn+xhGM7zfm3XE4LX14yPTDRLyun3vt4+r8B1yapeztdApA05cWBjdly4mT/6u1+CUFBLas9PRZ786pVhP/3eFMHgV15XglJFeMmPXUhP7y/ynnf8Kzpboqc8xB2fu5vYVvmt//fHSIxXuC5mMSli39CGgTQKvIHYMXpyrO2TLAZKnZ48M2n/r//6fsJ6PzbpoSepEJ1I+PbND/Od2x/kvX87w0WX7+HK51zBJVecz5XP6/UiooF64gFFrO8XqyAxfOyfP0OX7afkukhUfEjCrK2uTYtyBXTzk2QAkIksAEmS5ErW7LfsvN/5a/Lv0HlRyKqVlLUTJwQmbHRY4ba+vn5KpRIw58WljiWe3bQGIm1IJWFwczf/6S9SAAmy95/xyysvt7bqB4xC7MD2Cc99xQ5KlV/gL972TrptF2a6izs/8xB/l3w+50iKRpt2+oucDGzYvB4vbhk0UaYmZkjq+Bw4LbSY8raVXAJSh8//y0Mce2QKjSwmtIQiqBrveJcoljIH7xll/31fJKzcioSOZ/zA03n2857JM56zkd4hCHqFxPhdtDd94EFO7J2iNu0oVcQDlXqfmuVSg+vzuo5MTClyIBmgGGNyDgSauZS2ZWcWMy28DzE8+t1RLrxuqEn227RpHYcPH6Ys65f/EGcRrYFIG3Im5qd+6bXYjeLFGHFe6bXstWIhsFm4LJMqGGOFoAee8/JN/Pbsr/Led3wUkRK22j2PI8E2m5o7VTu0cSBNpwnGBNRm68xMK919S/cVKZKivl4nRDPK7AjceuPXqY0p3eV+rLGghiROCJxP5GU0hNRKIg7EKt+99RHuuu0eBjd3s357DxddvptnP/cKLrt4iM986BaiScP6wY1UZ+uY0+T/M5AociIZWGQeqnEc5xab4vcMfDqWPa+DhNBW5imP+gfEK3Fj4605q5QVWQORnNKVRpRdF2znqpdvhjBlq9sM2EyX0QkoFh4QSxgt6SVGPEeiIVz9sp18767L2PutQ0weq2KqzRxJmgIlDzcwz6ky/Xv9pqHctVIw1GoRU1NK15Z2ttelNDWN0+GgK4Z3//UnGDs6Q0gF64Qoqjddr6rY1GvOincSc5EjkAqGgKmDNSYPj3D4vnG+/LHvEtcdfeV1xLVpJutTVMpdqDGnlS+nCCJJkuSK1DAMc9HFFfbGZN8zhWz2fTHKtCNjI+Ps1u6sw8BB36A3K69mpSqsanXOypGI5zKcxjhb5zff+moIvBgjaTSy5mPxl77wFcsb/SIezCoDwpvf+kp6NgnrNvYRaIlKNMgdn/sud958BBuBukLp7aoRGNpY8rtHDYgRZmeqzE7O5Q5oRRGm03MUrR6Cr5cq3P6Zvdxzx2NQC9G6EtdjAmOxYrBiMJlxO90gpE6QxIdrNC6k5LqoaD9hvY9ydZBgahAz3Uu3HaS70kfJlnFxgYPJLDztHrQ56GkTJUnid+2mgBAEQQ4g2TlTcIsvTvZMzFl4HEjhMBw6eLTZrCVAWQjCAETn+bmsJloDkZQMgpOYK64+n6GneTEmBw3TOEjP5VyIHyPzjxYfgqaD9N4Cf9tOj5FVYzPLskB5g/Bf3/smZqMxursrlGwZqZb4yN/fyOQBxaYTSmkfR1wFwjJs373NKy6BUljixNFhPyELY3lBINSC6KQ+yvqRR2vc8qlvwHQXJgqxNvRcUcr+5/4WSL6VXsTgY74aH9JQDcaEWBPiEoM6i5WyT72QGES8WdfkGqpi2Cjyc7lX2yJanaKSNVOmLsZpFM9n5mKTH2nVxg8UVTBOqM7U2jjHQFdPJd3LtAYiq5ry1aYEP/jDz234g7QDh+xosqu28ZhIrS2dDmk6UmVq8ZLc10RznBLBtyuAq19wBZP1UVQTesMBhvdN86F33YwkbXJiZZTVUxGGNgziiFF1uEQZPj7irSDz3S069JnnPgTPCdTHlBs/dAuHHhrG1MuQGAITYI1BnUOddwbJAGR+3LHGhFcHRgLUiQcVCbwlKT1EFuECcgDpTMX+7/yMuug1batO3dhFTP6ss9PVtuavoY2DaWAizYF1tdEaiKQUu4TNO9Zz+QtSE0W2lGdeT9mRJ41hAcVHNhM7sCJLWHUkX21l/qQ28Kbffym92yxz8Qyilm4d4Cufu5Ovf+4gJiZ3vW/rUW1hfZo8yZs44MSRYazpuDl1fvvEbzIUfL986eP38e0vPkig3dSrESYPad/8VM2fRVqsXwpchRa+rwC1A4mF/UDmU976tChRH9MVpxiM3/lbjD+UHuuG+tNQBMXnX11Ack6DSMb6qjoS6jzjBy6FboESXuVs2xwGL1+0nSRFauVOWjiVZbRxHhmgR3jF614IZT8AozlHmPTw6Q/9O7PHFUkWwDhg45YNJNRRfFDjE8eG58k/rWJVk65E0omSwP575/jSp79OUO/B1ZRSqZROQu1Q2ulSQd9ROESliZNa7rESVBRORcRzXyrMzdTaypcD6/pINE4tXO366+yncxZEPKPgB566GCnVeN4LL/bgkTo9LTzaMuXGysqySxrgArHAj/7csxja3g+lhHpSp68ywKEHR/jSJx4kzpJS0cKNpAWu3zSImti3Xw1jJyd8wGZtuqztUBZIZX1gDj75/s8zN+GQJCAwAUFoESuF/llJAGl5kIJm5HTrWCG+xi8Vxc1AGB6456FGZO5ChQPr+nHi0EwZpSvbS08GnZMgIi3fY1ej1OfYskcWUCicPaQCGgAhvOanX0lSqlLqCYmqCV0McPsXvkF9uhEgB1p4IIH1m9chITgc1limJ+eozWh+bScS8JubUzHvga9Octet95PM+mRNQRCm4kEnTmTlqTFdWxWshaNF39MJqE+HM2k8bcsIcyDO+A2ELTQ4NIANBbGF23R15aE5J0GklTSIKQ/GBMvyk5AlKfDOFBnxKprn37AD7amCjUicEpoSh/cf40ufv5vajL82U+8Up/XQ5rLfBYfDYJmbrDE9QZ6TthMpqT4EmDmuvPdvPkIlGUTrmav42WZlWLpI2fomT+nNpv5DLlWS+pAAhsCUcJO05UR8SAlFm2KUrKSQdWbpnAKRdq8lSRL6+3oY2jR4Cu/tqX3JEoDrEl73868ilirW+vihlaCHO798N/G04iLmJclCYN0GH5FNxSdZmpuuMTfVCBi8kEYn2+L/D//9/zB2ZIYgKWNzv8XM63XlRZjFOIimCaoFGzSN9B75RR3QsphPyEhqMWv5jiYIiQ8ZIRFqa7hgjiSYIQ6nicJJotI4tfIo9cooc+VRotIUY9M6T0weGhrEWrNAN539QHLOeKzOW2UK2ZgSB32961pmypPbvqVScR11AlKG6152KR/9u8+SVCOME0It88S9R3n87jEue9FQHv09NwwImG5h6/YtnJicQVToCrs4cXic7VcMNdXVlhzcc8soD379AEHSm6as9Ff7BF3SYq48/c5cqIQMQPxnJkqlpM2Q5n/yptv5jEGLw8YAACAASURBVGQDdHI/FnVYaWy+88naQazDERO7GmIcNZ2l3BtQ7g3oHazwtKdfzM49W9m5extbdq1nYJuQRnFseiBrWfUeq+cEiMwbygUvRu/GrAyfHIe6eh+RVURqoGeD8OzrruBrN95NGAxiEovOBdx84+1c8YM/lmfbkwxInBdHNm/exIkH9/m9LC5gfHgS8CBS3NCXkZBG74rhXf/tfQS1XogzT05JF39pcUdfOQBp1WU1OqG1lmadTOt9meanBW7Ssw6MI9aYJKnjNEbVR2T36R0cYdlgS8KGTYOs37yVjVuHuOqaK1m/ZR1DWwK6NkjBkkd7DjfF2N6+ZXXFWUnnBIgsRi5Rjh8apu2oOospb66FF7z8OXz15m8SJxFBXKLL9nH3N++nPvmj2A2SB/3JXVXqsHvnbu5zT2CsYDTg2KETiO7JOZbip5Imua7DO//zx3GzIbYWIKljyXwAeYpFvfxbCiSZFCOFfpPmK5064qROPZmjb0OZRGIirWEryvY9W9i2azNbd29h+65NnH/JVnoHwPbIfJTr9Jk1p8HwMLR+dS1a7eicBxFBIBFmxuZgBug6q6WZnIp4Fydw+QvWsf3CDYw8UkOjELGWULt46LujXP689ZTKQAwTo8rcuHLnrfex994ncldzSSxjIxN5+YVxnnPgxsEjd85w39cexdb6Mdic7VdHM4CcyTB/HYGqwHkoaYMKZhkUNQ4TCDY0RBpTjaq4lMswgTK0YZChzdu4+Gl72HXBFnZdsI1tFwiE4sMbBmke5ZTLSNpgSPa9oJIptKm5xdJT+J6KNV7UWj2r2TkNIvk4d4a+cIjbP3uUF/zctiVHPX+qqMglQBoRLIALLt/N6L6H0bqiiRIkFW7/5Lf57u1dTE5Ms++xA4ydmEQjIaCMdSWsKyHqN8CNDY93rNM6mDimvPed/wqzFUxi81a4JJswBX8Nlc5zfcV6oUCaLgi54tRf45zDWKjHNepJlTpzmC4oVQI27hjikl172HXhdnaev50dezYwtFEo9Ut7za00JOFiitO8Ca0AUfxS1Le5ls+UfFvT+CVLdR0+C+icBpGMxBkq0s2X//0OXvDa12ICaR5AZyEVgcQE4GK49kU/wDdvvA+D4jBoZHjsniOoOGpzEdWpOnGtjHGGrv5+nHNpKkgfxu/w/mNN+oVsfBu8NfjzH7uDsSOzlF03ms4ml2j6fX6H5VO6dbYts19bxSs/mTPNhndakXQ7r8OlmeW8LiNxdYKyYdeeHew4bys7z9vG9vO2svP8LkoDeMAo+4dU8TqmJKujHTNQaLsUOY2iXqYIEOl3nVZGjifsffAxHt/7BPsef5yH7nuMLruRubEYG5UJYiU2kd8MGFgvZhpz1vMk5zaIpCNTMBAJh/Ye55aPP85LX38+9KXKsdVA4j1Yn3HNZs9uG89KqQqTo1Vq9SoaK6WwTLkUElhLku6eU3xOWiMhYyPHiWYUKUnTDnqTwENfnebmj9yBzHSjkWLVNCSGnFJxohAFrOg2dTqToQgk/pE9WCQ2Qq1PrB7pHIMb+ti2ezOXX3kRO/ZsYed56xnaaRqm1aJ1JD3nKJjBHWnoyDbdXASQ7MgAIwFqQE3RKjx87wSHHj/KgccOceTAMY4fGmZ8ZJJyqYQxfmD1ui2gIUNBCZUuCAOMZB6v5CLN2a6qOydApHUAIn4/Q27yRMAJUg/58D98kqdd9h/YflXGt3JWcySQPpdRCIWLL9vDY98ZBhWsKWGNYKVMYmLCIGzkWUl3jeb7hNUQBhUOH4jZMdicZUkc/NPffhCdLVGbiugOSukim4ZYbLSiU+t8OU2f83fyarqkO+NyDkNFG9/RNER8QqkcsmX7RvZcdBGbt2/gaVdcyJbdQmVD4b2lWxgS9cDQpNPMRNb08mwvUH5KCyCRPUbL9+q4sm/vKMcPD/PwvXsZOznJ0f3HmRyZgXqAqwnUDWWpEJoehuxAvpGzuE9GMTgMLjU9Z520WvLhnRMgAvOVpVkm9vylqWDjCjJn+Js//iC/9fafZduzjVemnSmOZLnjQ9qvSkI6IQxceMlO9t13FFcPcSoYNWhCuvoZnFPU+J2lDp+uQsTg1GFMyNFDJ9l1xTaftrMg10wOzyBRhZ5KiMaSizA+hMF8lFXAmEIB6bZiyXw01IcHyHwvfGCehEgiEokwZYcpKdiYUo9l++4t/tizhe27N3PZ5Vsw3eJHsDQfTmlEDmjRXWjh0rb9mIkmhR3cbkY5sl85emCMowePc+TAce748l2IC9P9VwZJKxOtYLUbwSDWYMo+rqxDqBdGYFHnIZlVS5vb2xDZzm46Z0AEml9Gthp636T0zbmAILJMHqnyF2/7e97w26/jqhs2NZyEVpIjOZWRkc6A9uytX1q37dqE2tiv4AlErmFfiZ2mXBhkCbUyTkTEgrOMj043zMCF5x0YGGRsOPYKU4d3usIUEnXNtyxIvpR7qwg46i7CuQin/kg0IixZbGgo95TZsWMDm7dv5NLLL2Drzo1s2z1A7zZp9rsoen0WeyATSdocGYmme4rSAEwm68xUhzF+XBk+Vmffowd44tGDHHz8MEcPnMDVBFc3aN0QUKHsNiOJXdQI1cYg0/ghaxPZO9VUxGx72VlL5xSIFClV3qcsefoibRatPCAZg/f8t49y/NgL+aGfuhwzIGd1b2XzafvuLSRSL/Dh0mDZM/hRz7b4AEg+141gcA5GT074DKItGyL6B/sYlZE0slhDVm/Ur3lOYjHZlHAYESSA2EXU3CyuFGPLjm071rF5xxCbt29gy85NbNmxkY3bNlDuglIFbEkwqUl1Qb+LNn3gXCPVKOmjZNyFdeDmwDjl+H7l8L5pDjx2iCf2HuTQE0eZGJtiZnIOa0ICE2KNIQwGvWiRiHfac4I6s2IzPBuLxUyJ+flVQGfxtDjzVNSR5F8t4CxSszjn+PQHbuXk8Ele+0svpndzBiTaEKIbd55CxadHzRYLv4Rt3tGTrvqZ2NB8bb7uaWFGZlG4EmV0eMInnw6K/QN9Az1gTqYokbqFG8AoahWsj4ofJ7GPj2EcQdkQlgz9g71s2r6V3Rfs4KKnn8/uC/op9QrlHrBdMi/8QgZG83PpFhS3GfcATSZTEQgE4hrY0OtCJkeV/Y9N8Pgj+3li70FOHhph5OgE9emYeA5MHGJciE0CAulngEE0zvovaXBtWWS2Bt+wYi7rqwUw2tE5DSIZ+ZUgHbXiV1JVhShAxyt846YHAPiFt76kMdBJ0gDPmp3gydTAFgFE8XI1Cl0bBQnU76spzMKielNoBO9RzXw7fGljJ8ZJ6grl5mfZdd4O7vnqXpwLvDmUmBoRcVIjKAumDOWegD17NrFt92YufPr57DxvGzv2lAlb/S6KHEXh7yJotM7NzA8F9WJanjzb4bfYxwpzcPyg4/DBkzy+9zD7nzjCgSeOMjUxg4v8fYEJcZFCYhDtIsBgJSBQi1ib6i8aepssR03W0AZoFPQ9TX+fe7QGIik1gIRsacdKCY0Dkkm49ZPfQhB+/rdeBP2CGEvnlFFPAaU4JgZsaNsGaS5S7gIvfru6MQZrDGMjE8Q1CHubyw77YdaMUarUsBXDzl3b2L5ra6rw3MqOPf2s3y7e56Iiuf5CxYsWTQDR8tn0GK3WEC2c17ThVZg4qRzZf5SjTxzj0L4jHHriGEcOnqA664hrBnUlNApQFxDaHipBiJFUQ56xOYW6MhDOxFtX6EEpmnEaPVjAkXMXQGANRJqooSfxMj4IGINxZQZlKzd/9JskccIbf++l0IMPk0h601PRVmhig1N9KevWD3JitD2DnO1edT4aMjhwKMYIVgPGTo57ECnc4wxcdNVOfuI3XsEll1zMeecPUSqDyVzBYR6nUczWsNQ5lvtcxKQeX8CkcnR/whOPHvSKzn1HOHrgOElNSepJmq/GYiQgkAG6EnBicNZ6RMXklo88u13aqDwlahuRZP655r+XG4P1+5nWQKSFinqAzJnASEgyBxW3jm/d9jDnXXgeL/rpC8gC0DxpGJJNStp/igES2LRpM8f3Hm9uV4cxr2kyJguIsUyMTRLVoKtwizNw0ZXr2Hr+cyl3CTZVdroOz12cXwJ5XpgccltNJ6kpNakqh56Y49C+o3zvW/fz+CMHOHbgJCYJCQmxWkJcSNl0YwmQ2OUhBxUf0kFNYzEg97PIxJCG6CFNosmpkHTs03ON1kCkA2UDUdQPw1gVMWVq45b3/s2/sWXHL3Hp84caAZ2XMGFXrF0dzhvxbbnn3gcQNjSbNotzyJ/JXdcprMjd3d0cPlilb09XDgbOG3PoGvDXLSYq5Y5bmanY4c3CKfNDHY485jj8xCSH9x3l0BNHObTvKMePnCCuJ8R1R6XSjaihxJbcF0MxqAq12Od4ERfkvh3ZY+S6ngw+MlApch6pxUoWYJHa/ZaPiRSchFNLO/r9RmsgsgAVzcBe5xpgkoCg3sdf/9l7+F/v/13MFpkXaOaMUKuisfCZqw4Uogklrilhh6B1WS4VwDuZiUMlkx4EnGHk5Bhx1EWc1mlMGgCp9VHTCVvMhJGdx0FtWhkfgZHjs9x7z4McOXiUA08c4sTBYZK5ADdn0ZohpEIoZUKzDotQMYLUvTNcXmBhtnpNlOTPXzSU5d2UWpFwxa4rfDsFPUYrL6Mt585VWgORRah1gIiCdSEy3cO//fOdvO6t1zQ4kVwp++S0SVu+i8DwMUWjxT3j8nsLyZlELCSW0ZPjlErbkJbRkZfoPc+xWSE1qE4p4yeVR+4/yr69+zl04AgHnjjM9OQc5bCCJkJcT3CRYmWAwAVYCaFkMdg0x04x8Y02kPFU+ubc1nU+qbQGIqdAJgnQmYBbP3MH1/7QlWy7stIMJE8y5RPHwfDRGQItI2rbX0QzN1I8ZzDgAkaOTyCxD6GBS523YtDYm0lxcPddXgw5+PgRjh48yfCxMabH5ugKewilAs6SRBXKroKteSVK4AAMJvHpM1FJHdMaQOZSeFP1emsnWca8VloIJdbMrk8mrYHIKZAgSGyYG4/41Ac/z6/t+VEYlKd8168ofPVL3ySkG1XTdL6draHV0wEMhjIjh2dgUpmbgRNHlP37jvDE3gMc2HeY44dOMj0xh8aQ1B1JrIRBicCU6bU9SC1NdYkhxPpE3+k+e5tt/jOZOVryxmR6Bot3kHMpkBht5M0xZPqYFqvYuS5PPMW0BiKnSMYElKSLb9/+AGM//2rW9T91IJIDgoO9D+xDkhDSrfqd1mIt6Ay8DsOBg0DKjB6b5pd/7K9RIlCLJIE/4gCSMhXt8hvOoOCWrt7TVVIuw6X7cUyjhUULiUK68Q6QTA2aN25ee+dreBo6idQHrQCKmb6kg5mbhp/MckjXMKstnVMpI1aCsm1rftUsIbMVPv2vt+Umi6J/xJPXJh806N5vjDB8ZAxiH1knV3J2IM025KG5S3fZlhg5PIFOd6PTvTDdjc6V0VoIznqRBwEjiBVMYLCBwVqLtRZjfLJtsUXZLhNR/K5dl+/cpWkmq1N/LMMHo6Hbmf99oXug8a6WejTdu+QWfv/TGoicIvk0iZZAu/jqF78NM8rslDbSmawUkCzBD8U4kAhu+eRXcDWL1QAjZr7Fog1pYQmXRLFqGT85CbUQU+/CuApWK1gpE0iZwPqgOiIGxCDGkO0EzqLKO9WUsVF/aPOhxaNg/m08bLbnRzocNOt4siOb8Pk5OUNHc93nOq2ByDKpyUdKDSohSWz47P/5Ht2Vxi6UJQ2uTnOkab4sXpok8Og3Ex688wCBq3iFZean0ek58ons5ZmcS4gThgYGCYzFisE443f1xkoSJdTqMc5JPvGjekISO5LYFQBB0rJT7kJpBo78t86HqHjuzoEpsAMmPVrLc/O+s+DhFvl90XuW+o7PAVoDkeVSOjPV76NHxCCuxKc+fDOzx9RPONLxv6Jijc7/S9Ok2hF8+D2fYG7YUTbdngvJHKsWEmfytI2ZuKG4JPM3Lza+GdkS53BOcYni44u0HhkYdAKQVGRJj3nnT6OHlnO3LvNYo/a0BiLLomYZP5uhVkvMHFXe+86bqU8oUdW7YGdAcvo6kka92UZ08NWbCD77/gd46Fv76LEDDYXnMspsTFzNFv9UFGHekdZc+GwWQeYfCwBIS2l5y5YBJsvVa6zUsUYNWgORZVM2uBujybiA3mCIu7/yEO97580Ec4qrQhLR0BOsSL2ZpO9NnyaGQ/c6Pva/P0OJHkRtgwOh4F2qLQeZpNRIFiNkSaiXuO6exkzK7yxwIkXkWUAT0qakUznWaCVpDUROlYqaPISuUhfxlOGrn7qbf37H7UQnlSD2kzbJ9onNW3JPodpUIJcYpg8rf/snHyQZKxNqpdGsQtltX3ALn34m80wthZY6rWWBv85MjWu0FFrzEzklygZhOqERpiam6enpY7YmfPe2hzhy5AivfeMPc9nz+n3YRfWZ6gLbXMJSyKU7VY1YvyM2gQP3xPzV29/NyN4a3TLgs9G1tjIFrnZAcrbJ+EvpD02vKwh0jZPLokZJa3T6JL9yyfvXenLJpCAuN5pIvpSnv4oioiQmRsM6rlLlJa95Hj/1puswfUIsPoZrEDS2iCw+/hWXOEgMBmH2kPLNLz7MP//dJwniAaQWEJhy1rr0s8G2d5I69LTUhd5CcqokLZ9Lpebn8yXoqRS0At4eTzX3djbRGogsizR3zmoHIkDD+1IUF9aZ0mE27OnlRTdcywtedg3rN/hQgk3R49tNguI4d0ANbrvxPj7/sdsY3j/LQGkHU6M1b4lJ45qsgcjySzpVWgORBq2ByHIp50S0PYiknLKK4iTBmQiCBCcRpe6A8y/awzXXX8X5l2xl6x4hWNeGJUmLPfKQ45H7D/HoA4/zvbvuY2a8jpszaD2gZLowEqTJqLTpVppsOO2eobHR7RQ7YQ1E1mZNTmsgsmxqgMc8EJk3otOuFXIOxVmH2hgX1oi0ysDGPrbv2ppzL95RzPLw/Y9Sn4kxroSJw3TvShpU2IYtu3CbX2HGiSz0Yp2sgcgaiKwMrSlWzyhlyhLIdnyZRHDOYOKAEl3MHlL2Hj5O04BWwbg+ygkYDQiM9UqU0JfZPGfWRvMaPbW0BiKnRRlIaPPfnbwa0o0ddoFr8vs1gwvJN8o1A8YaeKw8rZTp99x6N2sgcsqUmQjPhM+BQp6O8swMyMUchE7fOW61UYsXyml1+7llPl4DkdOiMwwkZ5LOVLNXJbVwkKfd9eeWH8qax+oardEanRatcSKnRKtjlenEaOQt72RhWW0cyrJfhaTySuFBTzH6e/vmnB3jo1UF36CVbdsaiCybiiLM2SkTLDaEm13H25CenSxqa89n506JdLmlFAFnoTs0za3eZPd/0kmK3odtfl1JG/UaiJwSnR0rzUK00LRYzRJ7OyA5vdKWf31nG5xvUZo4MXf8e7J7OgOQBTmRUwky24HOxgVnjdZojVYRrRgn0hpEZrE8p4sFnTm9PKkdS81qX7Q9C9c//35XiMux+P3t2rRcOnPr8NJLbi1hNfI2nUmK35akM1lYhFnqm15+LzZzSMur7fTplEEkc6rOZD9JkwyBn5DOLexp0GmSZeezslYOTKTl+3zQKLa/WH9zMuiMGn87bf4usOjzN7dp6c+YtaX5c3m0NJ3JUkppd84t8PvZTAvpPITlT9GW8bXMliwXyP1+rsZ4ejKzBJ8SiKTTPP0uSJomQFVJ0hidZ4aTOFVqnazNUrVp0/6MMjAQ0wwqWWoDTRN+Z3v7jfhk04vRvFfcmntlgTt9XCJft21JvSeF62g501TdIm1beCB3Ar9s9mmbfURnDy3OL2R7nlJPYUnHs8q8Ra7xmd3fui8nX2aXxYksCiSpPsOloG3SvnfOkbgsmRA+Kj+CqKQ7vn0WAGkobU77NZ0iJzLf/VpESJKEJEmWuAp7yiZw8bP1BRXpTOm857U/BQMPGtlVvtYkScjD+EmWZ8UiIlgxi74TDzou33SnOFTSF78AmEjGVqvgXBp+0SUEYnPOxA/A1vuXM0qWPrJUNd1FnP3tUOtzx5gFrQNLaEUhHqvk72F+mzLdoLa8o87g2bhB5t2XTl3xPekkwdkIR5xe0bDGiWm0SVTyyQrkzJggSBrMupBqa8H2NQzE0hFInCZEcQTikEAxgZBoQpTUCcqWoOSntYuUJMlSnxqMWgIXIBhETdux3Zk6j4dTFmeSJKbUbVm3tY/u/grGin+oFAgWI+dcOmH9yp8lPnrooYfIdrKSWIxaxAVYZ/HpGbPXkQ2Hzi+m019+mkaEPcLApm56+itYm+5oEc9ZTU9PMztdpzoWMzdZx6eb9sCiBowYTDZwLNS1yradmxnY0Euc1PLB7wttfkF+MDoPGFL4RNEFw7NnA7PE0UNjzIxFSBTiYj85RNLVTiCOI4LAoiQkNuaiy/fgJPLFpBxXHEVEUYSLDcwGuLoQRTG1ao1kgXWgwUA3G4qd+p5NbJVLn3URSNy5ENoMS814XKVWr1OtVqnOValVa1SrNeq1GBKDaIC4ElYDxFi/tyhbXZsmQwcgKcSS9UCSkJgElRhnEtQkhBXLlm0b2XPRRWzZtomenh6mpqZIkgRrLKNjY0xOTjI+Ps7UxBRjoxPMTVV98lApYVyIaIBRQbApKBQBbiH3AC1c4ceEMy5tX4yaiPGJYbZsX8+u83ayc/d2Btf1p3NQCUslgsBSr0VU5+rMTs8xMTbFyIlRRk6MMjE2DUmIaIhxAURg0+zt7SUISVktmXcaTgNErDVEMsPzbngOP/yGp/kdpg5v72m3GCy2sCX+SJJXElfhe3cd4N8/dSsHHzlGPGlwtRKBljFBCWsCktgjfANI2kCGNv3V+M3EqJ2jb0uJP//ITzR6oTj+DOik8js/84/U64q4EIvnkgJjc85dRHzMEJnhzW99FduuMdn47Kw2KB4Z3i62EBR/j2H/XY4/+8N/8FnpXOiLzlltR5LEBCWl0m0pbbD83rtflu4CblNeBL/9I/9INGPBBeAz4tKep2koGf3GwOKDAeL4yV98Na/45a3N9S2JPWtzvYOkqhx+os6xgyf53jfv45u33Y3O9VCfCykH3RCDuNaJ2cqiFEFPERLQhCA0JFKjxhjrtvdw9Quu5LqXXsOuKypthtXmzu1P4IG7Rrjtc1/jvjsfpToWIXE3BCGaqN982fSwiwGeIw85YROcrZGEs+y4eBNX/MCF/MSbr2u2rc6fAvPD9CsQK3ENvvzFvdx52z0cfmiE2eEY4yoYglwumx9qotHe1sX7lEHEBIaazhGHU1ACShArGNOQD6XwPk2nQdTETikWsGp49ot385yXv4HqYeW2m+7mlhu/ytixSaJaiUrQiw1KJFE20Jtl9AxAOlWZmITITvIjP/V6KENsG3ockTSbGxAOCi961XN4/19/kk39O7AuwDnvTEQucjlUYwgikkChBJH41LZN7yFtVMZCGvG/Z9doy8o/f5UufDeQWFATA65JBARInMOIECVVpmcmeOOvvB4qkISNsrXQP0bg2pc+ky98+A7K0odV23YDXsP/oFFOQ/8jJAqI4mwVSuDKSfO9TU/XGVVatQrSJewaKLPrih085+U7eNMf/BCf+5dHuOnfbmVmdIJy0INEFhcVYt03gVLz+DBWCAIBEzNZH+G8p23nla+9gat/cCd0CZTxM2MBhnoeJgCXXbeey655NURw4/++n5s+cStuTqEWQgwkZv5NTe0r/CYONRGJqZGEczzrust5+atfyCXX9TTatpxFunBhkMAPvvZifvA1F3PwDscf/8e/RWKQZKFCtFCCtA7HU6FsqT1DJBD0ggZQ2S380Jufxdv/8Td44WufRRJOU4tmSJI6corOMioRm84b5LkvPX/+b6llyTkFAy945TNZt7MLZyNAMSaTmxss8YJ9kc+X4tRYwn2LPkPnwwaGMLAk1OjfWuGFr7pw4UFm4Ed/5mrqwRRO61QqzTFbO7ahRWfl8+uu/NhQwBlQi1+wKvDKN13M2//+V7joB7ZSMxNIyWGCTJ+UrZwNsPI6CwDBuYTp6hhJ1wyv//WX8Ufv/wWufu0uWCfQw6IAMo+yvrV47qsCP/KWp/P/ve/XOf+ZG5l1w0iYKTsX6x9Jx2BMHMyx5bJe3vZXv8pvvuMGLnlRTzPANT/i0smAC305rgSEMT7rWuvYXNo4PWVns0ZW0kYFTVWmXzIFd8d25X9nvL1vkgNiEjSAWJTencLP/9bLeP0v30B5SKm7GcRqCiRLG7ROFYcjMRGXPHMXtkfAFDmQQkmqJMC6ncJlV52PMzGJS1B1TRxEa68Un1kofFdJWVoprMqZ+NEsATb1V8aOtuk7VR8J3jnXJkFUQlARnnntpdghWfhNGygPwYtf9Twm58aYmZ5eJgykI1lI9U2d2ED/jrMemJcPpzheaHBMZF0hfjFPAohDGDpP+IO/fB0veNXVJOVZpKzYsLW+DEAURFBxxEGdoV1dvOUPfp4bfulqCCFWxWXDr7Wv2rwLacXLFMCd9e2rWyhtgLf9j9fyg6+5lplkBFNOwBZ5PN9vPvOgI4n9RHZBgvZWuegHtvOf/vINXHBVv+f0DSSSZlYsMlutc6ld1rFW0SZ9ztjFREmNehyli6dbdhbClfFYbUHDPMGZ8wCXpTkgoXlStE6QwndRiOOEmZk5bChU6zH0Ca9641Vc/+orCHpj1NUwsuAukLQ9WhiMDtsFv/jWG9Buv8K1jnjFA4sKTMfKG3/j9QyPncBpQqIpYiuFhcD/H9UTiMEqhMYvGMXDSmERSXPNFt9XDkwJnv2N0s82R2ABtWiiuNihicsnoKpDjaPSZ3nN//VKCHyRxRxRTc8rQK/wih9/EUNb+ih3B1i72NBoVe40dCW5WbTwz5ukIakrSQ2SKv6zw+HqpArjQrtpXn+cBdcNb/jd63nxjz6Pyfgktpz5Q1SP5QAAIABJREFU+7ToQkRQYoKKEAVT/PLv/ySXvWQDBF4MD8qCsdl48eKoFsdt1vdJ4dM1j5y8WzNRtSRUnfKGP3g+L/mx5zLlhhGbFuwaC4uP4+8tbVFUwwVzPOMl5/G2v30dlS2C7Zkf32XePM/amrVtoSMTtdWP85mZucK46JRMvTOduseqFl9ng5nI9zXFcHT/JJPH5yiZCmJMvsR4C076co3S29fD0JCBHsnbKyF0lUv5uKx0Bb7cPviZ//BSjj8xxoPfPIhNLKJlwC5qEnYkUE645MrzPSuXK4EbUKCSJbkGrBB0CaUh5VnPu5z9dw8jsSEwFpPJhQqihoAKJw6MY8uDaClKkbNhtvWN8at0//ou1u/q8srbAheCQm1UOfjYCUwSYlyr4AuIIEkXD33vODYKUx7fP0NuGrcOtRE7L97K0JZUFG/oxea/SgGxsHmXZfcl29j/vVFiF9CsGe1w4zJ4aYNwaO9J5ibjNN1n2rDsHRRWdRsEbN/dT2VQfAZBwzxdgAMvQlTgJ3/12dx/zwPs/+4wXWadf9h0MGaLQjWaI4lmeeNvv55Lrh9E0/ICC0lCrqui7g8BJoeVI/tPsvfhxzFpilJFCcoBlz79InZf1If0phytacwBY8CUITLCXFV5w+8/n0f3PsbxB6chKXtGIDUTG2O8XsskVPpLDOzp5jf+5FVQTsU4X2m+yIim0keBu3j82yeYmZxjbGScmelZSqUScexdFnp7e9m2bRvbtq2je4NAr5B5FITWMjAwSFAtY6NsLC2PzsgGPKN+Nf7Quz7Fw3ccJIi7KPo+WGsQgSiqE8V1jBHK5RK7d+/k5S9/Gc+6YQjWe1NqPq6KC0sAb/zN1/I79/wpzBgqpRJx4pNDSWEgZjenGRXQkmIHEl7xmpfMn5vFZUQhTmJULUFgCXqFl776et7z8IeJJy1hUkLENkaMs8hcmX/6y4+hpo6ajP3K2KusAn/c8JMv5sd/51o0nRCStjGZhC9/4tv8n/feRBB3e/NbQYmVl+AsLvIBnI1aMKYJzp3EdA0JL3rltZhuIZHGypWpZ/LHL/Rr0C+8+Iev5z0Pf5Qk6sIk4coGJK7Bp/7pi9z79UfxZvwCkBTARDA4B04SLnr6+Vz30qu4/obdJBXBhSBBMwfvLJgeeONv/yR/+IvvIEx6CcWmplxPThOkojz92vN4yY/vAAtRAjglLAnWQsZkisKB78zxiQ99ju9+4z76ugaoztbyzlJVL9qazxNUDNe//Bp+4TdfjPQI0ku++U6BIIQkzSD2y//xZ3n7r/wPymEZceRiX6KJZ05KMdXyNL/3e7+eL3LF58xfVZrE/YmvT/L/t/fmQXYc54Hn78usqnf0AXQDIIiLJHiB4C2S4AVCPMBbpG7JlmWPd0dr2es5PJ6xvbMRGxprwp6Y2fWO7Qlr5FmNLa1semzJlCiaskiKNwkSFMH7BEWCIAiCAIFuNPp6R1Vm7h+ZVa/e627ckCI28CES3f1eVd755Xd/9975CJueeAlFVLDLzlpEFEnsL4FWu401lsHBAZYvX86ikxZw+a1rOGN1BTPliHWCUhrRc9to7W8fHDsvXgtRViNqD5C0+pEZ6hmHdpYKFozDtR3bXh7jGy99h9af7uPXv/ILXHzDKehByYOSFojBOZh/hmLdzZfz+PdfotVuBZVUhwTvbU0EVGTQ/SnnfbTW9YA4kBSe2fgyF1xyHknd26SoSApe/IIrlmErDTJiLHUcukMSWoWyMbGNEerkO7GwB8m3QtD1L+hf6j+WTt+cA61AtaukezWulaBs0pkt8aPKU3orFaGiOJw9X4HDYfDqwPqimEtvWEaagQk2K5HyU7lxw6tcfsU5/l3ls/MZ69u/5MbFfPMbbdrTCrExgqJbFXF4IAFbNvdazN4EXORtgXoS8OQkvrUKpxyvbXiPF3/yOg89cAqf+Z9u5ZwrhzG2mwhyQBbByvNjrrr+Ml5+/B1UZj1SCJBmKZV58LFfvA7XLz4robEkiSqIagFGtzju+va9PHbPc0TtfupuMbQTqtBliZzbRZlWxk/ue4WNGzbyhV//FNfcvhqX4Eu4IFTsOdNTzo9Zf9s6Hr/7BSKXYNq+UeccREKLaT56/QUsO1/hdA/h6JtDGSCF//DPv8nutyaY2pmS2AWoYLlctqg1016+oVwVBTRawlt7dvHmazu474EnWH7qck5edipZU6Ezh7JzY4rc+C2f7zIcEy/eAmuVsJoxDmM7JTMOY/1msVbjXAwkiFRI3Dz+/A/+jo0/eJdsr+uWm+DJc5vALV+4gTaOdgomJ/dKN36hZxcHypIxzXW3XFqQxSqQr8r6Bfof/+0feOaRVxEDkepYDFoF9UXCLZ9aT9QnOG0wrtuQSlFWYgrOKfyRzdmCGCuatrZepdwjQ5KeQxFVKuikWpQorqLjClFcQUeJp52ld6NZnG4j1TaXX3c+VMPUOc+iaQekcP93HuEf/26DJ9ltzyaowud+9SaiehsrrZCf5siRSJiWAJpI+okYJGKAiP6iaOlDpIaoBGsjlO0jSof54JUW//F3/zsPfe8ddEqX8DWfMzTcePtHUfU2RqVYMSAGI20yPcW8ExNWrenHBDYhilVxEeQs+Nf/8A423PM6cbYQ7ebhXI3MaaxEZGiMaJyKMFZhjb88VLOC2VPhR3/1OC889CFqyqFKQgzJ2XwN1956GZN2BKszXDA4JLIYndK3MOaL/+xqTOL3eK8MKGvA7jcsv/uLf877rzZojFRRzMNSwUiCVQlOV3BRFUnqqEofutqPrg+g6wOoWj9S7UNF/dRkMbu3ttn0+GZcu4YzuftEmeQvLZxQXGC9++GYhgJwBO0BoTiKknfIoTrFaZzTkCVU20N860+/w/bXG15YVFoUFflJri8Qlp26nLZLccp21K+9RTkkMtQGNdfeehFd7iaBWNj9qmXHG3v54d886C34OtPn/9Ow7sbLqQwqrGpjMV0HuLAWJV90wTmPTIqCYMX5nC/7PZdSmh8pLZ6vQ5RCaeUtRJ0rOQBanGoxuKjKp794hR+E8jdopP2uHHnT8uaz23j2oZeg7Qohm1YhoVUE13zyXKK6BZ3SdRqOGgi4KFzXcalEvhChVIxW/vPY9tEej6i0h/n2f/kee96xaNuNQHKZ3CnnRMxfkqvkrdfG0cYmDa6+9Qqivo58XwIVlssYvvv1DXzw1jhM9aGzOuISHBFOIoxTGCdYpzCeeMY6hbWCMjEV28/Iu5Pc/93H2PpSa9ZpcwKLTxWWn7mY1DY9paq9NWqmmqw4Ywm24jUwXXsLIIVs3PHvfvs/M7KlSXtvjG0mOBujdEIUV4gTf9F4CtUjOysaS3dxNkabOrHpQ7s6saqiVAyFhlJKp6dk0DmHrPWYIJEu6lfNeqy7MGwviFNoEmoM8t/+6NvQosvqTpxfxLgmnP2RM6CSkbk0yBi7WxAB0YZMTXP+mlXMX+75015jobv/9iEWJSt4+9kPeG9TVlA/xfHUsOQMxTkfOYNMWqBm8fQ95k6HOfKZ6U/iACMZqppx3kVnQk1oBwRRWB8auP+up4imB3jj6W28/fS+rkUQJV4jEcGlV16IqhhvSDfnSh1bUEqhlRfCxypCmQQ9OcAf/7s7CBb8XWAVxEPC4lOHMNIKLgUWq9qo/owr15+JlZl7Tyy893zKj+/cwNiuKZRTga0qnxV/cvwlKFgnOAkFQaymQp23nnufB37wOO1x13W4FGHPDgmrLlxJI50G7edctCXTDT5yxXnoeKaVsPLECn/8+99m/IMWOq2gJSaOYyqVCpVKhSiKCqNDZ52/vI0t1LbdpWMWID0e67kPW2fM/uf+dsCxpUTKC1aSXB9IqK+Uxhlheizlw3fGee5Hu7qokfzijStw6uqVBRIR8Zamnbp965YMqadcc8uVnX6EJ8QBBp58+BnaY44Tasv53h33wLRfPGdcMRY0XH3jWlTFYcX6RNulsXYooWMJs9XvwmHJqA5orrruMhCwzjv5OeuJkukRxzOPv8C8eCF1hrjvrkdgosMueoGgH9P1t6wjqnmrSS/Jy+FYI8puyP2w0jTFNCxmSvP2K9uZ2uu8rQad4gSchnMvWtVxmnMOQ8rCZUPMX+JvU0tODYfZtLDh/mdxkxViqaFU2Q/CldrI1dW+GEtAJsrLyExM4uo8/chz7Nw21UUtUe7fJWdhSIODJxBZpGK48NJTe+xcPIiFve843n1tJ1FWpV7pp5pUSZIErXXhOJo7j9rgYW7tXMUW3r7GWqxx4W8varCuY7J3YAOKY4lEehFIz9dzUiFQYIlIVcj2Kp568LnZE6EoWHnmMC4yOPwE9brhq+DbsvKcpZywslKMONfYkMFjd71B5CpUo34kTXh100/Z/lYDZUDZkjelggsuX8iSlQu9BqbLMMntx7b/6INzni/02miHVRnEbZaffgKrLh7syFecvxElhacffY32VIZkEVFa5Y3nt5BOd9ebu4gvXxWz5JQhJPFOXzMCG/8cwFqLWEG5hG9/44eozCP68p1kFSw56QSvjcHbXvT11xmYXyvWqqzZF4HWuOO+ux5Gt6okUvWIq8uarIRxCuokuEc4waFDUYVF3Obnt0AW5G35AJTv3+mrl6FiCfImcGKoDyUsOV0hs2lZHdz//Y2YcUUkFa8aVn5sWZaRZRlpcKbsIJIQwqJEse7PG9qz37mhYpicg1zvYx8eUbrmv5uU7BUMBvBjEGKdUNUDbNrwgh9Pj7AKYPgEwSlvRWoygyoZSYnCWwgmhhs/cQ0Di6RzuAj1pfDgDzcgLgarEOvJ5qcffh5a3kCs6JcANeGam64iqipE4VV9xZict4c5piAz/xKLoYmuGtatv8ybhtOZ61gBDcfTDz9P1vYDSXSV8ZEp7vjGPZ7KywWVOSKsC7d95npU1WAkLTb8zwu01t7TWhTaxbz3091eKDzLbb9k2TDG5JQITE5NcvpZpxYPWtehZsXByM4MZWK0TdASleqbTTLlCkTinNdqZcYFasQXsTHPP/Wadwwss4vi5TELThD6BuogDuMsxhqGFnnEP6sizMIrz76Ba0ZUoqr3zm02aLWatNutGaE3nBiyqEUaT89ZsqSBiRo+1IEyWJntlj44OOZIxOGRsxWPhfNSHLwykpkFqUQqot1IoeGwwbBGSoigPii02k1PihuvHy9IMA1taXHSqqWcfclCpN5ZJBHAwNZnW7z/5h6UjXA5lWIjXnjqNcZ3dPjanFxGwzU3r2LhkmEyybpYGuCgwiAcPkhn0gpwniqKU4ZP7OeKa0/BGoI8pPPctldT3nz+XWKpePkJDi0VfvLISzDquim9oL0679Klx1jAenCQj0MpRaQVipj33xrxetNZujW0SIiiqOD1p6anGJhX93uPoJFTHUr0g+27mP3WdZ2fXdjAzXjKWIsVhRUNtsKWl3fM3j8BIhgY7MPYrPDVGl44v0t26UqP4+C9LR+gXQWsYIKsQ8TbXKlybBPA6JRWZYxmfQ/N2h5aoTRDadVHSPtGaVf20pJxXJQiqtc2/mCklx5+xtHeZ8ic6SaSXem0eoiiiFjFfLjDMHxaxNRUm/6hxE+WhVggijUqlTCx+RI4UAYbtbjg0rNJ5kswcQ9EjfFygice3EQig+CigmXBKPa8u4+XntzCVaecVlDyEr6P5gvnrVnFg9s2gpHgT9NBHkop78B3TECC/MJresBiXBuVZFz+0YvQg0Ia5gYlaO2vv0fvfxrbjJGKp5e11tR0nYk9ozx6z2au/sWzoL8jrxLthYC3ffoGvv//PoibynBEHkm7sv/PMRojbtY2fOAnjc0EphxUZ++HEi8kVhIxf/58zjp7VecCIXc98IGdRnaPFm3lFEaHfSvt0B7kkeswHN4vS5zk5C+TY1Ow13mv4AB5Tc2Go1qvMsaE9+dylr7+vo6pveo832oYRt5qEKmYWFVI2watvRC1CMmQB2/SIInlmpsu44v/9hyIZpmbshDJwBuPGf7o9/8ClUVo1bH6ttbOYmA2x1zP+ukxgW6s5lQZs8Nc2E5FQlTRTE5OoDXU60n3A5YioFDejgigHSlNon7DupvPgqiEmxw4A7u2WjY+9iLSrgQkElSpRiPTMQ/e/Si0OnYkkvdVwef+yUU03DhGZWEWezbYMdLUdNdqMWQYaZHpBmuv8+pr75bj+6MEmvsc9979CNrUEacLZKkkZl6yiDv+8k7PAuWETskR7dbPnIuuZaDbGDI6sdMOnmc+rDGWpfI9RYnD2WbnbJdKvhTiBO0UOnd8LJG55ee9lap0bQ7BhQM0+570iKYkc6ATgMqFeoYWzaeVMivLXq0J8+fPL33iOOmkFV22QkVbImSZKXpcyCtceRQhslpkMfUG62472yOvOr7UgGp3sVWgAibKIGmDsoj2shYIcjTplHLoCinOqyue/TmAK/3fYWW6P/E/jaREiabeX/eYtjTJvZMuQVrqtDeZbppJLr/uAgZXSPdzzpNgTz70AvtGGthMeTN28bYdkY5JpM7Od/bw4iPvFM5NJvNGcziQIeHaj10BcYYTGyKS9e6AmR8dOYSoV86T2E5n6JrlkrXns/j0YC4OxfUQObjv7mfRVIl0FVCIEk9+W7CpwrVjNt77FgS3ga5NPyBccc1FSJKB6jD5+8H7RwXC0Zj1n2847TJ2LR8pIKhnBbFBXUvHc7jcfyluhjL4wyE9f8/sX8eKQpV4bCeOZtpAzaJpyXFT7yXTarWQWU5jrrZVSmOtLdjlXADqQl0iQkqbJafP56Rzxds3audL5LyOOLIQOZz2Fr4m8qyPJSW35vKXcD7+joVS9zx0l58TEgmykh6tjb8sXNffqW2TuTYD8xI/+SVSDwhObJ2dYZzDOENm2wwsqLH2Ju/q3ZWrx0Fzj+O5x1/Btggkugu8rfGkIRAT88Ddj0G49HTOHsS+ratvvYJ5i/q8jUren7CTXVmyf9QcUMpIVjDOktFiePEA19y01ru0W9+2iKABO+l47N6niYipJDHW5YF8pQglQKZ46B82ML0rjxvbGQcaPv/L19I3P0aiLFjq9mKanz1kWdaFQMo//e+C2IA8nHTsPnqWQxVU5FwDmoMcKkFZIxgcJZhqjiNxp1PllfMhertZ+4mJye4H82/EI5JWqxkEqHNQ7EpAZ9zwyathQGbyGAeyY+qN16HmHu+Mtvf77TGD7sHM3k1/42QuJaoo+vqDdeEs89BBIoGkFAOVjJWrl3H6RQOFgVFxU1l4+6Up3n7lPSIVkaoGreo4jdoemn0jNOojTFX20K5O8uqbL7H7vWmyRs/BieHUCyssO/0EMt3CkpWm/FiesKDDF+c1T3HKyWcs5byrFvjQAgEROyBS8M6rhm2bd3k7grhFq7qPRm2U6eoepisjTFdHaMb7eGvbZnZ8MBJaKE2WgdpS4cxzToE49a7sxU01e/86ID2l88iR4tWkHnft3jIFUpC2oXhEonqMxzzo/ZyrmTD3gSpGGC4Qo1J00sVFFT91FJBgCUZHR2dEtwO/pQcHB2g2W0H21lHFdoFySORYu35Jp7E8+Igts2vMnIS5oNeEYQ74GQhWwy1Azzis9Dw1k/r3OD2jXo86q90zAY2JmRPqxNB0+7j65s96SkX1vObg0fueQmdVdKxYumqIr/7F57sjWgUBVzrliOcJNiu1kTPfCm76xDU8/djzKInQRMEztfwgR//WDoGdrUohzrj2pqtA+T3j5W3KU14ZPHjPY1RcH30DdSrD8LW/+20fHat8HkrjseXuh7+Vgds/cwMP3/sUA1GMygUoXdCDGQpM1PtYwVgccC/PSRuIZemKxR2bny5yFhp7nEcahYRSeO3VVzltzUUFC1MgFIElS5bM2Yeij71Dm4V7LT8xtGAekkhXeFOgUC03Gs2uAzE6OkqWMSP6gggsWCj09dVh3+ytWQyLTljEGRdf4HXIZWveQE0Wrh7BwK2gOI8CHFMkUsx7mKy5bp/yQnUoBsE6b4W5+rxzup09AyiB97bbIgdMHp3M6owlpw6z5vqlHQvWUt27thleevY1kqjKvuYebvzU57AVaEUQ686ZEgdx4q8SFXXLVXKMt3pNPyvPXcqu16cwmUErYcbOOcogAk5lGJosOXkB51456AWlwVcm7+au7Y4XnnqFSCqMjO/my7/xS7iq54e75Ac93c2lDt5lALCw4sKI1ReeyruvjKGoEIsKwtsO3WVL/PScfQ+tHYxMJXepnwmWs85b5bUPM28dtm8dm4HMP9ixs7MByghAYHh4uIs1cuX6Zh1DPupu6qr4VSynnH6SRwi9hpbhlYnxia53946OYs1MY0kRIIEzzjidrc/t8Vo56ygnJHc43t/+PqPNDxn76oe03TiYaYQU0Y7FKxfwhX95+2xdPSpwbNmZQ8V05Ys7UC9GDBet+UgJk3Yv8rat71KEsw/IykrG2hvXeKl0Hq2qVPf99/+Ysb0T6IrmhJXzWXPd4uIWL3fb2k6bswbGVUC/cNUNa5CKJSPDYmcIzY4+eJ9wo5pctf5SqHgeWFTgoYHIwHMbXmHPzjEQx8KTB1l742nkgZAKR0jnx5mrFwtuIEe6+bxHcMNt64iqBvJcLMoW/im5sKEwmD4aU+DmoFDFsvrCM/0V2NuOhW1vv4d3Vuzslbe3vD278ETB0uXeriSOIqIoQit1gARkLuSdCZ3sOZZOHKetPq2QxXV1z8HUpGNiYrLYJyLC5PhEV+iCHPJuXHbZmsIeJH8nz3nkDDgjTH7YYvMT23j1oW1s3rCLzU99yE83fsi2V3YHj8Njsy+PsRfvYXRawEuKM4xqk6kmqy9YUmyYQvMXqOedO/bgTEjGoyBzTYxusnb9Gu9O3cM3qwwev38jkSSoSDj30rOIgw1J2YgtM9BMjVeXltjKsu9P/vvVN5/PwmXzvKTbmaOI6Xuxlu+dlQyn2tTnxVx3y3kFgss3rAqWuPd/71Hm9S3EYjn/srOpLvBJr7LUkqaWdmppt/3vRWk70sx1fEuEQpC87tZTGVxYwekWKOOjwPX886zWAWbgUOKTODylaegE3VGOk09b1rlYcghatF3bRxGrgiBSwGn2bN8HmbcP6p1iGRQuWLOKifYIqWmECP5+DHObiQe5kBDy3tjAShqcSlm2crFXt/e8pS1M7YM01/+G2yhrKh9K1HXbp+V7bfUlyzC1Bm1aM3qilCJSMXXdh2pVqbQH0NN1omYd1ayQuL4DkB8lAephBNo+Nl68sF9xQDmgMD0/ncslIQ1abh+f+ZVbGAiet5QQiLJ+Qd54aQuSxigiVGRpq31cdcNFzFtMYaGYy7TFwoa7t2B214hsDact1966jjSiEL7mYSp9dHHtw5yKL6ZUl4MiHF5cg3MvPgOSlrelOMRAt7ND+drsbGInzscz0U3Wrb+M+rD4zZqTzWEQz/xohNF3G+jMJzK6bO3FWOXjiYqoIiSfKOVJsFBEeTW3sZ11LGJo14RrbrychhnD6AwTEEYnpGQpe18PFZFf2j6m6CHOREgS5qzgMrh+/XoWnCCdeA35uC2QwdbNOxHn03s4QExMeyRmyzMWMk9xST613jaMWz67FlefwEgDa2d6LvfaR+RaHp/QjDD2DBs1GVpc58obTvVyTUr7Bb9v33j5bT+pgZJQtkKUDfLgD7cUGKSsh3ERLFmjOOejJ2FUI1AkFE/4gFMRPotjiuoxhTh46CCQ3Ps7T3HSayNS/v2YUiL2AJTIbNQlDpwyuKTF8PI+bv7sZYUgsAjugkcI03sd776xg5haCBNoMNEU6268lKjq5SMmkOwCYODhf9iIbvVR0XWWLl7B6tU1khRqGVTapZJCn/V2OEkbkhR0J0ZzZwwKkppw66fXomvW54I5qjEFS1Mjfm7QBlWxfPT6K+iVcQYjVjb8+BnitB9lY7SrcOFZw6jUj61m/HhrWfi9VKoZ1JwPlpzLJAokIvDxz19MbUh5p7zSDebEebWgOhjd1MHs8A7yFA26CjZuMryiyhd/4xxUTbrxaxh36z3Hzq2jYIQo9iSUmIiqHeIf73zEy7yETqBjATSccnk/F151OpmeRmID2qc3NTYL1KVn2ZTuzvDobTh8kOeGmaQdj/MLX/oEaIJFcacZhSfqNj3xIpqYPMeRuIiqzOcnjz6Pdt1D8jI+mM4cv/SbH4f+Jq7S9jYf4alyNLN89g/MkvWCm+P3A8PP2Ox9/+CCqbglQ9czPvUrn6TvROnwvrk8RCB28MiD7zE12qSPhSgV0TL7OPPik1m5et4MUlJZeOfVSbb99ANss45JM9776S5+ed2fUh2ImZgYZ3h4mCzLmJqaojHdYMGCBRhrmGpMEFc1n/vS7XziS+diSrMmQV4wvFJxwRWreeHBLVhjSvFDD3s2en4KPuiQt8Q958LTOOlMXZD0uZxNLGx9uc2bL7+DzhIkVsSmxpc+9nUy8bl6oljPSHjVbrdpNBoMDg7y6V+5iVv/6SrSFO+anp8ABbJQWHfDZTz6/dcRHDZPdG4oyUOORCbSTXlZ43DSxsVtpL/JP//3vwonSuFk2DlpeArssR00xyzNyTbzBwZot1PECFpV2fzSFrLpa5FBb5lZRJRTQAS/9ju/yL/f+mc0PrS4TLCZ9jIjYwOlHMzBy2E4RVBaEK2pJMI5V5/F5R9f6pOL9ayfOBjf4XjrxXdRLilcJSIVQ9Px5ktb2P625cRVqghMlA8t6Rfqpwv/6qv/C3/ylf9ObIeJJD8YHolLV3s/Ozi2MhGxQRXZWwxGMjLapK5JKk3aMk07mqSV7KOVjPFr//qXuerW0yDxpLoVL5QyBvaNOGjB3d/5RyJTJZIYtCVV01x1/aVU50kxstwVQQw8eM/j2LZCS0xSqVJVdWpmiHhyHrXmIqqNBb5ML6SvtZhaY2Eoi6hMD/HQ959katTNZBsDIrntszdRHdBk0j6wXODgZpDyveRimSZ7AAAWSklEQVTEIpGB2LBu/RVIX4fNgw4V8vD9GyDL8xgLykTEzX7iiXnUGgupTA4Tj88nmRgqSn9rMYvUKVQmh7nzW/cx8aHzEcXD+ApZkIJrb77KR3fTphhnobE/wLj9/W4789ZTvMl+RiYN2tEE0XCThadXGDzJ8Fu//6ssW6M8Zaq6KvU86JTj3rseRtKEWCWlQFEKlWlaE4bnN+wlN3Xx1LgnVa1YasuE3/7Kr5P1TWDrDahlqIolqiqiikZH4r2JY/GJtCsOl7TZl+5mNN3BSecs4td+53aIe5xMwwIpC0/++DVGtk8iJi4Gba3DpI7IVvnR3z9KFNKOlJV8Tnw0vwvWncCXf++LtCpjtCvjpPE0NmrhdOrto3LK8Kiw1AcHxw6JCAGBGKxKi+JUCjpDosybUsctpN6C/gZp314+cvNK/vh//O+cdOGiwvLOURJuprBgQNjwwG727pggshW0KIjaDC6scv3HzvKWggG0+AVp7nZsetyrO61z6EDT5ibgWmuyLMMah0jIIGcynLE+eTcx6bTjsfs2o9KesxJu6UXLI/oWVEj6Ne6oeL12GD6f1NmQqRYLl83nwsuXdoTNhENhYXq347mnXsalM3XiZZfx/W0yMZofff9polBn0ZUwzgWLK5yyejk2Tr12hrwDpTrnqL5Sjzy7KrY4ZN3FYeIU2zcJQ6Psq23mlCti/uhvfoNzrp/nheURPopdPjwDtOHp+3awd9cUkiUoicmMK/yqrHW0pyx/+Z/voP2h8++U5HZ5CIQTLkz4s+/9HmevW8E+djJuRphOx2mlDTKbobTf1y0zhe43tCvjDJ9e4bP/4gb+zf/5eWoLpaAi8rCghKlrTzh+8Lf3MhAPgdU+fKalCCIUuwrPPvQq216wBSIp06NOge2DUy87kT/5zv/GFZ86m6xvjDSZ9AaPKrhgONcVEuNYwzFhZ1y4mZedtpDIJLiW7gQMCtI/pRyiYN78AU5euZyTT1vOsjPq9C8SWiESF3G3kFbwrODeDxyP3/ck2TTUlA80tK/1IV/45G1QpYiUnU+jWHjonldo7YUk5EO11oKYgj/WkfdN8EjEq/ys8QsSqwjnYGq0ycP3bODm21chA9JlxOYc1OcLn/iFW/naH36LPlnAAfO27H8W6VAifkuKtrTcNOvWX0ulLFCVDhXy2H2vM7WnTWL6SnUF2UJZdrIfflm5iPvuepTP/9PLkLiUukMBGfSfKFz/iWv4y3e+i5vO6JZwlgSyPfWKghNPHeLspoWsD1yPM2UAGzU595LLuPDKVSw8SSN5flztgj9K6fQ7vHFV6vibv7wT2wqJqRW0W21q9WqBPGOp0hqd5s5vbuILv3kJzPOUSp4gz1iD1poJm/K//v7t/MqXb+O1TXt48pGfMLprjLGRcaan9pFmbS68/DzmL+zngkvP45w1Q8TzBRNDM5C+Oc61eAokMvDtbzyEtBIqqo/Uem9oBzhjvXc4FaK0wh995Rt89b9+mfkrhEz7yzOvywkMLasgKXzp317HJz9/DW++uJsXfvIKY3sm2Ll9J2Mje6nXKgwPD7JkxXKuuvniLk1W97ocOcVyxEikC1PmRUNq4Yu/ud6TxD1qtdxDMBdqFekTlH83chTRp8raQGW9gdlf//n9bHl1OzqrEEcJ7WyaoaV1rrzhvBDdnC7Eg4UHfvgEFRnAheRT+YIoSlaFuUu1eMl5l6jJOZKozq63xtjwo52s+8wSn+8kb0QBCVywdglLTlvE3s1pz9Gafc7KIORsQ34FhSdCtHqJDJUBzdobzy2sa8tJ5zwSeQqdJSirwrg6O6fjvHYAgbeNYarKo3dt5+ovrCjC+kn4qRVctv4E/uavFc3tGdpUOu+WkNOM8UXwud9aj5uahSXM3xGQ3D8pGGt1uttj5ZoLDBR87Q/uYWKkTZzViVRYVWuL8BDOObSLiGSQpx54njNWL+SSm1d6r9ZcGBlr0lbGwJBHbv0rhItPWMSlt3+sg8vLF7zxIRes8ikuUaB1Zzs7xIcpsrDp/g945HvPEGeDiI/yXKyOCvleTOrIxizZVIvvf+tJ/ud/dSV60Jsf5IgEOkaFrRbMO1VxxemLueLTi7sPYV55OGNWB2NAepPfHjkcPs3T5aU1E5zymevTGNJqd2lVoVWBdiV8X4EsgTTyqlSnSjcs+AhRLVBt+H/+8CGeffRlmqMZkUuIlCa1Dc655EwWn6qKWzOfJGXh+Sc+YGJPE9tQ2Aygo/u3LsTqtB3BbjhxIVxBZ7pjlVBjHt/9qx8wOeptFxwU0b8z5yPQr11/CValyCxWtmUJcSfyfVmIFvwmlRTvWufjZrZMkzXrLmB4id9RuVraPwTPP7aLkR0TpFPQamZYa4uwedZ6qssYU3w2V8laFpVWue8HD5Ptc9iUjiGagtRBPE9Yf9taHxmLYDWcj8HaghIpFyNgI2C+4IYEN9wphCJDghv0ruouT+CUb7Mybi2lGv3Onz3GpsdfpTXhUKKLFpVShY+KUsGbN9U0Rg0/vmsjY29ZT8WUQgHoOCJzIQme9uxDK4Fm4vdtO4aGgoZAQ0OaAIlHkGUzfLGgjRCnCt2EO772A7KxBNvUTOyb9hed9UGVveLHexwrExGlNR6+eyPf+tOn0G2Qpmfjuy41wQfIr/o+pBV/ttr5+Qq/p1V/xnwKipkI5GgE0TrsGtrtlPlDwygVMT7uJ0LnZFxY9F79cjk2gSoZd3U4fw+5bUeubVApyIjj2/9hA8898DpxY5AoraFMhFLC8OJB1t+8zh+s8gwZb1y24YHnoR0jmUKMNx6RIKntitEZjIZ0TuLi3aZ9kjmFs15dOL57mg/ebRZhBS0eiRiBpoNPfvFCohohXmYPzneOyeCxaUvFuCCclIi+wXmI0sGGIwQFdoJVjvUfW0cWe77b5MI3A64BP3nseVoTBmV95jrPqlnvuKVkFivL2YsCyBS7tu/h8Ud+WrgtBQUImUCq4PJrzqOZTWFc1hEgiiKztpiX3pJJ4D72UzL8XORiwrxdI2F9LdCCqa2O7/7fm9j4j5tJsnkM1Ia9xkP5wfsD4sdUxCu3FjEV3n5hlN/58h/z2N+/C42wXcTf2CZH0FKSxZX6AmEvq7Dnw77WAe9r8f5GUQs23T3Kb9zyNaZ2avqThbhMU6vUPVJ2HXNMl1duQWURZizhkbs28fWvPEr2oSMOuYDLaVd1OVWM0CX8zqnUnOLuRR4e2UMcz85SHgocNhJptto0Gk2sESpRoDqttwgUOnK23PenXFRPkZ5Chg8GlAFTsO1Zy1d/6w5+/N0NNEcs/dEgFVUjjiKa2RSDQ1VWnzfgQweEkHQKzxalI443n3+XqvRTiWvEOqTADEGO88Xs9ozMjWm6g9t6y0lB24TvfPP7RCFqYG68FEXe8IyqsO7atSXhan4KBWucz6ciHRuvYhNqEOVzhmitg0GYoCKFqsDKM07ijPPr6AqFSteFG3lyj+PlZzajbUItqRPHXjtRGJWVxpF/NnfRiFWYVHj60ef9JjHBPN4UQ2HpyYqbP34DLTsd7CrwpthhW/Wu69x06+wQuDgfMDvzlCiTkI067vnmq3zlX36D++/cyNRukLSCJu4gDvEyNy+HC4gUB86hbURs+pFGP3/xJ9/lP/7u3/PBZotug868EaMO1CnOI4vCpUD5dY6Cn1UuuI+ctyOKUh9NUrfgP/3eXXztD/6abG8NO53QnraIjTyTU9p3OFfIpBWgnKavMo8k6+fp+1/md770NZ65bxeVlrdXijIvG8xtSspz2nVRS48czHXW0KSQtiDSczHdBw+HLRPRSlFJEmIVezNr1+l4foj3CzMvaF9sWEgHj39vO0/c9wzvvL6d5kRK5GpExExOTCASQeKoDMBnfunj3vjIQSUCG8ybIwuP/MM2xne0US1NbAm+Bl4r4+gY6uwPep8RE/Pms9vY+qLl5I8oDN69u8xarF9/EU/d8yIOnYs1g0rR+zqQltSi+MWd3uuYnmpiDShXShukDUm/Y+11lwKQtQN7rsOcG3j9md1M7GpSVUPBQ7qX63WHYMXosb+YiLdefJ+3nslYdp4mGpQinot10E7h6ps+wmP3P4WdytBKkcQaY2yJnOydzP0gktBlF0iP/Gb3LAc0djsev3cLD97zOKM7J5A0RpsqympEwjznh971VNrbCCA2IWkP8ObGD/jdjf8Xa69fw2f+yTUsOkkwkfjToT1F2eXSH1TEcWjHNgLV6eC9FyybnnqFB3/0JGO7GiRugMZkm1pSpeDxRLonx/WeF+dldZlCuyrtXYav/R93cOc3FvCpX7qVVRcuYMEyQdUFpSjiFuejy6mV/IIuFAyB2nHAyJ42L2x8jbu/+WN6BeOHCoeJRASlNeIiRt6f4JWnRqkOxqSm5RMNxfEMY6Yy5CHtlVLEcYy1lrGxMbZv387WrVvZs2OMka1TNEccNCpUpE7VVb1QyNkQUV3IsoxaFFPRdbZsstg4JY5j0iwFgYqL+dF3H6E9LlSUj0mai3KEmcihPD4Ps/df2Ygo6+Ouv76P27kem/ioVLlMJU77iDKHxaDQQZjlfL0Wdu8Y5c1nM7KoUdS5cFE/+3Y6JkfauLaX3JclxM1mixVLVvDWsylNJoginwTdOYdqVbjnbx9ApzUyY0mzJlo0Wh3e5siDBydxlamxJj/82we4PltL37Bfq2Yr9WxXUiNrwND8Yfbsm0ScwjQdzbGMNze1MfH0gRvLwZaRi0K7iA/e38XO7bvZtX03u94fYWTHPtxUhGtFaNOHcho1I0pV10j206CgrAZbRduESOo8++PNPPHg05x81lJOO3slS08+kZVnrmD5yVX653s5FIZCVTL6vuODd0d5b8v7bNm8ja0/3c7ESIvGuPWhKBs1LI5YxRjrAmWQs1izIfruvisETIzYhFhq7H2nydf/8NvofsvJZ53IklNOYMXKpZy0ciknrhhmwSKP5IuIahYmxxwjuzN27fyQHdt38N5729m5cxdvb9nC1FibebKIqh0MeZG7aJoSnts/DSlfXvVXhyyoFRyNxhROZ/QtiKn0xUX4+oM1cullIbr+NsqTnKpGrBJsFuTchfZEEUUJ1lma7WnmLehn7+QI7axJFEdU61Xi2EuT9u6cZPGCE5mebPpbymMPT5HIXIjEP9gVB7b8nReq4HSG1S3vdOVsSVOiGO5fyOTuKVRaQZzH1VZlNO0EK05bynsfvl963msPlNUokxC52If1I3hpKsvY+CgnLFtAIxsHbajXa0xPT3sbg0wY6l/I2O4JXCrgPEuiDguJ+MhwFktc0zTbU5ywbAEpTaaak7SabdLUMDg4RKuZ0V+fx749k9DWRFqTmiaLls5n9773cZKRb779EkFOup9yDmvAZWCMJdYJkYqJVIK2kTeiEx0c8maH/aW4KCiKcqg7CQnJVBooD+v/xmCtjy2rtKC11+5hHFkrxbQtkYqItLdNEaexBlpNQxayD8SF2W8QZAqFwV0RyX4/0yOIDzyNwWrvWiEh3GFmvJtFu90iTVv0DdQZHh5mYmKCLDOYzIWg4YJWPmO0iMI4S7uRUov70c73W7kOGwqUcpZ1Sy39me2c28NmZyqVClFSQ5qO5pQhTSNiXfU5Ys1sdOyBoTjQjuAI5nAhGJDN1QP4sH7GGOI4wbU10yMZdT1MYoznozMhC9ROQg1nhTiKCnuBA6O5XlFvDvmbCp0HqsyqIB1kaAFj24xOjxLrpPtN5xdw1/sjJMwDExbVdQvZynPhnMOmjv7KIK29BmcrxImmNeFwaQ0VQju2rQ2qLX9rlKPPHw4opEgU1dpnmW4YrKmibQ3lhHZDYawiTYWEOk47Yq1x1tAeN1TToVlndDbIg1aV9fni8uDD+QQKUgoGtr+QRgd/K+bUgJ835RTKRl4m11t/uIByvCwWkpxtNx1ZkQNsliHWUomSwj+mq76CpTnInjqflU4C9STKx8F0zgXrfyEOSYXTvRm79zSBGCUVBPHGmHgEpnK5mHNIlqFtXHTJhDAWYQf5mmWus9CBw0Yieej+zGa0WilaaeLEszF5PpYiEdL+5me21ApCkSs0/7s8GOc6JLeIUK3V/POAdaZAFkprKlqTpdkhbKxDgVy6KcVehHyxFILz+n3nLU4REBvhrEIVhhIHnqNcMGpM5g3jVEyz2UBHUYEs0jSDnHI5wsFKrlpzPsTC9FQT5yCJEpwIxnj1dqy9b4koH71OR4rIxbRTc0hIzBvL5ZqjALbXBb8jTHGFR+X+Kj3o5g+igxTyFh/hLkf4Ujh3Fp4r4u0+Ep2UEq13kEgnHsgRdMfaIM/rfKa0wuFIVIKLeo0ce2R6IkENPzPMQZGY/oDz13nvsJBIrs7LMuuFaIFPdEBmTNjQzC5YOyCUxck92Dq48SrtD2mWZSTVhMxkhW1CTq6JUlRrVZrNpl9M1+1deqA58mzVLJ/nqt8Zz9PBJ87nZ9U69srFgsAStIp9fo9uudqMPhVGb8XYFcZ6J7A0tVgrRE4XgaWLeKKiCvnd4UOwJ7CC4MnczBgkytkj0zk8xmFSE9zhNVp0CA3QO7oDQ+cVv7ltHq2uh0oDOBDbPHcsG3eIveqF7nqL+8P1rF+OVA6hrrke7pagdBBTWZtYznN0sEGx5nqu3N6B5/kIBKu5FBgUlWoNxGGynM87ElJ6LhYifCed9vPoTuWBSq6LQ5iebvhEUsEqrEtcWr7VZuvFHLKSPDbszLek9MPz7S4NusHwhYhCSeRlPAXF4Hpr6LRWusm8ejECHM4JSkXBJia/Tbywu4x8Di/CmpQ8QgUd2swRn3MO5RR5igzvW+SfNpn1YzKCKmyODwfC+uKd0/Kwlwc7GlccsNn3kss3w3671/2lcxSsI4WgvLfH4bXCRVjN2WflZlmjAwxw9llwQd3fc072A957WaHVzGddeRhu9j3Ue2aOgJ3xZuFeeOdKSIXSwTmsmilJHHEzQmB3hG+IdJZSOphZIJCSHbLNh+4rvX9YG7zDQ8+FfHyIOy/rcDMCVAvOqTCumVXP2SMXNnHQ6ZfnPZ/rnJMl8LX2YEj+ucYYptxPfYdD9ny/UHA7Lj8MXvNlrN2vrOLgoXRQpcwy+O8OBjnOTomEWg6pi529aEuIKb9K5lqzA0X1OxwE77own3R/I6rzVdcjc+/zA/WhsBSe0Y9Qeaj6CHxnDoZcOwwo99zNTdXMdkYKYWT3pwXC6fryAIKtA2uZZl+Aoreu05dutJUjSVeq5tBnsXeT5kknPXJ3ByWPmgmy3zkvt5ZTR3nXlZuxGl0/Dg/yjZrfwftH4OXeHWHDPe3T2T9dbXSaKe/HnEr+2UFnnrqg2PeHQm33VjHbu93tHSUv3iNmwrvrOsh6D75JKZNJ4eVDIZCPDOZYwqPQD+nazR2e+UjW4yD60pUJ7AB1HfG+6PSncxMf4bodSozXrnWa5bvSx0f9Qj1YmA2BED47Zvu8U+dRDAVwrA7k0ap3jpvy5w5H2o+fz7hmUh5zwdHuz9Ger8N97+e1fw61H8e+nz+7yCXH4Tgch/9fwnEkchyOw3E4IjiORI7DcTgORwTHkchxOA7H4YjgOBI5DsfhOBwRHEcix+E4HIcjguNI5Dgch+NwRPD/AeoNS71mpUxmAAAAAElFTkSuQmCC;rounded=1;" parent="8n4HYUna0BRvYn9VdKNQ-233" vertex="1">
          <mxGeometry x="29.12348011856091" y="503" width="70.77" height="69.47" as="geometry" />
        </mxCell>
        <mxCell id="8n4HYUna0BRvYn9VdKNQ-276" value="&lt;i&gt;&lt;font style=&quot;&quot; color=&quot;#666666&quot;&gt;- broker unavailable&lt;/font&gt;&lt;/i&gt;&lt;div&gt;&lt;i&gt;&lt;font style=&quot;&quot; color=&quot;#666666&quot;&gt;- database unavailable&lt;/font&gt;&lt;/i&gt;&lt;/div&gt;" style="text;html=1;align=left;verticalAlign=middle;resizable=0;points=[];autosize=1;strokeColor=none;fillColor=none;rounded=1;" parent="8n4HYUna0BRvYn9VdKNQ-233" vertex="1">
          <mxGeometry x="319.9963274542201" y="226" width="139" height="41" as="geometry" />
        </mxCell>
        <mxCell id="8n4HYUna0BRvYn9VdKNQ-14" value="AWS Cloud" style="points=[[0,0],[0.25,0],[0.5,0],[0.75,0],[1,0],[1,0.25],[1,0.5],[1,0.75],[1,1],[0.75,1],[0.5,1],[0.25,1],[0,1],[0,0.75],[0,0.5],[0,0.25]];outlineConnect=0;gradientColor=none;html=1;whiteSpace=wrap;fontSize=12;fontStyle=0;container=1;pointerEvents=0;collapsible=0;recursiveResize=0;shape=mxgraph.aws4.group;grIcon=mxgraph.aws4.group_aws_cloud;strokeColor=#232F3E;fillColor=none;verticalAlign=top;align=left;spacingLeft=30;fontColor=#232F3E;dashed=0;rounded=1;" parent="1" vertex="1">
          <mxGeometry x="-625.91" y="1990" width="1606.91" height="1049" as="geometry" />
        </mxCell>
        <mxCell id="8n4HYUna0BRvYn9VdKNQ-105" value="" style="group;rounded=1;" parent="8n4HYUna0BRvYn9VdKNQ-14" vertex="1" connectable="0">
          <mxGeometry x="651.91" y="597" width="526.09" height="163" as="geometry" />
        </mxCell>
        <mxCell id="8n4HYUna0BRvYn9VdKNQ-106" value="Security" style="fillColor=none;strokeColor=#5A6C86;dashed=1;verticalAlign=top;fontStyle=0;fontColor=#5A6C86;whiteSpace=wrap;html=1;rounded=1;" parent="8n4HYUna0BRvYn9VdKNQ-105" vertex="1">
          <mxGeometry width="450.70893124866143" height="163" as="geometry" />
        </mxCell>
        <mxCell id="8n4HYUna0BRvYn9VdKNQ-104" value="" style="shape=image;verticalLabelPosition=bottom;labelBackgroundColor=default;verticalAlign=top;aspect=fixed;imageAspect=0;image=https://logowik.com/content/uploads/images/hashicorp-vault8233.jpg;clipPath=inset(28.67% 14% 27.78% 13%);rounded=1;" parent="8n4HYUna0BRvYn9VdKNQ-105" vertex="1">
          <mxGeometry x="289.87606923059843" y="44" width="143.02" height="64" as="geometry" />
        </mxCell>
        <mxCell id="8n4HYUna0BRvYn9VdKNQ-99" value="RHSSO" style="shape=image;verticalLabelPosition=bottom;labelBackgroundColor=default;verticalAlign=top;aspect=fixed;imageAspect=0;image=https://mp.s81c.com/pwb-production/db669c900448b70d80e49f95b4f019d4/sso-f689f99f-c56d-4d03-b5b3-b2ccec71aaa2_8d001971-b99e-4dcd-ad0f-698c7f3afd0c.png;rounded=1;" parent="8n4HYUna0BRvYn9VdKNQ-105" vertex="1">
          <mxGeometry x="33.8967984180943" y="37" width="78" height="78" as="geometry" />
        </mxCell>
        <mxCell id="8n4HYUna0BRvYn9VdKNQ-272" value="Secrets Manager" style="points=[[0,0,0],[0.25,0,0],[0.5,0,0],[0.75,0,0],[1,0,0],[0,1,0],[0.25,1,0],[0.5,1,0],[0.75,1,0],[1,1,0],[0,0.25,0],[0,0.5,0],[0,0.75,0],[1,0.25,0],[1,0.5,0],[1,0.75,0]];outlineConnect=0;fontColor=#232F3E;fillColor=#DD344C;strokeColor=#ffffff;dashed=0;verticalLabelPosition=bottom;verticalAlign=top;align=center;html=1;fontSize=12;fontStyle=0;aspect=fixed;shape=mxgraph.aws4.resourceIcon;resIcon=mxgraph.aws4.secrets_manager;rounded=1;" parent="8n4HYUna0BRvYn9VdKNQ-105" vertex="1">
          <mxGeometry x="165.97742673687486" y="41" width="78" height="78" as="geometry" />
        </mxCell>
        <mxCell id="8n4HYUna0BRvYn9VdKNQ-92" value="" style="group;rounded=1;" parent="8n4HYUna0BRvYn9VdKNQ-14" vertex="1" connectable="0">
          <mxGeometry x="135.91" y="116" width="202.09" height="484" as="geometry" />
        </mxCell>
        <mxCell id="8n4HYUna0BRvYn9VdKNQ-93" value="API Gateway" style="fillColor=none;strokeColor=#5A6C86;dashed=1;verticalAlign=top;fontStyle=0;fontColor=#5A6C86;whiteSpace=wrap;html=1;rounded=1;" parent="8n4HYUna0BRvYn9VdKNQ-92" vertex="1">
          <mxGeometry width="173.13343328335833" height="484" as="geometry" />
        </mxCell>
        <mxCell id="8n4HYUna0BRvYn9VdKNQ-30" value="Amazon MSK" style="points=[[0,0,0],[0.25,0,0],[0.5,0,0],[0.75,0,0],[1,0,0],[0,1,0],[0.25,1,0],[0.5,1,0],[0.75,1,0],[1,1,0],[0,0.25,0],[0,0.5,0],[0,0.75,0],[1,0.25,0],[1,0.5,0],[1,0.75,0]];outlineConnect=0;fontColor=#232F3E;fillColor=#8C4FFF;strokeColor=#ffffff;dashed=0;verticalLabelPosition=bottom;verticalAlign=top;align=center;html=1;fontSize=12;fontStyle=0;aspect=fixed;shape=mxgraph.aws4.resourceIcon;resIcon=mxgraph.aws4.managed_streaming_for_kafka;rounded=1;" parent="8n4HYUna0BRvYn9VdKNQ-14" vertex="1">
          <mxGeometry x="858" y="166" width="78" height="78" as="geometry" />
        </mxCell>
        <mxCell id="8n4HYUna0BRvYn9VdKNQ-23" value="Amazon Aurora" style="points=[[0,0,0],[0.25,0,0],[0.5,0,0],[0.75,0,0],[1,0,0],[0,1,0],[0.25,1,0],[0.5,1,0],[0.75,1,0],[1,1,0],[0,0.25,0],[0,0.5,0],[0,0.75,0],[1,0.25,0],[1,0.5,0],[1,0.75,0]];outlineConnect=0;fontColor=#232F3E;fillColor=#C925D1;strokeColor=#ffffff;dashed=0;verticalLabelPosition=bottom;verticalAlign=top;align=center;html=1;fontSize=12;fontStyle=0;aspect=fixed;shape=mxgraph.aws4.resourceIcon;resIcon=mxgraph.aws4.aurora;rounded=1;" parent="8n4HYUna0BRvYn9VdKNQ-14" vertex="1">
          <mxGeometry x="858" y="316" width="78" height="78" as="geometry" />
        </mxCell>
        <mxCell id="8n4HYUna0BRvYn9VdKNQ-62" value="" style="group;rounded=1;" parent="8n4HYUna0BRvYn9VdKNQ-14" vertex="1" connectable="0">
          <mxGeometry x="398" y="216" width="373.52" height="220" as="geometry" />
        </mxCell>
        <mxCell id="8n4HYUna0BRvYn9VdKNQ-51" value="EKS Deployments" style="fillColor=none;strokeColor=#5A6C86;dashed=1;verticalAlign=top;fontStyle=0;fontColor=#5A6C86;whiteSpace=wrap;html=1;rounded=1;" parent="8n4HYUna0BRvYn9VdKNQ-62" vertex="1">
          <mxGeometry width="320" height="220" as="geometry" />
        </mxCell>
        <mxCell id="8n4HYUna0BRvYn9VdKNQ-11" value="EKS" style="points=[[0,0,0],[0.25,0,0],[0.5,0,0],[0.75,0,0],[1,0,0],[0,1,0],[0.25,1,0],[0.5,1,0],[0.75,1,0],[1,1,0],[0,0.25,0],[0,0.5,0],[0,0.75,0],[1,0.25,0],[1,0.5,0],[1,0.75,0]];outlineConnect=0;fontColor=#232F3E;fillColor=#ED7100;strokeColor=#ffffff;dashed=0;verticalLabelPosition=bottom;verticalAlign=top;align=center;html=1;fontSize=12;fontStyle=0;aspect=fixed;shape=mxgraph.aws4.resourceIcon;resIcon=mxgraph.aws4.eks;rounded=1;" parent="8n4HYUna0BRvYn9VdKNQ-62" vertex="1">
          <mxGeometry x="10" y="10" width="78" height="78" as="geometry" />
        </mxCell>
        <mxCell id="8n4HYUna0BRvYn9VdKNQ-44" value="Microservice" style="outlineConnect=0;fontColor=#232F3E;gradientColor=none;fillColor=#ED7100;strokeColor=none;dashed=0;verticalLabelPosition=bottom;verticalAlign=top;align=center;html=1;fontSize=12;fontStyle=0;aspect=fixed;pointerEvents=1;shape=mxgraph.aws4.container_1;rounded=1;" parent="8n4HYUna0BRvYn9VdKNQ-62" vertex="1">
          <mxGeometry x="10" y="128" width="80.52" height="52" as="geometry" />
        </mxCell>
        <mxCell id="8n4HYUna0BRvYn9VdKNQ-49" value="Microservice" style="outlineConnect=0;fontColor=#232F3E;gradientColor=none;fillColor=#ED7100;strokeColor=none;dashed=0;verticalLabelPosition=bottom;verticalAlign=top;align=center;html=1;fontSize=12;fontStyle=0;aspect=fixed;pointerEvents=1;shape=mxgraph.aws4.container_1;rounded=1;" parent="8n4HYUna0BRvYn9VdKNQ-62" vertex="1">
          <mxGeometry x="110" y="128" width="80.52" height="52" as="geometry" />
        </mxCell>
        <mxCell id="8n4HYUna0BRvYn9VdKNQ-50" value="Microservice" style="outlineConnect=0;fontColor=#232F3E;gradientColor=none;fillColor=#ED7100;strokeColor=none;dashed=0;verticalLabelPosition=bottom;verticalAlign=top;align=center;html=1;fontSize=12;fontStyle=0;aspect=fixed;pointerEvents=1;shape=mxgraph.aws4.container_1;rounded=1;" parent="8n4HYUna0BRvYn9VdKNQ-62" vertex="1">
          <mxGeometry x="215" y="128" width="80.52" height="52" as="geometry" />
        </mxCell>
        <mxCell id="8n4HYUna0BRvYn9VdKNQ-53" value="Load Balancer" style="points=[[0,0,0],[0.25,0,0],[0.5,0,0],[0.75,0,0],[1,0,0],[0,1,0],[0.25,1,0],[0.5,1,0],[0.75,1,0],[1,1,0],[0,0.25,0],[0,0.5,0],[0,0.75,0],[1,0.25,0],[1,0.5,0],[1,0.75,0]];outlineConnect=0;fontColor=#232F3E;fillColor=#8C4FFF;strokeColor=#ffffff;dashed=0;verticalLabelPosition=bottom;verticalAlign=top;align=center;html=1;fontSize=12;fontStyle=0;aspect=fixed;shape=mxgraph.aws4.resourceIcon;resIcon=mxgraph.aws4.elastic_load_balancing;rounded=1;" parent="8n4HYUna0BRvYn9VdKNQ-62" vertex="1">
          <mxGeometry x="295.52" y="-50" width="78" height="78" as="geometry" />
        </mxCell>
        <mxCell id="8n4HYUna0BRvYn9VdKNQ-63" value="" style="group;rounded=1;" parent="8n4HYUna0BRvYn9VdKNQ-14" vertex="1" connectable="0">
          <mxGeometry x="1068" y="216" width="320" height="220" as="geometry" />
        </mxCell>
        <mxCell id="8n4HYUna0BRvYn9VdKNQ-64" value="EKS Deployments" style="fillColor=none;strokeColor=#5A6C86;dashed=1;verticalAlign=top;fontStyle=0;fontColor=#5A6C86;whiteSpace=wrap;html=1;rounded=1;" parent="8n4HYUna0BRvYn9VdKNQ-63" vertex="1">
          <mxGeometry width="320" height="220" as="geometry" />
        </mxCell>
        <mxCell id="8n4HYUna0BRvYn9VdKNQ-66" value="Microservice" style="outlineConnect=0;fontColor=#232F3E;gradientColor=none;fillColor=#ED7100;strokeColor=none;dashed=0;verticalLabelPosition=bottom;verticalAlign=top;align=center;html=1;fontSize=12;fontStyle=0;aspect=fixed;pointerEvents=1;shape=mxgraph.aws4.container_1;rounded=1;" parent="8n4HYUna0BRvYn9VdKNQ-63" vertex="1">
          <mxGeometry x="10" y="128" width="80.52" height="52" as="geometry" />
        </mxCell>
        <mxCell id="8n4HYUna0BRvYn9VdKNQ-67" value="Microservice" style="outlineConnect=0;fontColor=#232F3E;gradientColor=none;fillColor=#ED7100;strokeColor=none;dashed=0;verticalLabelPosition=bottom;verticalAlign=top;align=center;html=1;fontSize=12;fontStyle=0;aspect=fixed;pointerEvents=1;shape=mxgraph.aws4.container_1;rounded=1;" parent="8n4HYUna0BRvYn9VdKNQ-63" vertex="1">
          <mxGeometry x="110" y="128" width="80.52" height="52" as="geometry" />
        </mxCell>
        <mxCell id="8n4HYUna0BRvYn9VdKNQ-68" value="Microservice" style="outlineConnect=0;fontColor=#232F3E;gradientColor=none;fillColor=#ED7100;strokeColor=none;dashed=0;verticalLabelPosition=bottom;verticalAlign=top;align=center;html=1;fontSize=12;fontStyle=0;aspect=fixed;pointerEvents=1;shape=mxgraph.aws4.container_1;rounded=1;" parent="8n4HYUna0BRvYn9VdKNQ-63" vertex="1">
          <mxGeometry x="215" y="128" width="80.52" height="52" as="geometry" />
        </mxCell>
        <mxCell id="8n4HYUna0BRvYn9VdKNQ-76" value="Load Balancer" style="points=[[0,0,0],[0.25,0,0],[0.5,0,0],[0.75,0,0],[1,0,0],[0,1,0],[0.25,1,0],[0.5,1,0],[0.75,1,0],[1,1,0],[0,0.25,0],[0,0.5,0],[0,0.75,0],[1,0.25,0],[1,0.5,0],[1,0.75,0]];outlineConnect=0;fontColor=#232F3E;fillColor=#8C4FFF;strokeColor=#ffffff;dashed=0;verticalLabelPosition=bottom;verticalAlign=top;align=center;html=1;fontSize=12;fontStyle=0;aspect=fixed;shape=mxgraph.aws4.resourceIcon;resIcon=mxgraph.aws4.elastic_load_balancing;rounded=1;" parent="8n4HYUna0BRvYn9VdKNQ-63" vertex="1">
          <mxGeometry x="-50" y="-50" width="78" height="78" as="geometry" />
        </mxCell>
        <mxCell id="8n4HYUna0BRvYn9VdKNQ-77" style="edgeStyle=orthogonalEdgeStyle;rounded=1;orthogonalLoop=1;jettySize=auto;html=1;strokeColor=#666666;" parent="8n4HYUna0BRvYn9VdKNQ-14" source="8n4HYUna0BRvYn9VdKNQ-76" target="8n4HYUna0BRvYn9VdKNQ-30" edge="1">
          <mxGeometry relative="1" as="geometry" />
        </mxCell>
        <mxCell id="8n4HYUna0BRvYn9VdKNQ-78" style="edgeStyle=orthogonalEdgeStyle;rounded=1;orthogonalLoop=1;jettySize=auto;html=1;" parent="8n4HYUna0BRvYn9VdKNQ-14" source="8n4HYUna0BRvYn9VdKNQ-53" target="8n4HYUna0BRvYn9VdKNQ-30" edge="1">
          <mxGeometry relative="1" as="geometry" />
        </mxCell>
        <mxCell id="8n4HYUna0BRvYn9VdKNQ-79" value="" style="edgeStyle=orthogonalEdgeStyle;rounded=1;orthogonalLoop=1;jettySize=auto;html=1;strokeColor=#666666;" parent="8n4HYUna0BRvYn9VdKNQ-14" source="8n4HYUna0BRvYn9VdKNQ-53" target="8n4HYUna0BRvYn9VdKNQ-30" edge="1">
          <mxGeometry relative="1" as="geometry" />
        </mxCell>
        <mxCell id="8n4HYUna0BRvYn9VdKNQ-80" style="edgeStyle=orthogonalEdgeStyle;rounded=1;orthogonalLoop=1;jettySize=auto;html=1;entryX=0;entryY=0.5;entryDx=0;entryDy=0;entryPerimeter=0;strokeColor=#666666;" parent="8n4HYUna0BRvYn9VdKNQ-14" source="8n4HYUna0BRvYn9VdKNQ-53" target="8n4HYUna0BRvYn9VdKNQ-23" edge="1">
          <mxGeometry relative="1" as="geometry" />
        </mxCell>
        <mxCell id="8n4HYUna0BRvYn9VdKNQ-81" style="edgeStyle=orthogonalEdgeStyle;rounded=1;orthogonalLoop=1;jettySize=auto;html=1;entryX=1;entryY=0.5;entryDx=0;entryDy=0;entryPerimeter=0;strokeColor=#666666;" parent="8n4HYUna0BRvYn9VdKNQ-14" source="8n4HYUna0BRvYn9VdKNQ-76" target="8n4HYUna0BRvYn9VdKNQ-23" edge="1">
          <mxGeometry relative="1" as="geometry">
            <Array as="points">
              <mxPoint x="978" y="205" />
              <mxPoint x="978" y="355" />
            </Array>
          </mxGeometry>
        </mxCell>
        <mxCell id="8n4HYUna0BRvYn9VdKNQ-65" value="EKS" style="points=[[0,0,0],[0.25,0,0],[0.5,0,0],[0.75,0,0],[1,0,0],[0,1,0],[0.25,1,0],[0.5,1,0],[0.75,1,0],[1,1,0],[0,0.25,0],[0,0.5,0],[0,0.75,0],[1,0.25,0],[1,0.5,0],[1,0.75,0]];outlineConnect=0;fontColor=#232F3E;fillColor=#ED7100;strokeColor=#ffffff;dashed=0;verticalLabelPosition=bottom;verticalAlign=top;align=center;html=1;fontSize=12;fontStyle=0;aspect=fixed;shape=mxgraph.aws4.resourceIcon;resIcon=mxgraph.aws4.eks;rounded=1;" parent="8n4HYUna0BRvYn9VdKNQ-14" vertex="1">
          <mxGeometry x="1298" y="226" width="78" height="78" as="geometry" />
        </mxCell>
        <mxCell id="8n4HYUna0BRvYn9VdKNQ-82" value="Region" style="points=[[0,0],[0.25,0],[0.5,0],[0.75,0],[1,0],[1,0.25],[1,0.5],[1,0.75],[1,1],[0.75,1],[0.5,1],[0.25,1],[0,1],[0,0.75],[0,0.5],[0,0.25]];outlineConnect=0;gradientColor=none;html=1;whiteSpace=wrap;fontSize=12;fontStyle=0;container=1;pointerEvents=0;collapsible=0;recursiveResize=0;shape=mxgraph.aws4.group;grIcon=mxgraph.aws4.group_region;strokeColor=#00A4A6;fillColor=none;verticalAlign=top;align=left;spacingLeft=30;fontColor=#147EBA;dashed=1;rounded=1;" parent="8n4HYUna0BRvYn9VdKNQ-14" vertex="1">
          <mxGeometry x="368" y="114" width="442" height="426" as="geometry" />
        </mxCell>
        <mxCell id="8n4HYUna0BRvYn9VdKNQ-83" value="Region" style="points=[[0,0],[0.25,0],[0.5,0],[0.75,0],[1,0],[1,0.25],[1,0.5],[1,0.75],[1,1],[0.75,1],[0.5,1],[0.25,1],[0,1],[0,0.75],[0,0.5],[0,0.25]];outlineConnect=0;gradientColor=none;html=1;whiteSpace=wrap;fontSize=12;fontStyle=0;container=1;pointerEvents=0;collapsible=0;recursiveResize=0;shape=mxgraph.aws4.group;grIcon=mxgraph.aws4.group_region;strokeColor=#00A4A6;fillColor=none;verticalAlign=top;align=left;spacingLeft=30;fontColor=#147EBA;dashed=1;rounded=1;" parent="8n4HYUna0BRvYn9VdKNQ-14" vertex="1">
          <mxGeometry x="998" y="110" width="436" height="430" as="geometry" />
        </mxCell>
        <mxCell id="8n4HYUna0BRvYn9VdKNQ-85" style="edgeStyle=orthogonalEdgeStyle;rounded=1;orthogonalLoop=1;jettySize=auto;html=1;strokeColor=#666666;" parent="8n4HYUna0BRvYn9VdKNQ-14" source="8n4HYUna0BRvYn9VdKNQ-84" target="8n4HYUna0BRvYn9VdKNQ-51" edge="1">
          <mxGeometry relative="1" as="geometry" />
        </mxCell>
        <mxCell id="8n4HYUna0BRvYn9VdKNQ-84" value="Amazon API Gateway&lt;div&gt;&lt;span style=&quot;color: rgb(0, 0, 0); font-size: 11px; background-color: rgb(255, 255, 255);&quot;&gt;HTTP API&lt;/span&gt;&lt;br&gt;&lt;/div&gt;" style="points=[[0,0,0],[0.25,0,0],[0.5,0,0],[0.75,0,0],[1,0,0],[0,1,0],[0.25,1,0],[0.5,1,0],[0.75,1,0],[1,1,0],[0,0.25,0],[0,0.5,0],[0,0.75,0],[1,0.25,0],[1,0.5,0],[1,0.75,0]];outlineConnect=0;fontColor=#232F3E;fillColor=#E7157B;strokeColor=#ffffff;dashed=0;verticalLabelPosition=bottom;verticalAlign=top;align=center;html=1;fontSize=12;fontStyle=0;aspect=fixed;shape=mxgraph.aws4.resourceIcon;resIcon=mxgraph.aws4.api_gateway;rounded=1;" parent="8n4HYUna0BRvYn9VdKNQ-14" vertex="1">
          <mxGeometry x="178" y="287" width="78" height="78" as="geometry" />
        </mxCell>
        <mxCell id="8n4HYUna0BRvYn9VdKNQ-100" style="edgeStyle=orthogonalEdgeStyle;rounded=1;orthogonalLoop=1;jettySize=auto;html=1;exitX=0.5;exitY=1;exitDx=0;exitDy=0;strokeColor=#666666;" parent="8n4HYUna0BRvYn9VdKNQ-14" source="8n4HYUna0BRvYn9VdKNQ-93" target="8n4HYUna0BRvYn9VdKNQ-106" edge="1">
          <mxGeometry relative="1" as="geometry">
            <Array as="points">
              <mxPoint x="222" y="675" />
            </Array>
          </mxGeometry>
        </mxCell>
        <mxCell id="8n4HYUna0BRvYn9VdKNQ-90" value="Mulesoft API Gateway&#xa;HTTP API" style="shape=image;verticalLabelPosition=bottom;labelBackgroundColor=default;verticalAlign=top;aspect=fixed;imageAspect=0;image=https://www.ibm.com/content/dam/adobe-cms/instana/media_logo/Mulesoft.png/_jcr_content/renditions/cq5dam.web.1280.1280.png;clipPath=inset(17.7% 28% 19.03% 28%);rounded=1;" parent="8n4HYUna0BRvYn9VdKNQ-14" vertex="1">
          <mxGeometry x="170.34999999999997" y="420" width="93.29" height="101.06" as="geometry" />
        </mxCell>
        <mxCell id="8n4HYUna0BRvYn9VdKNQ-107" style="edgeStyle=orthogonalEdgeStyle;rounded=1;orthogonalLoop=1;jettySize=auto;html=1;exitX=0.5;exitY=1;exitDx=0;exitDy=0;strokeColor=#666666;" parent="8n4HYUna0BRvYn9VdKNQ-14" source="8n4HYUna0BRvYn9VdKNQ-51" target="8n4HYUna0BRvYn9VdKNQ-106" edge="1">
          <mxGeometry relative="1" as="geometry" />
        </mxCell>
        <mxCell id="8n4HYUna0BRvYn9VdKNQ-108" style="edgeStyle=orthogonalEdgeStyle;rounded=1;orthogonalLoop=1;jettySize=auto;html=1;strokeColor=#666666;" parent="8n4HYUna0BRvYn9VdKNQ-14" source="8n4HYUna0BRvYn9VdKNQ-64" target="8n4HYUna0BRvYn9VdKNQ-106" edge="1">
          <mxGeometry relative="1" as="geometry">
            <Array as="points">
              <mxPoint x="1218" y="517" />
              <mxPoint x="845" y="517" />
            </Array>
          </mxGeometry>
        </mxCell>
        <mxCell id="8n4HYUna0BRvYn9VdKNQ-1" value="AWS Account" style="points=[[0,0],[0.25,0],[0.5,0],[0.75,0],[1,0],[1,0.25],[1,0.5],[1,0.75],[1,1],[0.75,1],[0.5,1],[0.25,1],[0,1],[0,0.75],[0,0.5],[0,0.25]];outlineConnect=0;gradientColor=none;html=1;whiteSpace=wrap;fontSize=12;fontStyle=0;container=1;pointerEvents=0;collapsible=0;recursiveResize=0;shape=mxgraph.aws4.group;grIcon=mxgraph.aws4.group_account;strokeColor=#CD2264;fillColor=none;verticalAlign=top;align=left;spacingLeft=30;fontColor=#CD2264;dashed=0;rounded=1;" parent="1" vertex="1">
          <mxGeometry x="-810" y="1150" width="1100" height="700" as="geometry" />
        </mxCell>
        <mxCell id="8n4HYUna0BRvYn9VdKNQ-4" value="Region" style="points=[[0,0],[0.25,0],[0.5,0],[0.75,0],[1,0],[1,0.25],[1,0.5],[1,0.75],[1,1],[0.75,1],[0.5,1],[0.25,1],[0,1],[0,0.75],[0,0.5],[0,0.25]];outlineConnect=0;gradientColor=none;html=1;whiteSpace=wrap;fontSize=12;fontStyle=0;container=1;pointerEvents=0;collapsible=0;recursiveResize=0;shape=mxgraph.aws4.group;grIcon=mxgraph.aws4.group_region;strokeColor=#00A4A6;fillColor=none;verticalAlign=top;align=left;spacingLeft=30;fontColor=#147EBA;dashed=1;rounded=1;" parent="8n4HYUna0BRvYn9VdKNQ-1" vertex="1">
          <mxGeometry x="37" y="40" width="1023" height="630" as="geometry" />
        </mxCell>
        <mxCell id="8n4HYUna0BRvYn9VdKNQ-7" value="VPC" style="points=[[0,0],[0.25,0],[0.5,0],[0.75,0],[1,0],[1,0.25],[1,0.5],[1,0.75],[1,1],[0.75,1],[0.5,1],[0.25,1],[0,1],[0,0.75],[0,0.5],[0,0.25]];outlineConnect=0;gradientColor=none;html=1;whiteSpace=wrap;fontSize=12;fontStyle=0;container=1;pointerEvents=0;collapsible=0;recursiveResize=0;shape=mxgraph.aws4.group;grIcon=mxgraph.aws4.group_vpc2;strokeColor=#8C4FFF;fillColor=none;verticalAlign=top;align=left;spacingLeft=30;fontColor=#AAB7B8;dashed=0;rounded=1;" parent="8n4HYUna0BRvYn9VdKNQ-4" vertex="1">
          <mxGeometry x="30" y="40" width="960" height="560" as="geometry" />
        </mxCell>
        <mxCell id="8n4HYUna0BRvYn9VdKNQ-10" value="Private subnet" style="points=[[0,0],[0.25,0],[0.5,0],[0.75,0],[1,0],[1,0.25],[1,0.5],[1,0.75],[1,1],[0.75,1],[0.5,1],[0.25,1],[0,1],[0,0.75],[0,0.5],[0,0.25]];outlineConnect=0;gradientColor=none;html=1;whiteSpace=wrap;fontSize=12;fontStyle=0;container=1;pointerEvents=0;collapsible=0;recursiveResize=0;shape=mxgraph.aws4.group;grIcon=mxgraph.aws4.group_security_group;grStroke=0;strokeColor=#00A4A6;fillColor=#E6F6F7;verticalAlign=top;align=left;spacingLeft=30;fontColor=#147EBA;dashed=0;rounded=1;" parent="8n4HYUna0BRvYn9VdKNQ-7" vertex="1">
          <mxGeometry x="41.5" y="40" width="877" height="470" as="geometry" />
        </mxCell>
        <mxCell id="8n4HYUna0BRvYn9VdKNQ-86" style="edgeStyle=orthogonalEdgeStyle;rounded=1;orthogonalLoop=1;jettySize=auto;html=1;entryX=0;entryY=0.5;entryDx=0;entryDy=0;strokeColor=#666666;" parent="1" source="8n4HYUna0BRvYn9VdKNQ-16" target="8n4HYUna0BRvYn9VdKNQ-93" edge="1">
          <mxGeometry relative="1" as="geometry">
            <mxPoint x="-688.0042742048628" y="2486.0000000000005" as="sourcePoint" />
            <Array as="points" />
          </mxGeometry>
        </mxCell>
        <mxCell id="8n4HYUna0BRvYn9VdKNQ-102" value="" style="group;rounded=1;" parent="1" vertex="1" connectable="0">
          <mxGeometry x="-791" y="2189" width="100" height="194.5" as="geometry" />
        </mxCell>
        <mxCell id="8n4HYUna0BRvYn9VdKNQ-16" value="devices" style="outlineConnect=0;gradientColor=none;fontColor=#545B64;strokeColor=none;fillColor=#879196;dashed=0;verticalLabelPosition=bottom;verticalAlign=top;align=center;html=1;fontSize=12;fontStyle=0;aspect=fixed;shape=mxgraph.aws4.illustration_devices;pointerEvents=1;rounded=1;" parent="8n4HYUna0BRvYn9VdKNQ-102" vertex="1">
          <mxGeometry y="121.5" width="100" height="73" as="geometry" />
        </mxCell>
        <mxCell id="8n4HYUna0BRvYn9VdKNQ-15" value="users" style="outlineConnect=0;gradientColor=none;fontColor=#545B64;strokeColor=none;fillColor=#879196;dashed=0;verticalLabelPosition=bottom;verticalAlign=top;align=center;html=1;fontSize=12;fontStyle=0;aspect=fixed;shape=mxgraph.aws4.illustration_users;pointerEvents=1;rounded=1;" parent="8n4HYUna0BRvYn9VdKNQ-102" vertex="1">
          <mxGeometry x="2" width="98" height="98" as="geometry" />
        </mxCell>
        <mxCell id="8n4HYUna0BRvYn9VdKNQ-110" value="Apache KAFKA?&lt;div&gt;Throughput é necessário&lt;span style=&quot;background-color: initial;&quot;&gt;? API externa possui performance para tal?&lt;/span&gt;&lt;/div&gt;" style="text;html=1;align=left;verticalAlign=middle;resizable=0;points=[];autosize=1;strokeColor=none;fillColor=none;rounded=1;" parent="1" vertex="1">
          <mxGeometry x="139" y="1917" width="382" height="41" as="geometry" />
        </mxCell>
        <mxCell id="8n4HYUna0BRvYn9VdKNQ-127" style="edgeStyle=orthogonalEdgeStyle;rounded=1;orthogonalLoop=1;jettySize=auto;html=1;" parent="1" source="8n4HYUna0BRvYn9VdKNQ-278" target="8n4HYUna0BRvYn9VdKNQ-123" edge="1">
          <mxGeometry relative="1" as="geometry" />
        </mxCell>
        <mxCell id="8n4HYUna0BRvYn9VdKNQ-112" value="" style="shape=image;verticalLabelPosition=bottom;labelBackgroundColor=default;verticalAlign=top;aspect=fixed;imageAspect=0;image=https://www.cleo.com/sites/default/files/2023-12/ibm-mq-integration.png;clipPath=inset(12.36% 24.67% 12.36% 25%);rounded=1;" parent="1" vertex="1">
          <mxGeometry x="-528" y="3635" width="92.4" height="82" as="geometry" />
        </mxCell>
        <mxCell id="8n4HYUna0BRvYn9VdKNQ-119" style="edgeStyle=orthogonalEdgeStyle;rounded=1;orthogonalLoop=1;jettySize=auto;html=1;" parent="1" source="8n4HYUna0BRvYn9VdKNQ-118" target="8n4HYUna0BRvYn9VdKNQ-112" edge="1">
          <mxGeometry relative="1" as="geometry" />
        </mxCell>
        <mxCell id="8n4HYUna0BRvYn9VdKNQ-120" value="" style="group;rounded=1;" parent="1" vertex="1" connectable="0">
          <mxGeometry x="-743" y="3646" width="139.60000000000002" height="87.15999999999985" as="geometry" />
        </mxCell>
        <mxCell id="8n4HYUna0BRvYn9VdKNQ-118" value="Envio transações" style="rounded=1;whiteSpace=wrap;html=1;fillColor=#d5e8d4;strokeColor=#82b366;" parent="8n4HYUna0BRvYn9VdKNQ-120" vertex="1">
          <mxGeometry width="120" height="60" as="geometry" />
        </mxCell>
        <mxCell id="8n4HYUna0BRvYn9VdKNQ-117" value="" style="shape=image;verticalLabelPosition=bottom;labelBackgroundColor=default;verticalAlign=top;aspect=fixed;imageAspect=0;image=https://www.onetrust.com/content/dam/onetrust/brand/content/graphic/thumbnail/integrations/OT-integrations-logo-IBM-DB2.png;clipPath=inset(18.92% 19.67% 19.59% 19%);rounded=1;" parent="8n4HYUna0BRvYn9VdKNQ-120" vertex="1">
          <mxGeometry x="97" y="46" width="40.6" height="40.16" as="geometry" />
        </mxCell>
        <mxCell id="8n4HYUna0BRvYn9VdKNQ-147" style="edgeStyle=orthogonalEdgeStyle;rounded=1;orthogonalLoop=1;jettySize=auto;html=1;" parent="1" source="8n4HYUna0BRvYn9VdKNQ-128" target="8n4HYUna0BRvYn9VdKNQ-143" edge="1">
          <mxGeometry relative="1" as="geometry" />
        </mxCell>
        <mxCell id="8n4HYUna0BRvYn9VdKNQ-128" value="Amazon MSK" style="points=[[0,0,0],[0.25,0,0],[0.5,0,0],[0.75,0,0],[1,0,0],[0,1,0],[0.25,1,0],[0.5,1,0],[0.75,1,0],[1,1,0],[0,0.25,0],[0,0.5,0],[0,0.75,0],[1,0.25,0],[1,0.5,0],[1,0.75,0]];outlineConnect=0;fontColor=#232F3E;fillColor=#8C4FFF;strokeColor=#ffffff;dashed=0;verticalLabelPosition=bottom;verticalAlign=top;align=center;html=1;fontSize=12;fontStyle=0;aspect=fixed;shape=mxgraph.aws4.resourceIcon;resIcon=mxgraph.aws4.managed_streaming_for_kafka;rounded=1;" parent="1" vertex="1">
          <mxGeometry x="49.00000000000003" y="3637" width="78" height="78" as="geometry" />
        </mxCell>
        <mxCell id="8n4HYUna0BRvYn9VdKNQ-131" style="edgeStyle=orthogonalEdgeStyle;rounded=1;orthogonalLoop=1;jettySize=auto;html=1;" parent="1" source="8n4HYUna0BRvYn9VdKNQ-123" target="8n4HYUna0BRvYn9VdKNQ-128" edge="1">
          <mxGeometry relative="1" as="geometry" />
        </mxCell>
        <mxCell id="8n4HYUna0BRvYn9VdKNQ-141" value="" style="group;rounded=1;" parent="1" vertex="1" connectable="0">
          <mxGeometry x="189" y="3646" width="139.60000000000002" height="87.15999999999985" as="geometry" />
        </mxCell>
        <mxCell id="8n4HYUna0BRvYn9VdKNQ-142" value="" style="group;rounded=1;" parent="8n4HYUna0BRvYn9VdKNQ-141" vertex="1" connectable="0">
          <mxGeometry width="133.82" height="84.72" as="geometry" />
        </mxCell>
        <mxCell id="8n4HYUna0BRvYn9VdKNQ-143" value="Envio evento pagamento para" style="rounded=1;whiteSpace=wrap;html=1;fillColor=#dae8fc;strokeColor=#6c8ebf;" parent="8n4HYUna0BRvYn9VdKNQ-142" vertex="1">
          <mxGeometry width="120" height="60" as="geometry" />
        </mxCell>
        <mxCell id="8n4HYUna0BRvYn9VdKNQ-144" value="" style="shape=image;verticalLabelPosition=bottom;labelBackgroundColor=default;verticalAlign=top;aspect=fixed;imageAspect=0;image=https://pbs.twimg.com/profile_images/1235868806079057921/fTL08u_H_400x400.png;clipPath=inset(18.67% 15.33% 18.33% 15%);rounded=1;" parent="8n4HYUna0BRvYn9VdKNQ-142" vertex="1">
          <mxGeometry x="91" y="46" width="42.82" height="38.72" as="geometry" />
        </mxCell>
        <mxCell id="8n4HYUna0BRvYn9VdKNQ-145" style="edgeStyle=orthogonalEdgeStyle;rounded=1;orthogonalLoop=1;jettySize=auto;html=1;" parent="1" source="8n4HYUna0BRvYn9VdKNQ-123" target="8n4HYUna0BRvYn9VdKNQ-129" edge="1">
          <mxGeometry relative="1" as="geometry" />
        </mxCell>
        <mxCell id="8n4HYUna0BRvYn9VdKNQ-148" value="Amazon Aurora" style="points=[[0,0,0],[0.25,0,0],[0.5,0,0],[0.75,0,0],[1,0,0],[0,1,0],[0.25,1,0],[0.5,1,0],[0.75,1,0],[1,1,0],[0,0.25,0],[0,0.5,0],[0,0.75,0],[1,0.25,0],[1,0.5,0],[1,0.75,0]];outlineConnect=0;fontColor=#232F3E;fillColor=#C925D1;strokeColor=#ffffff;dashed=0;verticalLabelPosition=bottom;verticalAlign=top;align=center;html=1;fontSize=12;fontStyle=0;aspect=fixed;shape=mxgraph.aws4.resourceIcon;resIcon=mxgraph.aws4.aurora;rounded=1;" parent="1" vertex="1">
          <mxGeometry x="210.00000000000003" y="3792" width="78" height="78" as="geometry" />
        </mxCell>
        <mxCell id="8n4HYUna0BRvYn9VdKNQ-149" style="edgeStyle=orthogonalEdgeStyle;rounded=1;orthogonalLoop=1;jettySize=auto;html=1;" parent="1" source="8n4HYUna0BRvYn9VdKNQ-143" target="8n4HYUna0BRvYn9VdKNQ-148" edge="1">
          <mxGeometry relative="1" as="geometry" />
        </mxCell>
        <mxCell id="8n4HYUna0BRvYn9VdKNQ-157" style="edgeStyle=orthogonalEdgeStyle;rounded=1;orthogonalLoop=1;jettySize=auto;html=1;" parent="1" source="8n4HYUna0BRvYn9VdKNQ-150" target="8n4HYUna0BRvYn9VdKNQ-155" edge="1">
          <mxGeometry relative="1" as="geometry" />
        </mxCell>
        <mxCell id="8n4HYUna0BRvYn9VdKNQ-150" value="Mulesoft API Gateway&#xa;HTTP API" style="shape=image;verticalLabelPosition=bottom;labelBackgroundColor=default;verticalAlign=top;aspect=fixed;imageAspect=0;image=https://www.ibm.com/content/dam/adobe-cms/instana/media_logo/Mulesoft.png/_jcr_content/renditions/cq5dam.web.1280.1280.png;clipPath=inset(17.7% 28% 19.03% 28%);rounded=1;" parent="1" vertex="1">
          <mxGeometry x="201.99999999999994" y="3439" width="93.29" height="101.06" as="geometry" />
        </mxCell>
        <mxCell id="8n4HYUna0BRvYn9VdKNQ-151" style="edgeStyle=orthogonalEdgeStyle;rounded=1;orthogonalLoop=1;jettySize=auto;html=1;" parent="1" source="8n4HYUna0BRvYn9VdKNQ-143" target="8n4HYUna0BRvYn9VdKNQ-150" edge="1">
          <mxGeometry relative="1" as="geometry">
            <Array as="points">
              <mxPoint x="249" y="3544" />
            </Array>
          </mxGeometry>
        </mxCell>
        <mxCell id="8n4HYUna0BRvYn9VdKNQ-153" value="" style="group;rounded=1;" parent="1" vertex="1" connectable="0">
          <mxGeometry x="416" y="3460" width="139.60000000000002" height="87.15999999999985" as="geometry" />
        </mxCell>
        <mxCell id="8n4HYUna0BRvYn9VdKNQ-154" value="" style="group;rounded=1;" parent="8n4HYUna0BRvYn9VdKNQ-153" vertex="1" connectable="0">
          <mxGeometry width="133.82" height="84.72" as="geometry" />
        </mxCell>
        <mxCell id="8n4HYUna0BRvYn9VdKNQ-155" value="&lt;div&gt;Análise de Fraude&amp;nbsp;&lt;/div&gt;" style="rounded=1;whiteSpace=wrap;html=1;fillColor=#f8cecc;strokeColor=#b85450;" parent="8n4HYUna0BRvYn9VdKNQ-154" vertex="1">
          <mxGeometry width="120" height="60" as="geometry" />
        </mxCell>
        <mxCell id="8n4HYUna0BRvYn9VdKNQ-158" value="Eventos de pagamento" style="text;html=1;align=center;verticalAlign=middle;resizable=0;points=[];autosize=1;strokeColor=none;fillColor=none;rounded=1;" parent="1" vertex="1">
          <mxGeometry x="197" y="3903" width="141" height="26" as="geometry" />
        </mxCell>
        <mxCell id="8n4HYUna0BRvYn9VdKNQ-188" style="edgeStyle=orthogonalEdgeStyle;rounded=1;orthogonalLoop=1;jettySize=auto;html=1;" parent="1" source="8n4HYUna0BRvYn9VdKNQ-164" target="8n4HYUna0BRvYn9VdKNQ-185" edge="1">
          <mxGeometry relative="1" as="geometry" />
        </mxCell>
        <mxCell id="8n4HYUna0BRvYn9VdKNQ-164" value="Mulesoft API Gateway&#xa;HTTP API" style="shape=image;verticalLabelPosition=bottom;labelBackgroundColor=default;verticalAlign=top;aspect=fixed;imageAspect=0;image=https://www.ibm.com/content/dam/adobe-cms/instana/media_logo/Mulesoft.png/_jcr_content/renditions/cq5dam.web.1280.1280.png;clipPath=inset(17.7% 28% 19.03% 28%);rounded=1;" parent="1" vertex="1">
          <mxGeometry x="649" y="3439" width="93.29" height="101.06" as="geometry" />
        </mxCell>
        <mxCell id="8n4HYUna0BRvYn9VdKNQ-165" style="edgeStyle=orthogonalEdgeStyle;rounded=1;orthogonalLoop=1;jettySize=auto;html=1;" parent="1" source="8n4HYUna0BRvYn9VdKNQ-155" target="8n4HYUna0BRvYn9VdKNQ-164" edge="1">
          <mxGeometry relative="1" as="geometry" />
        </mxCell>
        <mxCell id="8n4HYUna0BRvYn9VdKNQ-166" value="" style="group;rounded=1;" parent="1" vertex="1" connectable="0">
          <mxGeometry x="1017" y="3668" width="139.60000000000002" height="87.15999999999985" as="geometry" />
        </mxCell>
        <mxCell id="8n4HYUna0BRvYn9VdKNQ-167" value="" style="group;rounded=1;" parent="8n4HYUna0BRvYn9VdKNQ-166" vertex="1" connectable="0">
          <mxGeometry width="133.82" height="84.72" as="geometry" />
        </mxCell>
        <mxCell id="8n4HYUna0BRvYn9VdKNQ-168" value="Envio pagamento&lt;div&gt;BB&lt;/div&gt;" style="rounded=1;whiteSpace=wrap;html=1;fillColor=#dae8fc;strokeColor=#6c8ebf;" parent="8n4HYUna0BRvYn9VdKNQ-167" vertex="1">
          <mxGeometry width="120" height="60" as="geometry" />
        </mxCell>
        <mxCell id="8n4HYUna0BRvYn9VdKNQ-169" value="" style="shape=image;verticalLabelPosition=bottom;labelBackgroundColor=default;verticalAlign=top;aspect=fixed;imageAspect=0;image=https://pbs.twimg.com/profile_images/1235868806079057921/fTL08u_H_400x400.png;clipPath=inset(18.67% 15.33% 18.33% 15%);rounded=1;" parent="8n4HYUna0BRvYn9VdKNQ-167" vertex="1">
          <mxGeometry x="91" y="46" width="42.82" height="38.72" as="geometry" />
        </mxCell>
        <mxCell id="8n4HYUna0BRvYn9VdKNQ-171" value="Amazon Aurora" style="points=[[0,0,0],[0.25,0,0],[0.5,0,0],[0.75,0,0],[1,0,0],[0,1,0],[0.25,1,0],[0.5,1,0],[0.75,1,0],[1,1,0],[0,0.25,0],[0,0.5,0],[0,0.75,0],[1,0.25,0],[1,0.5,0],[1,0.75,0]];outlineConnect=0;fontColor=#232F3E;fillColor=#C925D1;strokeColor=#ffffff;dashed=0;verticalLabelPosition=bottom;verticalAlign=top;align=center;html=1;fontSize=12;fontStyle=0;aspect=fixed;shape=mxgraph.aws4.resourceIcon;resIcon=mxgraph.aws4.aurora;rounded=1;" parent="1" vertex="1">
          <mxGeometry x="1038" y="3803" width="78" height="78" as="geometry" />
        </mxCell>
        <mxCell id="8n4HYUna0BRvYn9VdKNQ-172" value="Eventos de pagamento" style="text;html=1;align=center;verticalAlign=middle;resizable=0;points=[];autosize=1;strokeColor=none;fillColor=none;rounded=1;" parent="1" vertex="1">
          <mxGeometry x="1027" y="3905" width="141" height="26" as="geometry" />
        </mxCell>
        <mxCell id="8n4HYUna0BRvYn9VdKNQ-173" style="edgeStyle=orthogonalEdgeStyle;rounded=1;orthogonalLoop=1;jettySize=auto;html=1;" parent="1" source="8n4HYUna0BRvYn9VdKNQ-168" target="8n4HYUna0BRvYn9VdKNQ-171" edge="1">
          <mxGeometry relative="1" as="geometry" />
        </mxCell>
        <mxCell id="8n4HYUna0BRvYn9VdKNQ-176" value="" style="group;rounded=1;" parent="1" vertex="1" connectable="0">
          <mxGeometry x="1505" y="3669" width="142.75" height="89.13" as="geometry" />
        </mxCell>
        <mxCell id="8n4HYUna0BRvYn9VdKNQ-177" value="" style="group;rounded=1;" parent="8n4HYUna0BRvYn9VdKNQ-176" vertex="1" connectable="0">
          <mxGeometry width="142.75" height="89.13" as="geometry" />
        </mxCell>
        <mxCell id="8n4HYUna0BRvYn9VdKNQ-178" value="API PGT" style="rounded=1;whiteSpace=wrap;html=1;fillColor=#fff2cc;strokeColor=#d6b656;" parent="8n4HYUna0BRvYn9VdKNQ-177" vertex="1">
          <mxGeometry width="120" height="60" as="geometry" />
        </mxCell>
        <mxCell id="8n4HYUna0BRvYn9VdKNQ-182" style="edgeStyle=orthogonalEdgeStyle;rounded=1;orthogonalLoop=1;jettySize=auto;html=1;" parent="1" source="8n4HYUna0BRvYn9VdKNQ-180" target="8n4HYUna0BRvYn9VdKNQ-178" edge="1">
          <mxGeometry relative="1" as="geometry" />
        </mxCell>
        <mxCell id="8n4HYUna0BRvYn9VdKNQ-180" value="Mulesoft API Gateway&#xa;HTTP API" style="shape=image;verticalLabelPosition=bottom;labelBackgroundColor=default;verticalAlign=top;aspect=fixed;imageAspect=0;image=https://www.ibm.com/content/dam/adobe-cms/instana/media_logo/Mulesoft.png/_jcr_content/renditions/cq5dam.web.1280.1280.png;clipPath=inset(17.7% 28% 19.03% 28%);rounded=1;" parent="1" vertex="1">
          <mxGeometry x="1278" y="3648" width="93.29" height="101.06" as="geometry" />
        </mxCell>
        <mxCell id="8n4HYUna0BRvYn9VdKNQ-181" style="edgeStyle=orthogonalEdgeStyle;rounded=1;orthogonalLoop=1;jettySize=auto;html=1;" parent="1" source="8n4HYUna0BRvYn9VdKNQ-168" target="8n4HYUna0BRvYn9VdKNQ-180" edge="1">
          <mxGeometry relative="1" as="geometry" />
        </mxCell>
        <mxCell id="8n4HYUna0BRvYn9VdKNQ-183" value="" style="group;rounded=1;" parent="1" vertex="1" connectable="0">
          <mxGeometry x="636" y="3667" width="139.60000000000002" height="87.15999999999985" as="geometry" />
        </mxCell>
        <mxCell id="8n4HYUna0BRvYn9VdKNQ-184" value="" style="group;rounded=1;" parent="8n4HYUna0BRvYn9VdKNQ-183" vertex="1" connectable="0">
          <mxGeometry width="133.82" height="84.72" as="geometry" />
        </mxCell>
        <mxCell id="8n4HYUna0BRvYn9VdKNQ-185" value="Processamento retorno&amp;nbsp;" style="rounded=1;whiteSpace=wrap;html=1;fillColor=#dae8fc;strokeColor=#6c8ebf;" parent="8n4HYUna0BRvYn9VdKNQ-184" vertex="1">
          <mxGeometry width="120" height="60" as="geometry" />
        </mxCell>
        <mxCell id="8n4HYUna0BRvYn9VdKNQ-186" value="" style="shape=image;verticalLabelPosition=bottom;labelBackgroundColor=default;verticalAlign=top;aspect=fixed;imageAspect=0;image=https://pbs.twimg.com/profile_images/1235868806079057921/fTL08u_H_400x400.png;clipPath=inset(18.67% 15.33% 18.33% 15%);rounded=1;" parent="8n4HYUna0BRvYn9VdKNQ-184" vertex="1">
          <mxGeometry x="91" y="46" width="42.82" height="38.72" as="geometry" />
        </mxCell>
        <mxCell id="8n4HYUna0BRvYn9VdKNQ-192" style="edgeStyle=orthogonalEdgeStyle;rounded=1;orthogonalLoop=1;jettySize=auto;html=1;" parent="1" source="8n4HYUna0BRvYn9VdKNQ-190" target="8n4HYUna0BRvYn9VdKNQ-168" edge="1">
          <mxGeometry relative="1" as="geometry" />
        </mxCell>
        <mxCell id="8n4HYUna0BRvYn9VdKNQ-190" value="Amazon MSK" style="points=[[0,0,0],[0.25,0,0],[0.5,0,0],[0.75,0,0],[1,0,0],[0,1,0],[0.25,1,0],[0.5,1,0],[0.75,1,0],[1,1,0],[0,0.25,0],[0,0.5,0],[0,0.75,0],[1,0.25,0],[1,0.5,0],[1,0.75,0]];outlineConnect=0;fontColor=#232F3E;fillColor=#8C4FFF;strokeColor=#ffffff;dashed=0;verticalLabelPosition=bottom;verticalAlign=top;align=center;html=1;fontSize=12;fontStyle=0;aspect=fixed;shape=mxgraph.aws4.resourceIcon;resIcon=mxgraph.aws4.managed_streaming_for_kafka;rounded=1;" parent="1" vertex="1">
          <mxGeometry x="851" y="3658" width="78" height="78" as="geometry" />
        </mxCell>
        <mxCell id="8n4HYUna0BRvYn9VdKNQ-191" style="edgeStyle=orthogonalEdgeStyle;rounded=1;orthogonalLoop=1;jettySize=auto;html=1;" parent="1" source="8n4HYUna0BRvYn9VdKNQ-185" target="8n4HYUna0BRvYn9VdKNQ-190" edge="1">
          <mxGeometry relative="1" as="geometry" />
        </mxCell>
        <mxCell id="8n4HYUna0BRvYn9VdKNQ-195" value="topic: send-payment" style="text;html=1;align=center;verticalAlign=middle;resizable=0;points=[];autosize=1;strokeColor=none;fillColor=none;rounded=1;" parent="1" vertex="1">
          <mxGeometry x="831" y="3627" width="126" height="26" as="geometry" />
        </mxCell>
        <mxCell id="8n4HYUna0BRvYn9VdKNQ-202" style="edgeStyle=orthogonalEdgeStyle;rounded=1;orthogonalLoop=1;jettySize=auto;html=1;" parent="1" source="8n4HYUna0BRvYn9VdKNQ-196" target="8n4HYUna0BRvYn9VdKNQ-200" edge="1">
          <mxGeometry relative="1" as="geometry" />
        </mxCell>
        <mxCell id="8n4HYUna0BRvYn9VdKNQ-196" value="Amazon MSK" style="points=[[0,0,0],[0.25,0,0],[0.5,0,0],[0.75,0,0],[1,0,0],[0,1,0],[0.25,1,0],[0.5,1,0],[0.75,1,0],[1,1,0],[0,0.25,0],[0,0.5,0],[0,0.75,0],[1,0.25,0],[1,0.5,0],[1,0.75,0]];outlineConnect=0;fontColor=#232F3E;fillColor=#8C4FFF;strokeColor=#ffffff;dashed=0;verticalLabelPosition=bottom;verticalAlign=top;align=center;html=1;fontSize=12;fontStyle=0;aspect=fixed;shape=mxgraph.aws4.resourceIcon;resIcon=mxgraph.aws4.managed_streaming_for_kafka;rounded=1;" parent="1" vertex="1">
          <mxGeometry x="848" y="3868" width="78" height="78" as="geometry" />
        </mxCell>
        <mxCell id="8n4HYUna0BRvYn9VdKNQ-197" style="edgeStyle=orthogonalEdgeStyle;rounded=1;orthogonalLoop=1;jettySize=auto;html=1;" parent="1" source="8n4HYUna0BRvYn9VdKNQ-185" target="8n4HYUna0BRvYn9VdKNQ-196" edge="1">
          <mxGeometry relative="1" as="geometry">
            <Array as="points">
              <mxPoint x="808" y="3697" />
              <mxPoint x="808" y="3907" />
            </Array>
          </mxGeometry>
        </mxCell>
        <mxCell id="8n4HYUna0BRvYn9VdKNQ-198" value="" style="group;rounded=1;" parent="1" vertex="1" connectable="0">
          <mxGeometry x="827" y="4036" width="139.60000000000002" height="87.15999999999985" as="geometry" />
        </mxCell>
        <mxCell id="8n4HYUna0BRvYn9VdKNQ-199" value="" style="group;rounded=1;" parent="8n4HYUna0BRvYn9VdKNQ-198" vertex="1" connectable="0">
          <mxGeometry width="133.82" height="84.72" as="geometry" />
        </mxCell>
        <mxCell id="8n4HYUna0BRvYn9VdKNQ-200" value="Processamento&amp;nbsp;&lt;div&gt;FRAUDE&lt;/div&gt;" style="rounded=1;whiteSpace=wrap;html=1;fillColor=#dae8fc;strokeColor=#6c8ebf;" parent="8n4HYUna0BRvYn9VdKNQ-199" vertex="1">
          <mxGeometry width="120" height="60" as="geometry" />
        </mxCell>
        <mxCell id="8n4HYUna0BRvYn9VdKNQ-201" value="" style="shape=image;verticalLabelPosition=bottom;labelBackgroundColor=default;verticalAlign=top;aspect=fixed;imageAspect=0;image=https://pbs.twimg.com/profile_images/1235868806079057921/fTL08u_H_400x400.png;clipPath=inset(18.67% 15.33% 18.33% 15%);rounded=1;" parent="8n4HYUna0BRvYn9VdKNQ-199" vertex="1">
          <mxGeometry x="91" y="46" width="42.82" height="38.72" as="geometry" />
        </mxCell>
        <mxCell id="8n4HYUna0BRvYn9VdKNQ-203" value="- DLQ&lt;div&gt;- Retry&lt;/div&gt;" style="text;html=1;align=center;verticalAlign=middle;resizable=0;points=[];autosize=1;strokeColor=none;fillColor=none;rounded=1;" parent="1" vertex="1">
          <mxGeometry x="741" y="3615" width="54" height="41" as="geometry" />
        </mxCell>
        <mxCell id="8n4HYUna0BRvYn9VdKNQ-204" value="Amazon Aurora" style="points=[[0,0,0],[0.25,0,0],[0.5,0,0],[0.75,0,0],[1,0,0],[0,1,0],[0.25,1,0],[0.5,1,0],[0.75,1,0],[1,1,0],[0,0.25,0],[0,0.5,0],[0,0.75,0],[1,0.25,0],[1,0.5,0],[1,0.75,0]];outlineConnect=0;fontColor=#232F3E;fillColor=#C925D1;strokeColor=#ffffff;dashed=0;verticalLabelPosition=bottom;verticalAlign=top;align=center;html=1;fontSize=12;fontStyle=0;aspect=fixed;shape=mxgraph.aws4.resourceIcon;resIcon=mxgraph.aws4.aurora;rounded=1;" parent="1" vertex="1">
          <mxGeometry x="656" y="3803" width="78" height="78" as="geometry" />
        </mxCell>
        <mxCell id="8n4HYUna0BRvYn9VdKNQ-205" value="Eventos de pagamento&lt;div&gt;rejeitados por suspeita&lt;/div&gt;&lt;div&gt;de fraude&lt;/div&gt;" style="text;html=1;align=center;verticalAlign=middle;resizable=0;points=[];autosize=1;strokeColor=none;fillColor=none;rounded=1;" parent="1" vertex="1">
          <mxGeometry x="621" y="3914" width="141" height="55" as="geometry" />
        </mxCell>
        <mxCell id="8n4HYUna0BRvYn9VdKNQ-207" style="edgeStyle=orthogonalEdgeStyle;rounded=1;orthogonalLoop=1;jettySize=auto;html=1;" parent="1" source="8n4HYUna0BRvYn9VdKNQ-185" target="8n4HYUna0BRvYn9VdKNQ-204" edge="1">
          <mxGeometry relative="1" as="geometry" />
        </mxCell>
        <mxCell id="8n4HYUna0BRvYn9VdKNQ-208" value="topic: fraud-payment" style="text;html=1;align=center;verticalAlign=middle;resizable=0;points=[];autosize=1;strokeColor=none;fillColor=none;rounded=1;" parent="1" vertex="1">
          <mxGeometry x="826" y="3834" width="127" height="26" as="geometry" />
        </mxCell>
        <mxCell id="8n4HYUna0BRvYn9VdKNQ-209" value="Amazon Aurora" style="points=[[0,0,0],[0.25,0,0],[0.5,0,0],[0.75,0,0],[1,0,0],[0,1,0],[0.25,1,0],[0.5,1,0],[0.75,1,0],[1,1,0],[0,0.25,0],[0,0.5,0],[0,0.75,0],[1,0.25,0],[1,0.5,0],[1,0.75,0]];outlineConnect=0;fontColor=#232F3E;fillColor=#C925D1;strokeColor=#ffffff;dashed=0;verticalLabelPosition=bottom;verticalAlign=top;align=center;html=1;fontSize=12;fontStyle=0;aspect=fixed;shape=mxgraph.aws4.resourceIcon;resIcon=mxgraph.aws4.aurora;rounded=1;" parent="1" vertex="1">
          <mxGeometry x="848" y="4151" width="78" height="78" as="geometry" />
        </mxCell>
        <mxCell id="8n4HYUna0BRvYn9VdKNQ-210" value="Pagamentos com suspeita&amp;nbsp;&lt;div&gt;de fraude&lt;/div&gt;" style="text;html=1;align=center;verticalAlign=middle;resizable=0;points=[];autosize=1;strokeColor=none;fillColor=none;rounded=1;" parent="1" vertex="1">
          <mxGeometry x="817" y="4255" width="163" height="41" as="geometry" />
        </mxCell>
        <mxCell id="8n4HYUna0BRvYn9VdKNQ-211" style="edgeStyle=orthogonalEdgeStyle;rounded=1;orthogonalLoop=1;jettySize=auto;html=1;" parent="1" source="8n4HYUna0BRvYn9VdKNQ-200" target="8n4HYUna0BRvYn9VdKNQ-209" edge="1">
          <mxGeometry relative="1" as="geometry" />
        </mxCell>
        <mxCell id="8n4HYUna0BRvYn9VdKNQ-212" value="&lt;div&gt;- DLQ&lt;/div&gt;&lt;div&gt;- Retry&amp;nbsp;&lt;/div&gt;&lt;b&gt;- Idempotência forte&lt;/b&gt;&lt;div&gt;&lt;br&gt;&lt;/div&gt;" style="text;html=1;align=left;verticalAlign=middle;resizable=0;points=[];autosize=1;strokeColor=none;fillColor=none;rounded=1;" parent="1" vertex="1">
          <mxGeometry x="1115" y="3594" width="133" height="70" as="geometry" />
        </mxCell>
        <mxCell id="8n4HYUna0BRvYn9VdKNQ-216" value="" style="group;rounded=1;" parent="1" vertex="1" connectable="0">
          <mxGeometry x="447" y="4028" width="139.60000000000002" height="87.15999999999985" as="geometry" />
        </mxCell>
        <mxCell id="8n4HYUna0BRvYn9VdKNQ-217" value="" style="group;rounded=1;" parent="8n4HYUna0BRvYn9VdKNQ-216" vertex="1" connectable="0">
          <mxGeometry width="133.82" height="84.72" as="geometry" />
        </mxCell>
        <mxCell id="8n4HYUna0BRvYn9VdKNQ-218" value="Tratamento pagamentos suspeita de fraude" style="rounded=1;whiteSpace=wrap;html=1;fillColor=#dae8fc;strokeColor=#6c8ebf;" parent="8n4HYUna0BRvYn9VdKNQ-217" vertex="1">
          <mxGeometry width="120" height="60" as="geometry" />
        </mxCell>
        <mxCell id="8n4HYUna0BRvYn9VdKNQ-219" value="" style="shape=image;verticalLabelPosition=bottom;labelBackgroundColor=default;verticalAlign=top;aspect=fixed;imageAspect=0;image=https://pbs.twimg.com/profile_images/1235868806079057921/fTL08u_H_400x400.png;clipPath=inset(18.67% 15.33% 18.33% 15%);rounded=1;" parent="8n4HYUna0BRvYn9VdKNQ-217" vertex="1">
          <mxGeometry x="91" y="46" width="42.82" height="38.72" as="geometry" />
        </mxCell>
        <mxCell id="8n4HYUna0BRvYn9VdKNQ-220" style="edgeStyle=orthogonalEdgeStyle;rounded=1;orthogonalLoop=1;jettySize=auto;html=1;entryX=0;entryY=0.5;entryDx=0;entryDy=0;entryPerimeter=0;dashed=1;" parent="1" source="8n4HYUna0BRvYn9VdKNQ-218" target="8n4HYUna0BRvYn9VdKNQ-204" edge="1">
          <mxGeometry relative="1" as="geometry">
            <Array as="points">
              <mxPoint x="509" y="3842" />
            </Array>
          </mxGeometry>
        </mxCell>
        <mxCell id="8n4HYUna0BRvYn9VdKNQ-223" style="edgeStyle=orthogonalEdgeStyle;rounded=1;orthogonalLoop=1;jettySize=auto;html=1;dashed=1;" parent="1" target="8n4HYUna0BRvYn9VdKNQ-218" edge="1">
          <mxGeometry relative="1" as="geometry">
            <mxPoint x="505.61538461538476" y="4140" as="sourcePoint" />
          </mxGeometry>
        </mxCell>
        <mxCell id="8n4HYUna0BRvYn9VdKNQ-232" value="Principais desafios:&lt;div&gt;1) Idempotêcia&lt;/div&gt;&lt;div&gt;2) Rebalance consumer groups&lt;/div&gt;&lt;div&gt;3) Acknowledgement kafka&lt;/div&gt;&lt;div&gt;4) DLQ/Retries&lt;/div&gt;&lt;div&gt;5) Atomicidade&lt;/div&gt;" style="text;html=1;align=left;verticalAlign=middle;resizable=0;points=[];autosize=1;strokeColor=none;fillColor=none;rounded=1;" parent="1" vertex="1">
          <mxGeometry x="899" y="3418" width="185" height="98" as="geometry" />
        </mxCell>
        <mxCell id="8n4HYUna0BRvYn9VdKNQ-193" value="topic: create-payment" style="text;html=1;align=center;verticalAlign=middle;resizable=0;points=[];autosize=1;strokeColor=none;fillColor=none;rounded=1;" parent="1" vertex="1">
          <mxGeometry x="69.58620689655163" y="3604" width="133" height="26" as="geometry" />
        </mxCell>
        <mxCell id="8n4HYUna0BRvYn9VdKNQ-123" value="Criação evento de pagamento" style="rounded=1;whiteSpace=wrap;html=1;fillColor=#dae8fc;strokeColor=#6c8ebf;" parent="1" vertex="1">
          <mxGeometry x="-164.9817444219067" y="3646" width="140.04056795131845" height="60" as="geometry" />
        </mxCell>
        <mxCell id="8n4HYUna0BRvYn9VdKNQ-125" value="" style="shape=image;verticalLabelPosition=bottom;labelBackgroundColor=default;verticalAlign=top;aspect=fixed;imageAspect=0;image=https://pbs.twimg.com/profile_images/1235868806079057921/fTL08u_H_400x400.png;clipPath=inset(18.67% 15.33% 18.33% 15%);rounded=1;" parent="1" vertex="1">
          <mxGeometry x="-58.784313725490236" y="3692" width="42.82" height="38.72" as="geometry" />
        </mxCell>
        <mxCell id="8n4HYUna0BRvYn9VdKNQ-271" value="&lt;b style=&quot;font-size: 20px;&quot;&gt;ENVIO PAGAMENTO - LIP&lt;/b&gt;" style="text;html=1;align=center;verticalAlign=middle;resizable=0;points=[];autosize=1;strokeColor=none;fillColor=none;rounded=1;" parent="1" vertex="1">
          <mxGeometry x="388" y="3344" width="263" height="36" as="geometry" />
        </mxCell>
        <mxCell id="8n4HYUna0BRvYn9VdKNQ-277" value="Corporate data center" style="points=[[0,0],[0.25,0],[0.5,0],[0.75,0],[1,0],[1,0.25],[1,0.5],[1,0.75],[1,1],[0.75,1],[0.5,1],[0.25,1],[0,1],[0,0.75],[0,0.5],[0,0.25]];outlineConnect=0;gradientColor=none;html=1;whiteSpace=wrap;fontSize=12;fontStyle=0;container=1;pointerEvents=0;collapsible=0;recursiveResize=0;shape=mxgraph.aws4.group;grIcon=mxgraph.aws4.group_corporate_data_center;strokeColor=#7D8998;fillColor=none;verticalAlign=top;align=left;spacingLeft=30;fontColor=#5A6C86;dashed=0;rounded=1;" parent="1" vertex="1">
          <mxGeometry x="-851" y="3579" width="490" height="308" as="geometry" />
        </mxCell>
        <mxCell id="8n4HYUna0BRvYn9VdKNQ-213" value="ou arquivo p/ S3&lt;div&gt;e lambda para&amp;nbsp;&lt;/div&gt;&lt;div&gt;gerar eventos&lt;/div&gt;" style="text;html=1;align=center;verticalAlign=middle;resizable=0;points=[];autosize=1;strokeColor=none;fillColor=none;rounded=1;" parent="8n4HYUna0BRvYn9VdKNQ-277" vertex="1">
          <mxGeometry x="322" y="159" width="105" height="55" as="geometry" />
        </mxCell>
        <mxCell id="8n4HYUna0BRvYn9VdKNQ-231" value="" style="shape=image;verticalLabelPosition=bottom;labelBackgroundColor=default;verticalAlign=top;aspect=fixed;imageAspect=0;image=https://cdn.prod.website-files.com/6047a9e35e5dc54ac86ddd90/63018724eab2481fa8f88ef4_1d1684aa.png;clipPath=inset(6.33% 0% 6% 0%);rounded=1;" parent="8n4HYUna0BRvYn9VdKNQ-277" vertex="1">
          <mxGeometry y="269" width="41.76" height="36.61" as="geometry" />
        </mxCell>
        <mxCell id="8n4HYUna0BRvYn9VdKNQ-279" value="" style="edgeStyle=orthogonalEdgeStyle;rounded=1;orthogonalLoop=1;jettySize=auto;html=1;" parent="1" source="8n4HYUna0BRvYn9VdKNQ-112" target="8n4HYUna0BRvYn9VdKNQ-278" edge="1">
          <mxGeometry relative="1" as="geometry">
            <mxPoint x="-378" y="3676" as="sourcePoint" />
            <mxPoint x="-165" y="3676" as="targetPoint" />
          </mxGeometry>
        </mxCell>
        <mxCell id="8n4HYUna0BRvYn9VdKNQ-278" value="Privatelink" style="points=[[0,0,0],[0.25,0,0],[0.5,0,0],[0.75,0,0],[1,0,0],[0,1,0],[0.25,1,0],[0.5,1,0],[0.75,1,0],[1,1,0],[0,0.25,0],[0,0.5,0],[0,0.75,0],[1,0.25,0],[1,0.5,0],[1,0.75,0]];outlineConnect=0;fontColor=#232F3E;fillColor=#8C4FFF;strokeColor=#ffffff;dashed=0;verticalLabelPosition=bottom;verticalAlign=top;align=center;html=1;fontSize=12;fontStyle=0;aspect=fixed;shape=mxgraph.aws4.resourceIcon;resIcon=mxgraph.aws4.vpc_privatelink;rounded=1;" parent="1" vertex="1">
          <mxGeometry x="-378" y="3637" width="78" height="78" as="geometry" />
        </mxCell>
        <mxCell id="8n4HYUna0BRvYn9VdKNQ-280" value="&lt;font color=&quot;#ff0000&quot;&gt;&lt;b&gt;Apache KAFKA?&lt;/b&gt;&lt;/font&gt;&lt;div&gt;&lt;font color=&quot;#ff0000&quot;&gt;&lt;b&gt;Throughput é necessário&lt;span style=&quot;background-color: initial;&quot;&gt;? API externa possui performance para tal?&lt;/span&gt;&lt;/b&gt;&lt;/font&gt;&lt;/div&gt;" style="text;html=1;align=left;verticalAlign=middle;resizable=0;points=[];autosize=1;strokeColor=none;fillColor=none;rounded=1;" parent="1" vertex="1">
          <mxGeometry x="1438" y="3548" width="409" height="41" as="geometry" />
        </mxCell>
        <mxCell id="nmlVHp5XbvUtxbq8LukC-2" value="" style="shape=image;verticalLabelPosition=bottom;labelBackgroundColor=default;verticalAlign=top;aspect=fixed;imageAspect=0;image=data:image/png,iVBORw0KGgoAAAANSUhEUgAAAREAAAEMCAYAAADj3ILLAAAABHNCSVQICAgIfAhkiAAAABl0RVh0U29mdHdhcmUAZ25vbWUtc2NyZWVuc2hvdO8Dvz4AAAAtdEVYdENyZWF0aW9uIFRpbWUAU3VuIDIxIEp1bCAyMDI0IDAxOjM2OjAxIEFNIC0wM0yqq2kAACAASURBVHic7J15nBxHefe/T1X3zOy9uu/TkiVLsnzItnxbtjHGNgZsriS2OWJwgIQkBMKRkBdCSIBwhgAhnAYbCHcg+ADfB75vy7JlS7ZkS9Yt7T07091V7x/VPdMzO7taaVeSJc1Pn1bP9HRXV9dW/fq56im5asE1ljrqOOgw0m4ro1KLOsA70BWoo469huwlkdg6gYwm1IGuQB111HFwo04idRwwCHWl4lBAnUTqOCCQQT7XcfChTiJ17HdIai9Vx4YHW2eeVxDqhtU6DhDKRlEBLBLvB/4+ALKb3+vYr6iTSB37DIMLC7ZqT4lAJHVO3YlycKBOInXsE+yOQGQAkZgqSUQQm/bGVpdYLYnUGedAoU4idYw6dm/nGEggVtnUd4nZY+8sJnXsX9RJpI4DhDKRWGVBIsoKjWAtgKZMIHUbyCsVdRLZI+xdh96dIL6vIIO8wYdlvBxFWBPfRyyIxegIo4pYCTA6xErIpCnjaR/bCggdO7vo6eqjr6eIBBk0GcRqxNQlk1ci6iQybFRHNgxvANbq7sO/eu8hyKA3ESlbJvYbkViLiKUYFbFeP9KcZ/FJR7DiglM5+oTJZJqlgqP7Oy0/+K+bufu6h4n6G9BRFp9c+in2S73r2D2kPgFvOKh+Aw70LqR/T3sYKr8PffVoISGQISURAbuPalJqrbhYa529I/KKeK2G01+zjMveezymQZBGMNrVIDGiigVlQYXQ9aLlv7/wW156Zhvd2wtI6ONLhhGFOFXYW+oYKerBZqOGFIEkNkIrez1H7FCCCIi20FDk+FfN57IPLsO2C7YRQgVpbQfc98iC8aBljvDX//Y6Lnz7mfR5OyjQh85o6jaSVw70svGXfvJAV+KVA6nYyv9I7ak6VvkPW3ldqdjd3m00tvRdB5NDyjcf7Dn2FrX8KdYa8EICr5djz5jPuz9yLtIimAxYFRNMSgIRCzo+joAR8LLC/MXjOHrxMl5Yu5benh6sEcSq1J32tqZ1jBR1SaQEGfgtJVGUPyebqtqoisZOuyyHutMooaKOtaigPHB292x7QyTp5xYsWEt3VyeRCSnQS8OUkKs+fB5emzinS9W1Crj9lnt46fktqChWZyxoC0oADQtPaObDn7ycafMzSLaAUYa6RHLgUScRoHo2Ry2JYrC3fsXbWyxWTGobfI7HqEogtlqiGN4TD/ose0kkSbnO2hLR3NpAwfSSbbN89NPvJzNJKr226esEFh65kO9944fYPhCTpr2YURph7ByfT3zpXUyd1wqZfowK96qedYwe6iSyV4gHmhUkeZMjWCyGEEOAIcJakzJeHtooPWXcHlordM6imvo593WnMn2JBq8stEGlUmGBadPG0rfV8IefPQghA4U5AZqAVuGTX76cqUc2IpkAg9kPT1jHYDisSWRvNGPXr53EEUlApIoEup+i10vR76aY7aSY63D7TDeB10eoi9iko6dVh/2GatllH99NATrC+P3MXTqZN1+5DPxKp0h1LQwWLJx8/Glc9+s/UOywEFWfZFyPzQKtwj9/6W1Mm9caqzYhSqnYE1TH/sRha1iVis+V5sBq42DyzcaD0Iol0hHWDwj9PAXdjW4pcvQpczn1/GM4ccUS5h09neZxGTp6tpPv70Osh7ZVsvyojedaNZZYzamheJX+G6ICe1s3ASsh4geMnZ7lPf9wOS2ztBv88S0HGF/jSFVlIBOM4fc33MS4Ce3MWTBtoPojOCOJArSwYsUSHnnoaXZs6UKTKZGzyFAPUDesjiYOy2CzgZ248nM1bPy/FUOkQ4wK6O7fSVt7IyeevIRL3nIWUxYp15oqdZFdSrDr1Tx5fw8/+fb/0rmpH9unUNZHqVEUAitnqpUOlSwKYjAqwCiDtiqunhtISgQnJLm3uLURViwi8ajfwxe7BUIp0jZOePM7L2bqYq9EBEKlKmNTe2vLzyBWuOfW+zj79Se6uiWGWBGwsaVVAznACp/44uW8//Kv0721C183ERYsSik8XWXBrWOf4LBWZxIkrsXB7KAWgyGCXERmXETzdMNf/dPl/PfP/4r3/cvZTDlaQQa3+fEWf/cnCsdf1MKnvn05045pRRoNfsZDVJq2hrMNrFWlS6V83gBVQRXpz3ZwxPGTeP8nLueU1xxHv9dF4PdyzPKjKKp+oijAmJBQ9RPpApEYbK3CdoMwDJk8cwJnX7qcY8+fMKghdXBYxCo2vrCFkqmj+vpEZVFAA9AmfPor78PkuugtdGAx6NEk6TqGxGEliVRIxRXjMpUSx7rvSIhVEZFykkd/1Muy5UdzwRvP5ahTs25wKMo0nHyOb2INhAaUdjaChknCR//1LfzDn3+Xzg2deDQgDDdoKv3eJnVN6r1uU8dEQEUYKRLqIqHfy6e+9HfMWio8c3/E3Y/8gZmLJvPOt/8pa1Zt5Z4HbiOMA7jOPucs5s6ax7Xf/yU6Uin1J9Va1pGqKDCxJwoMoQkYM3UM5196Kme+ZZIj0nTVapTlDqVkFLGYyFDsE3atNoxZpJyfVxRYm2qF5DmBLLTNFt7zgcv41pd/TouXpZA32HB3ak0do4HDhkRKWrAtf6/43cZ6OYCE6GxAR2ELE2a2seSkebzjQxeU1RWVKjQd7xRzkEhZu9DxIDIWsuOFv/3Hd/Avf/8Vgm6DbxsRiQdqSh0ZKAGkBf/kkEWqfrfY2KgZovwAm+vl5HMX8q4PnQ85Iei2fPkbn+bYk5bylx+4hM0vWX7yi/8mN9bnhDOO5h3vvJiMgn/9+5/j2X60sRWxL0kVrYrAFimEefBDWsc00VPsYvbcqfzVB/6McUcI5KS26cFUaV5S+WHewlaiCKLQ49GHnuacRYshJVUkqqWQKt8DMsKp583iqSeWcv9tT+F57YShQtdtH/schwWJlLrRoGEb1g0MImc78PJMmNPGG85/PSe/agkN0wQ8MCpCpCqCovSmS/R5SPfv5J7iASFMPVJz0VvP5K7rn2THxl6yNCC28s9QRRflytd6pnQ1xMbSUx6vqcDb3ncJp1w626lXAs+sX8sH/vEvWHjMFAjgO//zH5zxmmN455VvQCYIFOEn3/o9q158gKzXgpZM6tZlY48Vg5GAbJNG5Qx+e553/+mbWX7OkdDo2ioRsgZ4aWvYRkonCZAD3/PQhRyPP7SKcy5fXPqtUv6ycVu7AoMgwB/j8673v5pVK1dT7LBEIS5+vk4k+xSHxQS80jCvQSJiAR2BXyTwell43GxOOfcYTnntHOdKVGBC9/YVzRAkkr4TKYsh5HsiGppjI58Bs8vys+/ey903PMb253tp8trw/ZSxtcKeWS6zQjS3Jpboy8eMColUQDHbwTs++HpWvG4hJgPKTylDSZBncoPE8ywQFOH5Z14kQwOe9dEmro9VPPHISgTlPCliUL4we94sZsyZTGO7OKJK2z9UuVxSt0vC2dPfSyaOECjCVRf8M15fC2QjPvfjD9EyU+Lwk5g+jI2dNElB8d4AffDIzS9x9X/eQNCdI+iL0NUhsvUJeKOKw0ISGQwlu4ixnH3OCk591VymnpAyknrxCb4dZpdLvfXigWr7YcO6jcxfMpMoAO2DGiP8yV+cQhBF3Pbr+5H+kCgAY3RsEFSOrOIRNzD2waK0wkhIYAOsRBSjPI2tWZQf8DcfvJLjLhyP9YhdruUqod2gtQmhaucZCYohuSaf+UfPRFfbJC1MO/bkymOpc6ytVOGsVHErg0lXVYhVw0zOx/Zpgv6Qxx54mjOmLkI8sBKXUlIRLSopObGP5GDpSdOZc9QUnntsK7qosIGt20b2IQ6LOJG0wpGWStLH1r2wjt/fdAd/uOle1q5bT0OLz6RpE0onlAd1XIbUGCnVd4xDt594+GnmzJtOULB4mViezwpLl82iqXksL764nqBgsKG7mYhCqYRI0tJGWaBXPvRFPfRLB9nxlqPPOII/fd/FXPZXZzF9UZMjQVW7iiKVpRHfB6uc/bIGAZQaquolbquOl6bz17pvqmmkxnkSSxOP37uGnq0FwjAioI9TXnW0I7tSATalMlYXCMoTjpozn+t/extZr5moWE0idUlkNHFYSyJOv48wOqC7fxev/7Pzed0VS8lOEafKjLx4AJqbmtj0fAdT5rQDEARgPfCb4Ly3LGTi1In89kc3sX7VJor9gjI+WjJ44rtprADKEuGygBldhEzEkuVHcNq5y1m+YgLS4mwRVsPwJ7eWZQOtVRymzwBRYuis67txvdRCjdNKZKRhxpypvPTYLpTxWLNyAzueNYxbXG1cdeeXpJHYMJ54a9rnKy665Gx+c80dZHU7YhX1YNZ9g8NSErHWYiKLkQAaQs646AQ+8tlLOeaiKXjNUrKFUJE8uKq8oaSQRKtR7vKWxnZu+/3dLF46z9lYgCj2UqgMTJrVwFkXLyHb0sK2js1EJiAKDaBQsR0isAGhzkNzntNfexxv+9tLuPCKRUxf0oQ0CNYDSdzOwxnLUhamhErJwNl9pPz7IFv5QQe+2QdrntRUo2qbdMkI3bU94P5bVqLDLP29RbyMZvHymVg/fb6t+DtURB1bIICjFk/hj7esotAbYSPiALqkgLokMlo4pEikWuKunoNb/m4JwgJNYzKcecGJNE/2WbttPV4uR8v4RudJUTCYFr9bEklXQkG20ePnV/+OM05ejmqU2EAbJ9+Bkjdj/qKJnHPO8Rx3/IkUwoDIFujq30nk9TNmaiMnn3sM7/jrN3HWG+cwZppHlHESjU2Tx3DHRskoknqm6mcc/OndJ9k90STNFEUGpaRS3UmrRUmZCmwhy0O3P0XU55H1Gnhy1Upe+6Yz8RqFqHTfWK1J1yet2ijAE/ziWJ54dBVYL5V/pE4io4lDxjszoEtUh4Gn9taGBKaXKNdHMbeLINfDFe/9Ey5+yylEkfNmkESB1midoUkkPiPdT0O47od3U+gvcOlV5zq1w0IQOqnEi9+w2oAUYddGy5hJ7uLuLZYX1u3gqCXj8LNApqy2DFvqqGqDagx/0lr81t/N6YmhNf09DEOMtWRzfhzmPtBzk1CCV4CPX34NW1b3kVUZ+uhk2asXctWHz0daBfw4xwi4pEfxxY6zpSzuBMA2y4ff9V06NodIEIuYe53MqI5aOCRig6vVlYH5NarkE9+iWwzSWGDKvHF85iv/7AjEgPKgRCB7DVt2R8YVO/Os07juuuscaxhXvB9LJKVBJIAHDWPcHh9aZgpLzxqPP16gRdx8Ed+9sRNVZE/aaGSw5XrGMMZiTLmtEsIoFgPC0E3DFQV+xkMpRW93Hx07u0pG52qPcxKSMmfBLEJVJLCW5uw4bvr1vTxwy1Y8Yu+2Tc5PpI+4nCopkHbhxNOWYlWATZIY1XNWjioOCRIZLhI1PiSgO9zBiotP4d++/AGOWNru5nXp1Em1zSF7dqPSvBZomSoYE/HgnU85HSbxSoobFBC/QDVkWoVIuQTGRoNRzr5a2ii/bKvNmrXIojaBlOs3HJVkgIoSb0oLSpclr4QwSnEvqZv3dHez7oUXePKxlS7pkIEoGtjMVsH5l55OUfcQRAWKeUObnsivf3gj29ZbPFxWAEscK5K+NmGXpI4aLv2TE/FzYEtr28De/3HrqMYhYRORqn31EZuEiCtD6PUTZrp5z4eu4DVvWkpmrJQDMoewgwy431DqTFrvJ9bVLezY3MN9dz3EOeec6oKzYmkishalSic7KSNWV5I3a3rgJtpSrTYY6vNA7OlAqk1T1uACwFKikYkMURS5sP742XztEQYh1mj+/TP/RVNuIkfMnuDsz1WVbm0WXnhuB9s3duJFWYr5iN7eXjZv28YJJx2Jn5OyE0nikP9SE1qXLEqAEFSz8NR9G9mxpRPQVbaROkaKw4ZErLVEfoHGaYaPf+F9LFnRhs5IOf4g6ZDD6Fh7TCLxh6hf8Zsf3chZy8+neZIukYgx1n1O6stAKaNWzYYii30zRGqXGltKkJRca40ttbuOo9eUVrS2tTJ2zHiWLDiWL/7rV3nynvUsmH0sbWPFRajHbVKMYOqUuTx81xMUug1aNJ6XYfOGbXTvMiw+fjo6I6W5SpQC0coB9SJSSmxkuht59MEnXAp5q8upDuoYMQ5REqn6pixFk2fyEWP52L9dxqTFsZ/Vd6KzUrWjLIe83zBIpDSRBufFGNs8njt/9yBdO3tZdvqC0pwWBCJjhswxUoswhi9xjBYGoaYabaeUoD3tCCSOkHUr4Qnag6yf5ZTlZ/LQPY/x8//5FWIaOWrBDIyN/yYeTByn2bCqnxef20xDtgGNh0Q+K59YSVP7BOYvmOCM4InWJMRh+e5LSTKKYExDK7+//m5s5KHwnaRSJ5FRwSFsEym/xyMdMO2o8fzdP11CY5Pww6/fVU6UE7+QVGr5gtEPkbZYgYYxwpxZc3novsfYtq5YsioqFTueD4FoKGsgDKI4ziVG3M5KO/e2Vc7uM31hjg996t3MnDuNn33r//jcB39C90aLKsbeFwvtY9sJikXyfXmwlmJvgbHNk/jdtTfz6B27sP1lm5KLbVFYXPY5oPR3bj1CkWkBnUkm2dQpZLRwaJJIqXeUDYcXXvQavvvdG3jvez6PMSEl6/2gL6RhdDFLbd2jwt3iDtjYHXHUogX09vTw8L2Pl5MRA0rpgy6i0hqDiSqTJDuvkWCMwUS1H8hYl1M1BBrHC5/6/F8ya84sVj7yDB9+36d44fEevBCIYP3z62lqasRTiqgYkvF8wrwh7PT41dU3sHG1QRdBlfKxuj+oRRxVxMZVFCxcPA8vo4hsRGwJqxPJKOAQJJHyiE66k288fvLNn7L6kWfJZYW3XbnCdawhsue5gCZVcytPMKnarJSOpyMoXW1ckuFZR0zBEHDbTXeVJJHEDVw+dyA/DcZXBxKiFGrAbD3QnnIuXV1jiMZryoALWbcabCP82zevYuqCcfTvCvnCx7/BwzdthdCy+olnESulJMxKKSRUUPR5adV2vvDR77HuIYPpsaX1agRBpf4CyYejFi3CGEd6h4LU90rBIUgiDpIaciaKCPMhJgx5y2WvR7Wk3Bv76lVUZgZKw15g0fEzyTb5bNvUwbpH+tO/lj4fdN27mt2sUzGisIY0osq063lCGJmYSIR///r7mTl3Br27+vmvz3+P3357NaZfaMhmy/YVwNMaz3hI0Wfr2i4+9w/f5N4/bKF/p0XCeMGrxMZq4ptZyOfzsceoLn+MJg5REql6n2tD3vZw7CmLWHHR/HLuCxggTIy2W6Ni3RmBzCRh+uypFHvg7lseKucRjX8v6/evXDhVJcKaVGXT7ZbYQAYzFCvQIpjQkPWUIxwFNAif+ca7mT5/ElGP5nc/voWMNBIUo5TNyGKMi/do8LM06haKuxTf/9LPuO6aJ+ncZF2kaoBTF6N4D7zw/PP7qEUObxyiJALp97mVCN0UceGlr0KapDQxdt9KIdUu5/ibhiXHL2Zs23geuOtR8rtsKVlSaYp+7Wj7VwxEnHoh6bSFBkxkSyQIZWNqAhNZ+vMF8n39RJHB08qpN7EWGCqgUfjs169ixhGT6Q/zWCxhMXDxJbjFwIw1WBu5qF/xkaIPPVl+e+1N/PBrN7JptYEi5S0CQsszK18Ao1BSqTbWMTIcsi7e9LFIFxg/p5G3XnUiNEppIen9UqnY1SiJyxHYtTXPI7etpq+nwIwjpzNj/hhsDTqvyLVRVXS1wLQ/JBdbKVSVjyVLPaQTlZQ9reVrlOB5Hp7n0dfXRyaTKf8m7jJRIJ5w+rlLWfX08+x8uQsV+iTDPYrCUqHpLHM2EjJelnVrXuLe2x+ja1MO2z2e4k544fGIr37qf9jyUgc+TYjRaPHi53kly3wHBw6PfCISMW/RPEcgBjdLd1/DSmXgU3JcwYzZUxAlFPtCHr7nCU4+f87AZECvwL6dZFpzsHFAmftcy8BauxBHGE1NTfT09NLc3FSSBjwNxcBNSPTahA984nL+8V3fIL8loMFrRowiigxRYAjDkCiK0FqjEBQK02/I6Bbo8bjr+oe484YHkZKLBtobJ2MCQ2QtxhhE4jRvr8TGPohwCKszZVgsU6ZPKlHm/usyKf0kdWj6rLE0tzeAgscfWAV5W5owXD1F/hULEUSrOD+KIYxCp2YkIshuNtHQ0NxEV28vCGgFYWjwfZdrJVLQPEH4+JfeixrXz67e7fR09xAUAkQE3/cREcIwjO1OLgO8sppib0SxJyTojkqfiz0Rhd4QUwBlnG/f2ngWYF2pGREOCRKpdosOHIWCjWesyXCXehklDJwwavGahUnTJtA+Zgxd2/t5+uG+PZpYOvB59/aRhjHaB7E2G2PcnCQRtNbo3aw2Z4wpu1cpqy6NTU109/RirMuuFkYuIbYVsBmYOEdx2XsuZfKsMTQ0+/gZhee51JGJahSGIZFxgSLKKDzr45nUVvoe5xSx4uxQpZwkdYwEhwSJQLorSOm9lHwXq1m7+qXyvPPhYHdjaXfjrRTIJgzM7wnzjzqCfKGPxkwb997+MCao9SzDed6BpDK8R9xTAqkkkiSzWZIgSAY8Z9Xd4t8HkF5cbBJ2Y6xxZccTIk0GjjtlNktOnA25PL09HYTFIohToRIPkLVOvcIqlwqiYlPlLb5h3c07ejhkSAQGk0QErGbD2k3OSh+wJyNt9CqWhsDcBbMpRkW0zbD6yTWYQpr2hl/sgfIyVGYXG975iaV4YPBcOaqnlAw7JhKroGWi8KdXnU3TREWmVcjne1yWNGsR5SQhG7u04qtxL49kq6C/0WmAOko4pEhkIJwKo61mx6ZOdqw2B156je8/fU47VodEkWXX1i42bQwHrItzoKs6FNygt6l92RZiB/nHgG+1+Ny1QCLIKc/lVMlMFd77kSuwfpGG5gyRCUuEU5ZGTJzpLL6XVG51+8e+waFLImnXolF4UZZbb3wM2/8KCMIQGDdTkW3OoKyit7uf559ejw0Oxvfk7gL0y5utQRmJH1hsrMEYjTbliFNjcAZxD2Yva+XCN5+DaooohPkSeQiCElWRYW3wutYx2jgkSaQkIieeADSezXHjb26hYzu1Xn/DLXSklSpDQTEsuHwbxuepR5+FQvmcCrPKCG47atiHKqBYhbJgC3F2hADIQ9gHEjkysRbw4A3vPoGoqQ+8yEkdBtw6PbqUv6SO/YtDIthscDgzmhKX+Kev2EO/9HH8afP2OMlxqsiRn2cBA4/ctY7OTX0IigI9vOaSE12OE9l9EbVCSgb6pGqaY0pV2N09Kupb68Z7jTI1WiAswJonNnL3TY/x22tu4+4bH6Nra8jYlik0jxFHJBD/zQRTyLBm5QaiPoXOZFyUrIib0GcZxMhb+T2dhe0VRNUHJQ5JSaQaLnGYR0O2hTtuuYc1T+w6sJJtLGY0tTQRmggRzY7NnQQ9rlKjVbXhKhq1rtmf8NDc8/tHueGau3jmzpd54b5d/PZbd/ORKz7DV//uV+RftJhe67xrWXjdn59E+9gWrHXLUCA4A6unS7EqdXlk/+GQJxGXscyNWhMoVH8TP/3+/zlPTXWq8UEL2RcVc2K452cQNEQeLz4/tL1m99EbIyOOkqcnVh9MBDYa6uI9eXsPrHFSlAecftw56N5mdH8LXn8rmUI7uWAcq+7bwN+843M8df92wt4yOSw58SikAfrDIsSuY1EuTZ0hdvkO8ew28SsPvbxfHcPAIU8iADYWdXWUw+tr59n7t3Djj1e62Z0JkaQJZagRNyoVctvjjz6JFo3CgyjDE4+sKp0yaNgJtYduLdWl1qNUh8oYqh49Xs7CRri4CxMTiakspGLFud2iMrimWpXylfDv//IfSLEBT2WxKIxoIIcKmyHfzr//w/d49sECEkEkcMK5J9JFB0VbcOWJS0Kk4pT9tjqzdUW71Ar2qWNvcUiTSKnPW4sVQYmPDhvxiq38/Ds3sHmVKUsko4lh9MnCLosyGaxVgAbjke8t1oxcrdXlhyuNQG0uFOuygel4U2G8GWfMVBY05RXuSgVV1GtPJZGqesblKYVbf9j4eCoDolyEsXhgsuioCb84lu9/7ecQgfZg0TJNdqyHURGRWIwC0VJhXE0EjeptsPrUsXc4pEkEKvt98lmZDKarkW9+7qcUttjhqzV7emep2pKbWHjhuQLaZohCC6KIipbOXT2jVg1btU8gxEQR4qbJ9wA7LdufMXQ+b7G7LOQprY2zX4wkg/RCEUGUoNDkVCM7N3Vz942bnASZFWbNn46hlBexJJHU7SH7F4fFLN7qTqWMh44aWb9qOz/42m1c9f/OKesMsPuXVFp3GPJcW/VRSp+fe+oFlMliI0FpjQmhc1dXTa/LSGEt2AAycZmP3P0Szz7+IqufWMv6tRvo7y4ieBSK/bSObWbCzEYufOtyzjp/eTl5kx3FClVDwOgioS6gjY9bI7QME8azhUXzwJ2Pcvo5k+kLYOmyRax9YBMmsGidRLrKQZer9mDHYUAiNVx9FrRooiDDY3et5bpvT+OiqxaUFpQq6QhDdcY9GVDpt3mcOGPtM+vQYYYwcV8aobc7X05QNILbJbdMyvEt5HdYfvPLh7n31kfZuHYrEvpI5IHJ4dlGRBS+tGK3W17u2QmhVybVarFGqFxpbg8hpNaLAVDw1x+9is9+7Ou0+xPJSBMiCpMyelprwSgef2AVfV0XoNtg8oyJ8XO6P5oyYEUBEZEtr9cb36KOfYTDgERqwSnHGcmR39HPbdc9yPgpY1n+ugmOSAwj73UVIkU8nC0Qwc4XDC89twmJPJSYOFpTERZCpwXVKGJPYCwuc5goPAOP3rGRX3z3OtY8vpEmNYYWmYSnnVxiVTVTWgoq4KzXLEsVmKrQCKSRwXjZKFh88gRmHjWBjheKKJpLs67BuW/FghKNDYRi3qUJmDpjAoizgUhEaS7P7iYD1jG6OAwJOhELnP6S0Tm2b+zi6q/9goev7yDaZZ2toNrYmvBAYpzb3VYLRyYZ/wAAIABJREFUBoJtlpt/dRc7N3VCCFoUBotWyl02AlE8ua0W8LXC5uFHX7iD//zHa9n+XJ5mGYe2WWxkCcOwlAMkvSWtE3RYTOgYzaRvMMTYHE6T1CrCKMhOEN5y5euwfoif9bDWVMwOVsrNwA2LEX09FuXB+Cni0gJYi4kNW2XuqOs0+wuHIYmkYAWswqOBsNvnsx//T/7wq9Xxb1WnpfZVP1cWWbEl89kFG7uTX1y9ixv+93YK3SEqErQosAatBYmlgpG88AXnWbF9cNtvVnLr/z6I6cxR6BC8KEtGsmjloZSbRl9rKr9Yn8998luowD2wxA6kgXcqf959fQc6VtNFhQpOXDGTecdMpzPYCqoIUYANArQYMAFaLIQBxby7prVNaG5uJFnFo3SfuhCyX3F4kwgACm19bMGjxZvI/117B//1yZuhAH09znUYiotNqHbiDBZW4rZ4ert1mwA71lu+9Plvk9VteGTRaEcikfOrjh/XNjrGywjymy0//cYNBF0KAo2WDEp55bVzjCrVrXqTIMvGp/p49NbNEJVtFwMJNM4dG38eHOUrJUWvac+xFZAGeOcH38KkIxuxXh/KFlFRgaCnC88U0VEBXxlsGLprBbZt3wxi0AIiCW2X6Lu8Tnsd+wz19gVA0HjoqIFih8eDtz7Fp//uWmy3i53Q8RhIxPqhySNlf7Qu5kJC2PKs4Ruf+xE7NxTIdxqyOuekBhGsijC2nynTJ8a1GSEM/OBrv6ewUyHFDL7K4msfrT2wChvJoARiLajIx8s3838/vaVsH0qZdWq13+6RpleQKiIBMAKT52ne/K4LaZuhsa1dBE27UGP6sC1dFL2dZJoDVDYgmbA7dlwb1oYVKQDq2L84TA2raZQ7nUIwkY/qb2Tdwzv4h3d9jSv/7s9Yeto4yDndPVkLCQYOnbS1ReKgLULY+Zzhsx/5Nuuf3sSYpgl4NoMSHwGMifCzQt70snDJEaMjiVh4+tFn0cUsWjyXvlBp9wAV7//K508gRiGR5tmVzw84c3Q0BVdS4lU3pMJoFBx75gyOWvIeHrpvFWPaxpDL5NBGWL16NRu2bKRlcpZiCA0Kxo4fw5ZtPdh4zTtRlGf91rFfUCeRNKxbfpEoAwVFcVuBr3/6e5z7+tM4/YKTmHqE54JLY+OqkYGDShGvCxtCcYflF1ffx92/f5CerRGTW2ejEjWCOIGONTS35egPhWPPHgtSOcz32LUbq04d27vIMQFPeehYjRlIILWhlEZZoa25zYW929Eij4qaAolCFEPiyZIeZMcLJ5y3GF+D0oCBWctPLhFNb7xyxNhxbWyRrhpPtC8DW+pIo04iA+C6o7KC6deIbeK2nz3EPTc+zooLT2HFa4+hfbpgPCBJKEw5Vk2FQAC/+/7j3PCL2wm7FJ5poi3nY6PYgKls7IYNaWxqYPvOLZx3xRmQY0C/H85QKIVsiPu8bvUugiCkSWm0jgmknFyF4Yj81lqiKNrH2oGN280tKOam8VOKy/P8sne81FOtexTlJZ8Nom2sa6q4MWpJWXVC2Veok0gNCGCNoMSDvEYFGfL5kF9+50ZuvfF2lp9zHCeffSxTZ7XS0OLsC6IAC3+8cQ0//vYv6d+uaJA2MqEPkUfagyEarDFEqkBX2MOkI9t41RtOcx6QvQneSl1jraWpqYlsNoMuajchzZbf98MR862NiDBYHc8tokxQo4/aROJuWrXFxyxu/owNYdrcSTy/8mXCzghtM6kL6/rM/kKdRGoiCQhRoCxBISLCktUtdK7v557/fYo7fvkQzW0NtLQ30tTczK6dHezY0kG+p0Br01gaQw8bxRJAMqsu3kU2Am3ItAhTFo3jn75wBbSJe5FK5RDYU04REVpbfTzPQ0eeS1RMeT6JwklBQw0xIxFWFznmhEXgsx9cpmUiSddLxYt/VzeCStpIwYVvPZk/XHcrWrVD1ICKZwyO9pzKOgZHnURSKMcpCZI4rozFUxpfsoRRkcgKQZegdJbe/oDezV3YqAsxgqaRFmlB9Xqxp8O4IKhkcWsBIxYrIYWoh4tefzZv/OtlLpuZdoNiMKPtniDbKOCFmLCIDjNYo1JxFGCi2G8rFhGLlWTRKVdfowtYP895F58B1uU5VUNWaDTe+nEcSYqxhrqlwhHumGnCn//1ZXznMz9FSwbfZkZ/VnYdQ+IQT484fKS7rsSSiPunUOIh1mXNinTIq1+7gk071mEJMQVBRR7KKhTKRaAag7EBlpCIAlYF9Afd6FxEy9gsE2e38JcffjunvXkmZIGMI5CkEiN98YvA9HFH8vjDTyKRhkiRyfpkMj6dnV3OWyMWIZ7Oq0KMFMEP6Q13EGV7WXbWkVx4+XGldI3WxpKBONVN4riMMkZTfXApCAY1CKVVGwUTp7ShVRNPPP4EymYQ46XC3muF7tXD4kcTdUmEVJ+0lVSSjAtr3Or1KEF8w/KzF3DJO4/itltXcsfv72Pz+m1kvAwR4mbQW0NkI0RbQlPEz3pMGNfK8Scdx2lnnMKMZbqUwRyPisW8R6VrKzjhgkn8/EeKtQ+9xJTWWeT73PKTuUYf7VsMAYWgj8D209LWyNhxzRx9/FEcvWwRY6c0M2mOAs89dpJTpHKJz30VkzE8RS7hGCvQ0C6seN2xbHp5C/de9wSNeoxL9BTuvpw6Rg65asE1h70FyjkspFIaSRGKEkciRekhaO3i+9f/LbSKM4T2Q9cOy313PoKKp7BH1oAYvIzHpKkTmXvEFDI58LLiJI/SoiqUzS+MXncXA0Sw5r4e/vPjPyDalYHAo7evF6/JkmvR+I2WpScu5pSzTmTB8Y3QAGQSq6VzX6NiL0hFQyXYNyRS4fgdqvj4ZxNfpAyse7LID7/yS557eAMNtCGBR82M3FZil3cdo4E6iVCWOipoxJZfu0oEG1oKqpuovYvv3/xBbBbIxWJ+0psH8yjGRZW8OPGxWg0/vEiO3cDGttwAnrm5m298/vsUegy5hiynrFjGUcfM45gVYyAnsXEBZ9TVZU8pkjJsVj9PqYb7hkSk1GC7OTlFJBbwQnj89l1854s/Jr/FIoUGJKoR+F4nkVFFXZ0ZBkzs21RK092Xd+EWKu7wsSSxOxU7EWyGIo5RQ1KghoWvauFjM9/Dqiee4eTTjqZprLjsRMnYSuoVh+KqeGCq4SZo2kdVH/zAwJ+TU4yGY84cwxt3XsjPvn4DYWSwCBLVA8/2JeokMkwopchkM7Q0tjIg4w2kcnfuGfZF1zZx9mUlID5MOjLDlKOWlm8o5dgzANISUvx9n1VuTzDM+6ftI5EPy8+ZzSN3zmL1Ay9hjSBGxUmUEsv1YS98jyrqMt0wYK3FGIO1Ft/zCbpHp9x9NUaVAq0dMUQGVHXGtjjOopT+tapSUsOMsL8wnMmN1Ruk+DA2tJ5z0elkWgWrI/CkxhV1Ihkt1EmEcph1RReT5BeLNS6JT6EYEAQhfX0jv+e+HqMWiCJHJgiEEYOv+pcilz2D7KNt74ik9Nwa5h3XylmvPQm/2WBV0UXfppM5SPWVdewt6iQSIyGSkqhPajV5jXPvIkSRoXuXjQ2xIxkmQ2PkwzAlUYibhzLgxjUrM9zBta8IRLADKzUsJDUPBTIThTe9+zgmzm0h8vKgQ4yqWlxIXIBdnUxGhjqJpDDo1C0RlBdnArP6oFCpRVLG0YofGIQ8XlnYW7WmdL0C0wBve9+bCPxujC4iymKriaSOEaNOIsOCRVQ88iLFyxs6SseH16UPJgyPYfZmkO+udUZSXnVKIgECC0csy3HqhceicvHKXJhUcupqC3Mde4M6iQwTbharBaPYsW1n3FsPNQJ5ZWAwW0c1KlS3GseUditfXP4XFzJhxhgiVSAijEurE8hooU4iw0QpDiReH6aO0UeFphWzRiJlJLCpDzYCG8Zb1aS7tLfGbxJOOuNY+k0PRkUky4Lv2TKgdQyGepzIMCEiLhbcaDa+uAns0Qe6Sgc1YlmgJiSKl/oktuskYkkEYdESBbD2uW2IdZMdLRHTZk4m2wK6UdzaQanC/QY464JjuOY7P6Mp1wb9LgK5TiGjgzqJDBMibkavhJpnV62tfCW6Mw5QzQ5e1CKSkiQSuez4a596mZdf3Ma9dzxAsT8k39NPIV8kigzZTBZrDUFYxMtpzn/jGbzxvadhM1VGcgXN42HJSQt44YEt5GymvtzmKKJOIkC5O++GEKygrKbQGzoZ26jUxJk69hiJNdQAAfR1WlY++QwrH1nNH299EinkMHlx2edNDm2zaJOlIbL09xfINTWilRCagGJXkev/53ZOu+A4pixqdBN4Y1gBv0U4etmRbF/dje1QRPU/2aihTiIlpN+LA9+RURQ58Vo8goJw+/8+w4o3LQRfStnI6hg+rAVCkADWPxbwo2//kpdf2Ep3Zy+NuVbIjwXro6xGUERWXAi7dUtNaAzaemgrWGPJoYnCHvLdBZRprLCwWhzfH7d8Mb/79u000lCXREYRdRKpQFoSqSQSa+M1XhHEeqx6ZC0rXrfQtWCdQfYYYkCKcPWXbuX2/3uQdn8SxR0N+KaBDC1QDLEItmJmo1v8ylpDxsuiRENkMYEl15il11jGj2uveT8jMHV6C5ENMBjihQfrGAXUvTN7DIuymlWPrsX22CpXbx3DQRIoesf1a7j7ukfJ9rfRt7OIjUCLJigGcQKk6nZ1OVhFBKUVIsRzmgw9fZ1MnTGJpma37EQpa3wKDc1C65gWEDB1fWbUUCeRvYBYTe+OgOdXFurcsbcI4fZb7sYzOTK2kaxuoLm5Bd/PlCY81kSspjh1xIK1BGEB4xVZfPxC/EapkCfTCqoxMHPWDIxNYkXqGA3USWQvIEYT9WX43a9vhmLp6IGs0kEHq2H+wrmALUkFQTEo/T5YDtT0wuPgJJGmthzSGHDW+ctdrhQq/xrpz9pTRCaqSElZx8hQb8q9gFiNhD5PP7aGHZuKiE0bRupksjtYAdFw4SVnUNR99JpOjDh/SmJ7SuA+2dJ8OYx1diktWGsITUh3fydLT1nA+NlSsvIlq/ZV/DWUI5Faqk4de486iewFxApZnaVjeze9HcXYVVkrCLuOwWAUtE8VrvzQW6G9j1AVB54UE4eybr0cwbp1dGIGMFgiG9LQnuGsi5bjT4jbXcpr0yRIAteiKEJ7SQRbHaOBOonUgFuDxe1r/QPwlEdLQyv5rgDbT9wn63Mxhg0BPDjtwll89ZqPUsx1UMh0E3r9iO8mynkKVLy0hViLsvHnmFCKYR8F3cXMoyay+MxJ5QTTQ9xTa43S9W4/mqi35iBIiKT2ZtFKaGttJcgXsaHd8zl4I50Ge4C3kWQMId5bAXLQOkv45m8+zOmXHo1uL6BzIY0NGk8MEi/EoVKbNQE2CijSQ8tMuOqjb3ZLb8Rz6mqZU5JDO3fsHMYfp449QZ1EhsDgkohFi9DfmyfsN6isDCSQQ11aHsHzSeqDUWAzkJ0gvP2DZ/Cxz74PWnvpNJvoNTuIvF7wiqACXHRaSCR5+swubGMf7/vY22mdLS5bPaaUODsd5ZP2Fvf19mHNof7H2b+ok8jewLqlKKN8wHNPr3U2kSJuH7FnEslhigrJRHDZ43Iw4wTFl3/8ft77yT9l5gntdEYvE/l9RPQRknepDrMF9Lg8l7//9Sw8PVZjSDw65cZ3zR/P2LVQ7LTk+wpxkFld7Rwt1CNW9xBJxzfGYJWw+qnnITqd/m5Lboyz5kWh8z6Icvt6fx0c6Sn7aKeK6HZh2Wums+y8d9K33nL/nc/xyH2PYwJLJpuhod3n1ZeezuwT20BDJKZcWirUvcKwamH92g7Copu+oEUGcPxw/0z1d0Ml6iSyByiJxYCX8TB4rH92I2y2PPbw88xYMIlp85vRmXhuSFoaqRPJkEirOHg4ycRA4zzh7LlHcvYVR7q29IAwJp2UZ11EYg5Jh5elyMTCC2vXY8IIbe0AJtiTP096quZgz3E4EU1dndlLeBkfEZ+gT3ju0ZAn7nmOpx94Hgz07IrDtg1EAYdXjxop0nqOBny3KFVRWaIMkIEoazFZ6/KoYlCxJbU6yVBaqSGAF55bhwltavU7ia+K97FLebiG4VpVr/UYh/r7o04ie4rYaBdEIUo8Gr02HrvvWbo2FFn90IsQWO666V42v7TLiebKEUkU2VeGmeSV2rOH8G4pDzJZQcdys/YEpaQiMG1ghGvld1OwPPvUc0ShYI1C0JXX2YHX1K6YLS9uPojrKlGUEsl1wNo+hxjqJLIHSJvsgiDEGMEEmrtuuZ8X12zjiQfWQB5W3ruOT37wi2xb7wKolE53rSH66yhW8u7bHuDldTudwTeKf6pyIiUuUbu7V+/uXrv7AylySWbfWmuxFoyx8eYW6zKW1DR/hbKQ74IX12zBU1kkNlQpUSUppELGKDVQ+S+WEIfTmtwJSqjYyueIWyDR2lJMSy0J51BBnUT2EEn8iDEWtzC0RxhCEAkZ1c7dP+/F65lG95oc3/7ML8jvtM7AChVTz0tEsi96k4HOLYa//8t/5dE/boLIDayIyqzoQ7z8B6JaVt+fsEAIm57vJt9lMfHzGEtpZUJr4lUKsaW1k0sI4cZfPUaLNxXPNCJGuQXbSzEvZUUomZvjpEiFFkGLQiEDNq0UWrmlRJLNfXdWEyU2DpazKGvQpYC58nYouPH0svGXfvJAV+KgQ+wESIx51kAYWUQ0YjN0buujZ2eB3p5eGsY0Mm/RJFDxEr6qVETFfjTrBjB/7nQ2vNjLj374M9Y9t4PTzzraGYUTyaPqkmHx2f54hVbfw+LYr89y5WV/y6suWEG2OYN1qeUqBr3Ese7JXhGHzIdw9Zd+T8fGAG19VKSxVnDUAEokJgEpleeOSar88gYx2cQVTvLMOC5w+U4cXYcYFWJViOgIxOAp7c4d4B06eGWTuiSyl3AvsrgbKNfpTGhY+9watm7eQlZnyHcWuffmhwm7XDauIDDEs9fdBLF99RJSYJvgyr+5hHPOXcEDdz7GFed9kjX3FlBFBl18a6gg1X2OmDyS+xlibSICAvh/f/kt5k1ZzMQpzfgZyPiKjO/heRqtFVo7ElDx4FbEtogi3H39i+zY0EVWGiHSKOXheR5KiQuDV2pQsijVyBqwsdQT/wGtsVhjsJHFhIYojAjDiDAMCE0/gcoT6F6Kfif9mZ0EmS6sFEmWvbGHiHJTd/GOADbu9aIo5bfYtbMDE0X4SpPNNfLi01vZuc4y1nMqT9bZ81D7MCOaFTcIG9qE9/79a2n0m7npt3fyTx/6NKeffwKXv/t1NLW5pRSsLg/cA9WV07Yii1NXdOwtoQhf+X8/4ZmnnuODH/0bd6Lsvr4WiAqQsfCra66nvzOksWRMVc5Dk9hUK9SfOHtaSaJwQ93GuqiJF7+KTEBoQyJrEA1WGawYt8KehBxz3FFMnjqeOfNnMmnaRObN99n2ouXj7/k6FEB8f5AlCg8+1Elkr5GItapkULPWoBBsrC94kiEqNPDDb1zHh75yMV/9529y9nlnc8arFuzzUSvxf9aHt39gBdkGj19eex2P3LyadY99i9e/9dWcet5s9FjBegeWQMrSh8HibBFSBPos1375Tlbd/wIz5k5h+WumOxEjUcuorHdJdrCORD0FD/5uB5ue3YVvWypIw1iDxElFEqlQ4t/SBIK4c8FiJcLoCOOFkA2xUqC5PceMudOYv3gu02dPYdbciUyeFZODweU3EaDf0v+yIZIQiQwog6qTSB0QZ9cyTiRNBGmtYtejVXgmx6Y1O3jsxh7GZ2Zy7dd/xVFzP8L4I9Q+VSadaQ8iBcqHt1x5OkccMZ+vfuo7bN/YwTVf/znX/6aZK//2z5h3XLtbq0Ux7EXhdqfipJWBWt/Tn+PFLQHlkjAboM/yifd/h44XAshn+bM/uQJ8gSB2r1ZpG0lhYkHHdhDTa/nF1dfR4o0jigSNilURZ48wxoA4wrDW2SysipxEISGIQcSSafDI5Hwam7NMnTWZqbMncexJS5i5QNBtifElbj/luoN7qcTeGgtoYdwMjdeg0WGGSA2MmD1YIVctuOZQeZb9hMSYkcQYJIThdGSsxZgIpQQvowmjkKLJM3FGO8edtJS77ryb+cdN428+//pSFq5Rr6EMGFtgweThsTs38t0vXUv/FkNGMviNivlLZ/G2972BcUcqIgHJJK7Mmk9fsR8MQ5FItfQBCrHujaYioAj/8q5rWffkZtqyY9nV08Ep5x3HRW8+i2nHVZGvAAY2rSyyacM2Nr20jU0bt7HhpS1s3diJzWfp6wxQVqHFQynP2aSMU0OVL1gvIrD9FE0fDS0eLWNyTJ01gWkzJzJt5iSmzJjMlJnNtExOLOqVW8lQXWW0toaUlAqqG95z7lfwuscQIlg5NCSROonsMZLIIUt5wpfjlcToZq1z62pPYSJLodiPl4OmpgaMgU6ziR/c9VHIUh4QiWw+CnrFgHiQpHgDvoGXnzJ8/V+uZv1Tm8npJowKCbN9nPGaE7nwzecybaFP2ToZT25TsUEYhmWTGIpEnCO2Mheq70wJPHzrRq7+j/+hZ52hwbahPZ9ilCdQeSKvn/EzWjn2hMWEJmDnjh28/OJmdm3rgsDDBgobCjZU+H6ObK4RL+O76f9iXR4RJSgt9OV7mTRlPOMnjWXG3GnMOmI68xZOY9osQY+tlC7SbZGQRLodhnreNFQe/vyUz5Ltm4ARDzex6uBHnUT2CmUiAcqWfFMmkOS4NRCYCE+7c5RWFFUHRy4fw0f+44qSGjEAI3lJ1SARTEx0EXgR9HVY/v3j17Jx5S7oz6C0sKNzG+Ont3PSmcfw1necjmoE3Srohiq3cGrwVN12AOwQZya/aAO6CH/40bP85prfk98ekbUNSOS0bdE4EUUZTLI3sacrtGjxXCxM5NIligZ8i9URIUV0Vpg8cyJTZrht8ozxnHHh/HIbp8m7+nP1sarnr6WeDWwDB68AH7r4v+l43uB5jVgODRKp20T2ConC676VrPulzuUkFBu/rjzll3qSCUF5OV56egddqw2ti5SbI1LdA0fB8Fp6O8ZhCzYuM/IhO174py9dzrVfvZ87r3sAClma/XHsXNfHE7zAI398nKUnL2DFRady5LKmkr5vpbw3pUpWDimpuHv51S3E9ozEkGlcHMfODZaf/vdNPHDLE0hPA426FafoGOdFsRaswhqLwsNGBkyEsRFRFGIzFp0VIlOkpb2B2fNmMG7yWGbMmcLMudOYOrsBr9GtyUsuljL2dna1VLZt+alro+I3gbET29n2/Ba02KEvPIhQJ5FRRjm+oHpfhjIePVuL3H3zk1w4/xjXoQdN+zlYTxt6BCRDu6S6p6STKO6/ulG49C+Ws+DYOfz6ezeyeU0HrV4rPdsK5PMBD+x4lqfvfZFMm/DWt1/CkpPbyYwTd72mIuDK1bR814qnTwluKjEphUCf5VdXP8Ed199Hz/YCmagVpTUmcgZNV4DFisGoAKMDrHbBW8Uwz9RZk5g2aybT5kzmmBOW0D6hmTHjQDVX2S6q/xy1/jQjGNDpth6yGIFxE8cQ2hdHdsNXGOokMhJUh34OE8oo2nPjue+2h7nwnUud18E5Jwa7UdX33dy3LBgNrGJKpw+B7Dhh6ZkTaW19C9f95CZW3r8GL2igKdOC6tcUtysKHQHf+LcfkGmHk84+lvNffyZT5imsQGjieyhKUaOl8ZvW+pwxpLS/+ZfPct3Pb6H75QBdbMAPm9Dac9KFF2B0P5EEgFNhjjlhEZOnTWD2vBlMnjqByTMzNLQAzVIm4URCStstqM0Zo2B6GtCswyGSsRPGYAgwyjoj8iGAOonsNfa+G4poTNGw6aWtbF1fZOKi7MjdvYOoP2LLQk7JPiLlzh4BXrNw1OkNzF96Mb+8+mGu/8ktNNgJ2LxgAoOyGj9sJtwScPfPnuTOXz7EpJljWXTsPI49aQkLjx2DzuLSRHqUR1GEY6p+C1l49LYdrHn6ef5424Ns39QDxQyeyTgjtFZEUeQ8JV4Pb3jHeYyf1cIRC2cyaZpytqPBpIqENEabGUYB1VVqasnh52rprwcv6iRyAGCtRaxCi8+mDduYuGj6CAtM7WsRSfonW7ZLJOH3WOgpWFoahD/58xNYtvA4vvvFn5EPQ3rzeaQoeL6Hr3x3GxWybXUvNz17L9f97BbIhEyeMZ72cS00NTcyduxYlGi6dvXQsb2b7o5eejryREVDVDBE/Qo/bMbXDW75Bg1KCd3FTnKt8KYrLuSCyxYQZAR8COOMZ+oVRhKDubuTODWdigYGQKC5tZFccxbbWyeROkYIay2eaNY++zzHvHqEJDLkjdymElctzqApST7YeGpvx0bLjk5Lfqdlw5qtHDF3Hqt71hIEXTQ1NlXlLwVf5dDikZMmwNC30dK1voMw2oZSG5BEt4gAIy461GpEFL5otO/H679AZEL6owLSWOCMS07mwisXgu8iTg9YKO1uMBiBKFxbP3DPSk46ZQnoynOaWhvJNWboq5NIHSNBkhJARLNp49b4YNVJUuvgIKihiFdM8DOw9smt7NzRyaaXX2bXtm6eXfUyOd3Cyy9uYtf2TiZNnEznzm7CfotnfCT0yOocLS0NzhtirZsdS5IbQ2GtWzeXKCYWiJNVCyLOmyLp17AkBljr5prYAuJBKH00tvtc9p7LOPUNU7G+ywKPuLZKIj+Hu1xMheSVbs6RosrWUr1XUErWfduNd3PSSUvieVXlIlpaGsnlMvRx6CwoXieRAwYFRvH4o0+CeVNFvlCgzDSDEUl1Jq/aQRoQwtsv/hjZ/jYKXW4quhIFkcZGfSjxaGcCxZcNTdLqEvUoZ4NwEbghFoMJIkTinBmeF2f+SaKvyiKDSkLLY2OFSjw3cay6WNwcFCkS6gJdxZ1MP3ICb3rbxSw9bQpkKUXLJrlbJHYtpefJ1VxbJv7dSiWvDu4nG10kXqcvfuIgGezrAAAgAElEQVT79HdFSTw/6XCQpqZGikGBQ2noHTpPcrAhGXxWQcFCJtXFSyNg70VeQ9md2pqbgOlsQPoEz9OIBqWdETNyi1ES2ZDQmjgM3QXMjZs4hilTJjJu3DimTZ3K5k1beHb1c2zetBVTEMRqfJXDE5cI1aksoEoWTouIxYqNjZ5ub3WA8ftQjUXmzhjPX334XUyYnYFWKfGRxG/qMlns3qVd3XwVx6oZZS8xmBQCgIHuDZYn73uO9jGtzqhcNblx/ESPfL4XpG1kFXkFoU4iBwSJXKywFrp2QmtTcjiOwtrbXh+fXpINBMaPb2fL5jyiPawSIikQSCcN7R5jxrfS2Jpj/sK5tI9rZfL0iYwZ186MeQ2ghcqgynnkt57K+uc2c+dND7FhzVa2rNtJb1eIiny0yZDz/z97bx4vyVHd+X5PRGZV3f327X1v7UJICJCFQBKrWYyMsTHg9dkG2xgbL8/jwcb2zPPDy9jzhrEHjz3GNozBZjHLYBaBAEsgIUCAxCK0Sy2p1ft297WqMjPO+yMys7LqVt2l+7bUl76nP9lVNyszIjIy4hdni3N6CIMQEYhdnVhrRK5OpBFYRa2its5V11/Gy37kei59wZYmE23DmUty1iPPRtjuQRc5dSaoCCDa8sOXbvwuc8Ng4jm/OFSaG1UehIS49c5VTWsg8pSRZ++dU6anq/THXT42hUkQ0XSnqtCWb18KFZbibds3c+y+x8n2GScm4n9/7A+gB+jGc0GZB2c2kTv4rXTtFC7dvpVLn/sjRCPK+FHl4KMn2ffIQfY/coDHHzvA8Pg0QWjo7u9CTUx1dhICZfcFu3j+i6/j6mufxuA2gQqN9BCtj6lejNHMhW0FPHjPJBmABD778ZvZ1L+N8enjRBMQ9rdcWBLCckC0BiJrdPrUAJGoHgFdTaH+TtvlPStDYeuuLTj3CIFUEAVHHTYC3YJLfKiApn0krc2EZgWDAF0Qbhc2bhU2XrGZZ5vNMHsV1Sk4eXSGOI5RdYhV+tb1s259gO1NC3P4kVfcxbwISLTqmU8VW88EGUBqcNMHv011IqZcsYizjJ1QNu2Q5khyAn0DvYycfKpau/K0BiJPCUm6vvqYFnEc58YLMYY8PPvpVQGpWXfbjs15ZC4Rg9OE/Y9NsfvKfiRcmpPWvEmbiTmKN8soEAqVXhjqqdBVtj5gcUBjr0rWruJnkc4kt7GYK+lpkHFQH1e+8G9fpiRdJHUfkGp0ZIJNrJvXjnXrBxl5bPzMNOYpoO+PgAariqTpUFWG1mcDbZ6UvXzSwkfqprF+4zo028wGoH67PECtCsnpYFZx0hsghJ6hANMj0OX/zi1PT5aZpBOdqXodfP0LjzO8b4ZAu4ijhFKpwujoBCQFI1Za/8C6Pr6fdCJrIPKkUqaVUFRiYqnjJGbdTr9iSxrvgjRa+WnpQ2hsV+nuq3jlZGrxUBUeffhxiKBcOoVQn+1EnuJhWo7W35dabjt96jKpk1PYonUvkUy6d+DjH7iJLlkHcYBLIDAhc7NVb5qmAeoodPWUaR8iYXXSmjjzJJKQGl1EcbZGVSd51nOuaJ5wK1yhCGzcYkiISDQmEIPBcPLYsL9ETnFNbBUPlisuLDZpC7uhpV3ZneqS+ZcsZWOc5P8tUn6B0pjM3PHZg0wPJ5R1EBc5Kl3dqJtjdGS8qf4MRLv7uslDvn8f0Bon8iSTqAAJLqgxE4/xmtf/cMG0ma5Z+bJ1GvWkxYkBQmFo0zpijfJfTx4f9vWejuNkK3fRynEsdCyHVmC+rdSULeir/YIwo9z6mW8i9TKShKgzzEzXcAmMjjZAJOdGLHT3dX1fcSJrIPIkkihIohijzOkEOy/exJ6nDRRAJN/dwqnNtgJpQSIysGnLehIiVBTBMDo8nnuBnk2WjpUn7XCcYlEU3oqDO28Z48D9J7Fa9oGfEZ+PJjFMjE3hXKFWASx09XWd1ebq5dIaiDxJlIfpMQ4JE+rM8PyXXYOpnNnRlIHIlm2bSFJOxGAYH51cEZ3D6qAVAJCWoky6R+bGj/w7bibAJhZUCYKA9Rs24GKYmpylXm/wHIp3UO5Z40TWaLkkSJr7VRGbMDk3yvYLNvKiH7quEaw5y3G58pWDwObtm3x8UhRRIak7aqO6IvPq+5raMYQKksBXbzrMyNEpqFlc4n1+RCCJHRbL8PERKr2Siz/guZEdu7bit1F/f9AaiDwZpJkuxEEYY7oSfunXfo7BHdLk6u2vXaEZnQ5+SSMSbd2+OQ0urogYkkgZG07yS7+vKN0zZByYRDCJwWiLX30Lcrbtdenw3QE1+NrNd1GfchhCnPOJxMUYonqElYCoFhPNan57JtL0Dnx/WWfWQOQMU67dSPxW9snaKC979fN52vXr5ytUV5jyUhU2bh1CrOLwu3GjumN8ZNJft1rHc9q5TX4Y2UMncN8d+/njX/s7TtyXwFzK7C1ggmkSeqSNEFTAn0fvinni3mNo5M3yYg0msPm1TiGKEibHfL1FkWZgXbGhq5/WQGQFqcWNrHA4JEjQUg3tmeXHf+G6xqazHETal3JKpo3CJSI+3MfQJoHA4VI2OqkrE6OTp/nETxFl4EGHie6AOvzLX3+Cfd8e4W2//F+4+WP3+By4Ebi64Fwj3WmROqlhFUiDzPt4IZ+7g+mRCFEfD1IBMQanSuIUYwxJlDA1MTOP2TRlUHF8n+SuWgORlaLGIElBI/9MUKnjSrO4nmn+5/v/H7q2SiPfjLQrZWVtpCpQ6QWCKFWuKiQwenI8Z/2XtCieDQunNK/hxSZlwdpQ+Nz7HmHiQIlkoo+wuoUPvOMW3v7GD/PwV6rYJM20p81c2EKPp4BzkETw0Lcn+MoX76Jk+xAJSMQrTDGQ5HFgfGCm8dGJ5r0z6TP0DfRAkHX+6hYo10BkhSmHAfUgohpDOWLGDPPH7/y/WXeRQSsUsCC1seZ/r8yAKk40Sd3Rt+3aTKJ17x4SK8PHR+ebLRcq8CygJktHywF+TlZHlY+89zMw20tfaROm3kO5voGjD8zxV3/0T3zonXcysk99vt4ajfhPHcrNDsFn6vv0x25GkgriArJMfgokqnkcIq9Ot4yPTM0HaYGhjYMkGhXcdFYvkKyByApRY3AXhHNNsCWY03F+98/fzKYrfVBih5eZc9CYJ6ufBuXFFEauAUrC9t2bPSfim8bISb+342wBiKVSJyARBRPBp//1TmxcxiYBqBDYgMCGuFmhfiLgs+/7Cn/9hx/koS9PE0iqs9DO4JEBgzg48EDMvV97GOOC/LVlu68bJGkAbMlN6Uaau3ndhn4SrXN63n5nB62ByApSPrjVIUYxZccMw/z677+Ry1+4nrnUZ0Ak3a+Sj6ozvAoJEMLgxgGSJAEEowETI5Mwt7rMvB0srrjUGjP6uONrn/82NikjahCEJElwicMQ0EUflWiAw/eP83d//s989G/uwI0rpurTeRZVnsVuMYCrKrd/7huUtR/jgrzuTLGbK3jTlooaJkam5vevwOBQP5HWUvf31cuFwBqIrDh5BZvgJGJGR3nzf/5Zrv6RzVQTpdwlPv5nq3I+F2Mkj0W6opQW2T/Yiw/yYzAa8Pje/T7y1ioBkAUpVaa+808+QDQaYuIwT66ekYhnOwITEiZdTByKuel9X+MvfvPD7PtWHeoeSFQbebayu63CyUMxt970dWy9C3GLbDtzgjjjlddu/hvtH+pD0+xV83Qmq4zWQGQZtFTVZmIj5oJx3vIHb+C5N+ykbsCWJc8SB23MhgVa2SRMmgco2rB5HcYKLnFYCUgiRcd1dYFIm7ZaoKRw2417efBbjxNPgNHmZNmZuKGqGGMxhFTow870cuDeEf7kd/6SD/7V7dROKmEEoTb03ka9VecLn/gyyZwhqUlbYGhtZ2BDpsanfazVlsYPDvUhtqFtWc28yBqILJHaveS250S44LLd/MW738rVr97CnFNsCEEaxauV9e2kIFwZ0rxODGzbtQ2xaTgkFYxaThxZXeJMRkVlp0lg+pDy8ffexGDPBqIoafs8JosaVzDJBmGJaFao1If4/Afu4O2/+l4OfdvBTAoeeO7k8H2O2z97FwFdXoHqfL+1Hxc+TkxgQyZGpyBqAWqBgaE+TJi5nK1mCFkDkRZq5jWK/7yMS55ftugHAjHO1nClGfY8YwOv/Klr2fp0w5xA2OU5ENU0y0L6mR3zQCQDltPYFVdg4MlUvd7duh+xIFYwGKwJOHZkpLBSLlDmYuzXUzAPBLxiuA6f/cidTBypUp2K6enppf3qnpmiBDGCtT5akqUE1RI9up7Rx2v8l9/9Gz7893cQnVSCWWBCufnjXyeI+sAFhKUQa62fPNmYKBxZ64yxTI5PE9ey7mm0aGjDYBpbNo3xsoqBZC2eSE4y/y9t/bWgzNAGiGhQJ7KTXHrVHn7nT15OMCjEAd52aHzia6fM3y2bnm86lSnn1ANJ0WTcRB04B0XTvCtZWyVbd5EABtf3kwwDDoIg5MCBg1zJxqV0UOtiOp+kzYVnkhxIHR777hzfuv1e4mlDb6UPTQQj1ptuRZtEmSJZa4ljgxjBBCWgRGAN1hk+8a7b+c4XHufNb/lpuspw8J5JZoaVvt4yExNT9PUO4PJo9G0ofZEuVibGlPUbGu9SBcSqz79DgkrDt2TVsYSsgUhK0vSZu290ulxBSCPSBBFaqXL9S67k537zpdh1Qj0AFcWYdEikg81pY33UeeNFmz5EpMksKC0raydlXPPpRiWK50DWbRjk2PAkTnzjJienVic/qqAR2Ag+9O5/48hjw5RtPyWp4JJUYGmH2umL9RYdxQYhgQg2CInjGBdbTC2gl82MP5HwkXd9BRHhwL6TlKUbowHlUqWQoKvNONFUue4UnGFyrMZ67Wq6pH9dGTUZgBQtNKsPSNZAZMlUfMku50DmgjGe/4qr+MXffxmxKkkANgCnjWDMDcoGsMwfJjLvSpJ0Hgg0+aP5LHItLiFpGQId0yuYADZsHuLgA8MEUiFRx+TkxKobt6LeWgJw+6f3c+839lKK+ump9KWOY+1ZIpHMAqYYSfUa+PcRRREiQr1eZ3p6GkRInOPBBx4GoKurQhCE1Ot1usplFEPiFvDxUPEerrEyOT4N2tUUA2r9BnAa4TTxMV5WUf+30hqILIv8bHNEaGkW01vlP7ztTTzj5RupJ2C6BGMKIkrGVaTmFqNCceHJL5NUB5LrQxoWmjTNrbcUSOOzKG41L7jSDqI8WdiwaR0JEVbKqFMmJ1fh/hkFEpg+qvzLuz7CusomRMqgtgVE2pNLHE4TEDDG4pyPsxKGISJCEieIEbq6uujt6cFab+mZnp7GOaXUU2Z2rrZoM12iaCLeQqNeZMys+VIRVHz2QcUhefKd1YcmayCyLErFkrDOzsv7+bm3/DznPbuXWIGAXHzJJnUWJiQLYDM3qYyfUGamEqrVOYbW97JxqxAOSB5jVa1PZp1xIqal+iarhJDvEG2j0cnVqvnQNLBx83pcnpJCePDBB6FOmo17lZADZpQP/v0tRNOCiQOMhktWTqoqzjnEmNyXRFWp1+uUSiX6B/qp1+s5d+Kco1qt4pwjCALmZqq+89tQZtER8RYaHN5Cow0O0qnf0b1+83rGJnyuY7D576uN1kBkiaSAmpg4qNKzSfmNP/wZhs4zRAKmBKGhsZlLwFoYG5lh36MHOXF4hNpszPjwNMcOjDM2Msmjjz6S5pnxloLtO7dz4cXnc/kzLuXCS89nw6aQUo9AkG4sy7iOZeovGupVTxu2rPdKvdil+mFlelLp7enIvyxaZscLzhQ5+N7XRrjji9+hIoMYSoDJFZ1ZE+jwl7WWIAxQNPXg9fqRqFZHVenp6aFcLlOtVonjmDhJcElCuVzGGMP09AyVnmYdR7GmjNtQB1YCpsan/I8tqo+BwV5GZBQVh8HvKs7U4KuJ1kBkCaQA4oiCObY8vZs/f9fP4gy4AIIgFT+ySZ5enyTQP9DDM6+6FHk2uaJW8wLhofuOcfdd9/HgvY+x75EjjBy8n299/hE0jrnuxVdz/UuuYfelfXSvF2wZ1Pjt6E0iv7SfzG3nsXhxBuvQlBkxYpiYqNK7tWvJ8VazubDgYG8RuU6JpFFf/qcCDj7wno9Scj0kde/vImKaqlKKyudmyMv2uqh6y40xBhHBVtJcPLUa1lpKpRLOOW/ONQaTci69vT3EuoA+JK1DHQQSMjE2BQlI2PyuBtb1oXoCyDxrV6OGew1EUmqdFgqSkLklOhOT2DrbL13Hn/79T5OkuWtNh97Lg9BIZiXw5zN1SJan4ZIrt3DZM7ZA8lKOPOL4/Ce+zJ23f5fZ8YhbPvMVbr/l61xy+YVc++JruPJ55zO4RbDd4NLlLl/1OlC7iT60uYSEiqs51BnElZgam0O1a8msdCdOZB5eFP0mioDQDvhab870Q9nPqR7EAkceqnFk3wjdyWashoA0cSF5Gzs0UFVxsQcBU0i6k4EFkIsx9XodgFKplHMtxmRo3kymMHzU+TCUVgO/fyYptCu9bGCgz3OWrXb+VUb2qg0//vanuhFnD6W6BInBziF2DkyNpDTFVS89j7f999flya9NAJkPQpZ3u3hkM1zSE8W55I+CD4iBvg3Cs645j6te+Ew2bB9g78OPY1w3MyMJ93/nUR743mNcfPHT6dsgXn8hra1ueZI2v4tCGArf+NKDzIzFoAG2FLJl1xbOv3wjuoBeRNp8b1dvky+JAhFMTyqliuAMJDJ/X0pTe1Olcotu2ls1ImBS+Y9vege22o9JujC5QnJ+a+adKZi4Mt8R51yuE0mSxHuaBkHOdTjn8msyYKnV61iRDk5mnrsTAZfElMOATdsHuOYVl+TvLbv+kXuOs+++o0hUxmiAYFiNZprVyT+dMUqHtjhE6jhbJQ6n2HFJP2/5ox/LAQRxqHbaQ6/50UnMyJWiBtQoThSHQ8uw+YIuXvlTV/Hf3/2fufK5lzE2NUpUdTx27xF+981/xh1fOICN8CtbC7u/EOVtCVJvSQE0QOIy48MzTUrb1qO1juK51uvy+lJm7tMf+g4fe89t3H/HJPURxVYhiPGBgRzeWpVuelNpbLvPAgxl+iBxEBh49ztvIZ6oYJIKxqUA0uxK3OZNZIf/l4kzzjnilLsIggARIY7jXKmqqlQqFSqVCsYYr0sJgoLyq0MfA6jDKBgXcHj/sbbX9Pf3Uy6XcYlrCSWwumhNnFmA1ERsv2SIt7/rV72C02YrZjpac56+8zTOF9gOg0TS1TGT0Z0DjNC3U3jL21/J0551Ee/9n/9Kb2k9XdLLu//0I9zzjSt4y5/8EHG2Q0yb61qQBIY2DaIcQ1TQSBk5Poq1nZ+ikw6kkzgjgMZw5BHHv/7Pm+ixQ3zhfXcysL6XS6+8kKddeRFXXbuH9VsF2+stU86mYhoNX4q8PPV+IXd/5Ri33fh1upMNCDb9vU2r2+pjGq0t7u61qT4EGqJNxpW0Xuucn+xhGM7zfm3XE4LX14yPTDRLyun3vt4+r8B1yapeztdApA05cWBjdly4mT/6u1+CUFBLas9PRZ786pVhP/3eFMHgV15XglJFeMmPXUhP7y/ynnf8Kzpboqc8xB2fu5vYVvmt//fHSIxXuC5mMSli39CGgTQKvIHYMXpyrO2TLAZKnZ48M2n/r//6fsJ6PzbpoSepEJ1I+PbND/Od2x/kvX87w0WX7+HK51zBJVecz5XP6/UiooF64gFFrO8XqyAxfOyfP0OX7afkukhUfEjCrK2uTYtyBXTzk2QAkIksAEmS5ErW7LfsvN/5a/Lv0HlRyKqVlLUTJwQmbHRY4ba+vn5KpRIw58WljiWe3bQGIm1IJWFwczf/6S9SAAmy95/xyysvt7bqB4xC7MD2Cc99xQ5KlV/gL972TrptF2a6izs/8xB/l3w+50iKRpt2+oucDGzYvB4vbhk0UaYmZkjq+Bw4LbSY8raVXAJSh8//y0Mce2QKjSwmtIQiqBrveJcoljIH7xll/31fJKzcioSOZ/zA03n2857JM56zkd4hCHqFxPhdtDd94EFO7J2iNu0oVcQDlXqfmuVSg+vzuo5MTClyIBmgGGNyDgSauZS2ZWcWMy28DzE8+t1RLrxuqEn227RpHYcPH6Ys65f/EGcRrYFIG3Im5qd+6bXYjeLFGHFe6bXstWIhsFm4LJMqGGOFoAee8/JN/Pbsr/Led3wUkRK22j2PI8E2m5o7VTu0cSBNpwnGBNRm68xMK919S/cVKZKivl4nRDPK7AjceuPXqY0p3eV+rLGghiROCJxP5GU0hNRKIg7EKt+99RHuuu0eBjd3s357DxddvptnP/cKLrt4iM986BaiScP6wY1UZ+uY0+T/M5AociIZWGQeqnEc5xab4vcMfDqWPa+DhNBW5imP+gfEK3Fj4605q5QVWQORnNKVRpRdF2znqpdvhjBlq9sM2EyX0QkoFh4QSxgt6SVGPEeiIVz9sp18767L2PutQ0weq2KqzRxJmgIlDzcwz6ky/Xv9pqHctVIw1GoRU1NK15Z2ttelNDWN0+GgK4Z3//UnGDs6Q0gF64Qoqjddr6rY1GvOincSc5EjkAqGgKmDNSYPj3D4vnG+/LHvEtcdfeV1xLVpJutTVMpdqDGnlS+nCCJJkuSK1DAMc9HFFfbGZN8zhWz2fTHKtCNjI+Ps1u6sw8BB36A3K69mpSqsanXOypGI5zKcxjhb5zff+moIvBgjaTSy5mPxl77wFcsb/SIezCoDwpvf+kp6NgnrNvYRaIlKNMgdn/sud958BBuBukLp7aoRGNpY8rtHDYgRZmeqzE7O5Q5oRRGm03MUrR6Cr5cq3P6Zvdxzx2NQC9G6EtdjAmOxYrBiMJlxO90gpE6QxIdrNC6k5LqoaD9hvY9ydZBgahAz3Uu3HaS70kfJlnFxgYPJLDztHrQ56GkTJUnid+2mgBAEQQ4g2TlTcIsvTvZMzFl4HEjhMBw6eLTZrCVAWQjCAETn+bmsJloDkZQMgpOYK64+n6GneTEmBw3TOEjP5VyIHyPzjxYfgqaD9N4Cf9tOj5FVYzPLskB5g/Bf3/smZqMxursrlGwZqZb4yN/fyOQBxaYTSmkfR1wFwjJs373NKy6BUljixNFhPyELY3lBINSC6KQ+yvqRR2vc8qlvwHQXJgqxNvRcUcr+5/4WSL6VXsTgY74aH9JQDcaEWBPiEoM6i5WyT72QGES8WdfkGqpi2Cjyc7lX2yJanaKSNVOmLsZpFM9n5mKTH2nVxg8UVTBOqM7U2jjHQFdPJd3LtAYiq5ry1aYEP/jDz234g7QDh+xosqu28ZhIrS2dDmk6UmVq8ZLc10RznBLBtyuAq19wBZP1UVQTesMBhvdN86F33YwkbXJiZZTVUxGGNgziiFF1uEQZPj7irSDz3S069JnnPgTPCdTHlBs/dAuHHhrG1MuQGAITYI1BnUOddwbJAGR+3LHGhFcHRgLUiQcVCbwlKT1EFuECcgDpTMX+7/yMuug1batO3dhFTP6ss9PVtuavoY2DaWAizYF1tdEaiKQUu4TNO9Zz+QtSE0W2lGdeT9mRJ41hAcVHNhM7sCJLWHUkX21l/qQ28Kbffym92yxz8Qyilm4d4Cufu5Ovf+4gJiZ3vW/rUW1hfZo8yZs44MSRYazpuDl1fvvEbzIUfL986eP38e0vPkig3dSrESYPad/8VM2fRVqsXwpchRa+rwC1A4mF/UDmU976tChRH9MVpxiM3/lbjD+UHuuG+tNQBMXnX11Ack6DSMb6qjoS6jzjBy6FboESXuVs2xwGL1+0nSRFauVOWjiVZbRxHhmgR3jF614IZT8AozlHmPTw6Q/9O7PHFUkWwDhg45YNJNRRfFDjE8eG58k/rWJVk65E0omSwP575/jSp79OUO/B1ZRSqZROQu1Q2ulSQd9ROESliZNa7rESVBRORcRzXyrMzdTaypcD6/pINE4tXO366+yncxZEPKPgB566GCnVeN4LL/bgkTo9LTzaMuXGysqySxrgArHAj/7csxja3g+lhHpSp68ywKEHR/jSJx4kzpJS0cKNpAWu3zSImti3Xw1jJyd8wGZtuqztUBZIZX1gDj75/s8zN+GQJCAwAUFoESuF/llJAGl5kIJm5HTrWCG+xi8Vxc1AGB6456FGZO5ChQPr+nHi0EwZpSvbS08GnZMgIi3fY1ej1OfYskcWUCicPaQCGgAhvOanX0lSqlLqCYmqCV0McPsXvkF9uhEgB1p4IIH1m9chITgc1limJ+eozWh+bScS8JubUzHvga9Octet95PM+mRNQRCm4kEnTmTlqTFdWxWshaNF39MJqE+HM2k8bcsIcyDO+A2ELTQ4NIANBbGF23R15aE5J0GklTSIKQ/GBMvyk5AlKfDOFBnxKprn37AD7amCjUicEpoSh/cf40ufv5vajL82U+8Up/XQ5rLfBYfDYJmbrDE9QZ6TthMpqT4EmDmuvPdvPkIlGUTrmav42WZlWLpI2fomT+nNpv5DLlWS+pAAhsCUcJO05UR8SAlFm2KUrKSQdWbpnAKRdq8lSRL6+3oY2jR4Cu/tqX3JEoDrEl73868ilirW+vihlaCHO798N/G04iLmJclCYN0GH5FNxSdZmpuuMTfVCBi8kEYn2+L/D//9/zB2ZIYgKWNzv8XM63XlRZjFOIimCaoFGzSN9B75RR3QsphPyEhqMWv5jiYIiQ8ZIRFqa7hgjiSYIQ6nicJJotI4tfIo9cooc+VRotIUY9M6T0weGhrEWrNAN539QHLOeKzOW2UK2ZgSB32961pmypPbvqVScR11AlKG6152KR/9u8+SVCOME0It88S9R3n87jEue9FQHv09NwwImG5h6/YtnJicQVToCrs4cXic7VcMNdXVlhzcc8soD379AEHSm6as9Ff7BF3SYq48/c5cqIQMQPxnJkqlpM2Q5n/yptv5jEGLw8YAACAASURBVGQDdHI/FnVYaWy+88naQazDERO7GmIcNZ2l3BtQ7g3oHazwtKdfzM49W9m5extbdq1nYJuQRnFseiBrWfUeq+cEiMwbygUvRu/GrAyfHIe6eh+RVURqoGeD8OzrruBrN95NGAxiEovOBdx84+1c8YM/lmfbkwxInBdHNm/exIkH9/m9LC5gfHgS8CBS3NCXkZBG74rhXf/tfQS1XogzT05JF39pcUdfOQBp1WU1OqG1lmadTOt9meanBW7Ssw6MI9aYJKnjNEbVR2T36R0cYdlgS8KGTYOs37yVjVuHuOqaK1m/ZR1DWwK6NkjBkkd7DjfF2N6+ZXXFWUnnBIgsRi5Rjh8apu2oOospb66FF7z8OXz15m8SJxFBXKLL9nH3N++nPvmj2A2SB/3JXVXqsHvnbu5zT2CsYDTg2KETiO7JOZbip5Imua7DO//zx3GzIbYWIKljyXwAeYpFvfxbCiSZFCOFfpPmK5064qROPZmjb0OZRGIirWEryvY9W9i2azNbd29h+65NnH/JVnoHwPbIfJTr9Jk1p8HwMLR+dS1a7eicBxFBIBFmxuZgBug6q6WZnIp4Fydw+QvWsf3CDYw8UkOjELGWULt46LujXP689ZTKQAwTo8rcuHLnrfex994ncldzSSxjIxN5+YVxnnPgxsEjd85w39cexdb6Mdic7VdHM4CcyTB/HYGqwHkoaYMKZhkUNQ4TCDY0RBpTjaq4lMswgTK0YZChzdu4+Gl72HXBFnZdsI1tFwiE4sMbBmke5ZTLSNpgSPa9oJIptKm5xdJT+J6KNV7UWj2r2TkNIvk4d4a+cIjbP3uUF/zctiVHPX+qqMglQBoRLIALLt/N6L6H0bqiiRIkFW7/5Lf57u1dTE5Ms++xA4ydmEQjIaCMdSWsKyHqN8CNDY93rNM6mDimvPed/wqzFUxi81a4JJswBX8Nlc5zfcV6oUCaLgi54tRf45zDWKjHNepJlTpzmC4oVQI27hjikl172HXhdnaev50dezYwtFEo9Ut7za00JOFiitO8Ca0AUfxS1Le5ls+UfFvT+CVLdR0+C+icBpGMxBkq0s2X//0OXvDa12ICaR5AZyEVgcQE4GK49kU/wDdvvA+D4jBoZHjsniOoOGpzEdWpOnGtjHGGrv5+nHNpKkgfxu/w/mNN+oVsfBu8NfjzH7uDsSOzlF03ms4ml2j6fX6H5VO6dbYts19bxSs/mTPNhndakXQ7r8OlmeW8LiNxdYKyYdeeHew4bys7z9vG9vO2svP8LkoDeMAo+4dU8TqmJKujHTNQaLsUOY2iXqYIEOl3nVZGjifsffAxHt/7BPsef5yH7nuMLruRubEYG5UJYiU2kd8MGFgvZhpz1vMk5zaIpCNTMBAJh/Ye55aPP85LX38+9KXKsdVA4j1Yn3HNZs9uG89KqQqTo1Vq9SoaK6WwTLkUElhLku6eU3xOWiMhYyPHiWYUKUnTDnqTwENfnebmj9yBzHSjkWLVNCSGnFJxohAFrOg2dTqToQgk/pE9WCQ2Qq1PrB7pHIMb+ti2ezOXX3kRO/ZsYed56xnaaRqm1aJ1JD3nKJjBHWnoyDbdXASQ7MgAIwFqQE3RKjx87wSHHj/KgccOceTAMY4fGmZ8ZJJyqYQxfmD1ui2gIUNBCZUuCAOMZB6v5CLN2a6qOydApHUAIn4/Q27yRMAJUg/58D98kqdd9h/YflXGt3JWcySQPpdRCIWLL9vDY98ZBhWsKWGNYKVMYmLCIGzkWUl3jeb7hNUQBhUOH4jZMdicZUkc/NPffhCdLVGbiugOSukim4ZYbLSiU+t8OU2f83fyarqkO+NyDkNFG9/RNER8QqkcsmX7RvZcdBGbt2/gaVdcyJbdQmVD4b2lWxgS9cDQpNPMRNb08mwvUH5KCyCRPUbL9+q4sm/vKMcPD/PwvXsZOznJ0f3HmRyZgXqAqwnUDWWpEJoehuxAvpGzuE9GMTgMLjU9Z520WvLhnRMgAvOVpVkm9vylqWDjCjJn+Js//iC/9fafZduzjVemnSmOZLnjQ9qvSkI6IQxceMlO9t13FFcPcSoYNWhCuvoZnFPU+J2lDp+uQsTg1GFMyNFDJ9l1xTaftrMg10wOzyBRhZ5KiMaSizA+hMF8lFXAmEIB6bZiyXw01IcHyHwvfGCehEgiEokwZYcpKdiYUo9l++4t/tizhe27N3PZ5Vsw3eJHsDQfTmlEDmjRXWjh0rb9mIkmhR3cbkY5sl85emCMowePc+TAce748l2IC9P9VwZJKxOtYLUbwSDWYMo+rqxDqBdGYFHnIZlVS5vb2xDZzm46Z0AEml9Gthp636T0zbmAILJMHqnyF2/7e97w26/jqhs2NZyEVpIjOZWRkc6A9uytX1q37dqE2tiv4AlErmFfiZ2mXBhkCbUyTkTEgrOMj043zMCF5x0YGGRsOPYKU4d3usIUEnXNtyxIvpR7qwg46i7CuQin/kg0IixZbGgo95TZsWMDm7dv5NLLL2Drzo1s2z1A7zZp9rsoen0WeyATSdocGYmme4rSAEwm68xUhzF+XBk+Vmffowd44tGDHHz8MEcPnMDVBFc3aN0QUKHsNiOJXdQI1cYg0/ghaxPZO9VUxGx72VlL5xSIFClV3qcsefoibRatPCAZg/f8t49y/NgL+aGfuhwzIGd1b2XzafvuLSRSL/Dh0mDZM/hRz7b4AEg+141gcA5GT074DKItGyL6B/sYlZE0slhDVm/Ur3lOYjHZlHAYESSA2EXU3CyuFGPLjm071rF5xxCbt29gy85NbNmxkY3bNlDuglIFbEkwqUl1Qb+LNn3gXCPVKOmjZNyFdeDmwDjl+H7l8L5pDjx2iCf2HuTQE0eZGJtiZnIOa0ICE2KNIQwGvWiRiHfac4I6s2IzPBuLxUyJ+flVQGfxtDjzVNSR5F8t4CxSszjn+PQHbuXk8Ele+0svpndzBiTaEKIbd55CxadHzRYLv4Rt3tGTrvqZ2NB8bb7uaWFGZlG4EmV0eMInnw6K/QN9Az1gTqYokbqFG8AoahWsj4ofJ7GPj2EcQdkQlgz9g71s2r6V3Rfs4KKnn8/uC/op9QrlHrBdMi/8QgZG83PpFhS3GfcATSZTEQgE4hrY0OtCJkeV/Y9N8Pgj+3li70FOHhph5OgE9emYeA5MHGJciE0CAulngEE0zvovaXBtWWS2Bt+wYi7rqwUw2tE5DSIZ+ZUgHbXiV1JVhShAxyt846YHAPiFt76kMdBJ0gDPmp3gydTAFgFE8XI1Cl0bBQnU76spzMKielNoBO9RzXw7fGljJ8ZJ6grl5mfZdd4O7vnqXpwLvDmUmBoRcVIjKAumDOWegD17NrFt92YufPr57DxvGzv2lAlb/S6KHEXh7yJotM7NzA8F9WJanjzb4bfYxwpzcPyg4/DBkzy+9zD7nzjCgSeOMjUxg4v8fYEJcZFCYhDtIsBgJSBQi1ib6i8aepssR03W0AZoFPQ9TX+fe7QGIik1gIRsacdKCY0Dkkm49ZPfQhB+/rdeBP2CGEvnlFFPAaU4JgZsaNsGaS5S7gIvfru6MQZrDGMjE8Q1CHubyw77YdaMUarUsBXDzl3b2L5ra6rw3MqOPf2s3y7e56Iiuf5CxYsWTQDR8tn0GK3WEC2c17ThVZg4qRzZf5SjTxzj0L4jHHriGEcOnqA664hrBnUlNApQFxDaHipBiJFUQ56xOYW6MhDOxFtX6EEpmnEaPVjAkXMXQGANRJqooSfxMj4IGINxZQZlKzd/9JskccIbf++l0IMPk0h601PRVmhig1N9KevWD3JitD2DnO1edT4aMjhwKMYIVgPGTo57ECnc4wxcdNVOfuI3XsEll1zMeecPUSqDyVzBYR6nUczWsNQ5lvtcxKQeX8CkcnR/whOPHvSKzn1HOHrgOElNSepJmq/GYiQgkAG6EnBicNZ6RMXklo88u13aqDwlahuRZP655r+XG4P1+5nWQKSFinqAzJnASEgyBxW3jm/d9jDnXXgeL/rpC8gC0DxpGJJNStp/igES2LRpM8f3Hm9uV4cxr2kyJguIsUyMTRLVoKtwizNw0ZXr2Hr+cyl3CTZVdroOz12cXwJ5XpgccltNJ6kpNakqh56Y49C+o3zvW/fz+CMHOHbgJCYJCQmxWkJcSNl0YwmQ2OUhBxUf0kFNYzEg97PIxJCG6CFNosmpkHTs03ON1kCkA2UDUdQPw1gVMWVq45b3/s2/sWXHL3Hp84caAZ2XMGFXrF0dzhvxbbnn3gcQNjSbNotzyJ/JXdcprMjd3d0cPlilb09XDgbOG3PoGvDXLSYq5Y5bmanY4c3CKfNDHY485jj8xCSH9x3l0BNHObTvKMePnCCuJ8R1R6XSjaihxJbcF0MxqAq12Od4ERfkvh3ZY+S6ngw+MlApch6pxUoWYJHa/ZaPiRSchFNLO/r9RmsgsgAVzcBe5xpgkoCg3sdf/9l7+F/v/13MFpkXaOaMUKuisfCZqw4Uogklrilhh6B1WS4VwDuZiUMlkx4EnGHk5Bhx1EWc1mlMGgCp9VHTCVvMhJGdx0FtWhkfgZHjs9x7z4McOXiUA08c4sTBYZK5ADdn0ZohpEIoZUKzDotQMYLUvTNcXmBhtnpNlOTPXzSU5d2UWpFwxa4rfDsFPUYrL6Mt585VWgORRah1gIiCdSEy3cO//fOdvO6t1zQ4kVwp++S0SVu+i8DwMUWjxT3j8nsLyZlELCSW0ZPjlErbkJbRkZfoPc+xWSE1qE4p4yeVR+4/yr69+zl04AgHnjjM9OQc5bCCJkJcT3CRYmWAwAVYCaFkMdg0x04x8Y02kPFU+ubc1nU+qbQGIqdAJgnQmYBbP3MH1/7QlWy7stIMJE8y5RPHwfDRGQItI2rbX0QzN1I8ZzDgAkaOTyCxD6GBS523YtDYm0lxcPddXgw5+PgRjh48yfCxMabH5ugKewilAs6SRBXKroKteSVK4AAMJvHpM1FJHdMaQOZSeFP1emsnWca8VloIJdbMrk8mrYHIKZAgSGyYG4/41Ac/z6/t+VEYlKd8168ofPVL3ySkG1XTdL6draHV0wEMhjIjh2dgUpmbgRNHlP37jvDE3gMc2HeY44dOMj0xh8aQ1B1JrIRBicCU6bU9SC1NdYkhxPpE3+k+e5tt/jOZOVryxmR6Bot3kHMpkBht5M0xZPqYFqvYuS5PPMW0BiKnSMYElKSLb9/+AGM//2rW9T91IJIDgoO9D+xDkhDSrfqd1mIt6Ay8DsOBg0DKjB6b5pd/7K9RIlCLJIE/4gCSMhXt8hvOoOCWrt7TVVIuw6X7cUyjhUULiUK68Q6QTA2aN25ee+dreBo6idQHrQCKmb6kg5mbhp/MckjXMKstnVMpI1aCsm1rftUsIbMVPv2vt+Umi6J/xJPXJh806N5vjDB8ZAxiH1knV3J2IM025KG5S3fZlhg5PIFOd6PTvTDdjc6V0VoIznqRBwEjiBVMYLCBwVqLtRZjfLJtsUXZLhNR/K5dl+/cpWkmq1N/LMMHo6Hbmf99oXug8a6WejTdu+QWfv/TGoicIvk0iZZAu/jqF78NM8rslDbSmawUkCzBD8U4kAhu+eRXcDWL1QAjZr7Fog1pYQmXRLFqGT85CbUQU+/CuApWK1gpE0iZwPqgOiIGxCDGkO0EzqLKO9WUsVF/aPOhxaNg/m08bLbnRzocNOt4siOb8Pk5OUNHc93nOq2ByDKpyUdKDSohSWz47P/5Ht2Vxi6UJQ2uTnOkab4sXpok8Og3Ex688wCBq3iFZean0ek58ons5ZmcS4gThgYGCYzFisE443f1xkoSJdTqMc5JPvGjekISO5LYFQBB0rJT7kJpBo78t86HqHjuzoEpsAMmPVrLc/O+s+DhFvl90XuW+o7PAVoDkeVSOjPV76NHxCCuxKc+fDOzx9RPONLxv6Jijc7/S9Ok2hF8+D2fYG7YUTbdngvJHKsWEmfytI2ZuKG4JPM3Lza+GdkS53BOcYni44u0HhkYdAKQVGRJj3nnT6OHlnO3LvNYo/a0BiLLomYZP5uhVkvMHFXe+86bqU8oUdW7YGdAcvo6kka92UZ08NWbCD77/gd46Fv76LEDDYXnMspsTFzNFv9UFGHekdZc+GwWQeYfCwBIS2l5y5YBJsvVa6zUsUYNWgORZVM2uBujybiA3mCIu7/yEO97580Ec4qrQhLR0BOsSL2ZpO9NnyaGQ/c6Pva/P0OJHkRtgwOh4F2qLQeZpNRIFiNkSaiXuO6exkzK7yxwIkXkWUAT0qakUznWaCVpDUROlYqaPISuUhfxlOGrn7qbf37H7UQnlSD2kzbJ9onNW3JPodpUIJcYpg8rf/snHyQZKxNqpdGsQtltX3ALn34m80wthZY6rWWBv85MjWu0FFrzEzklygZhOqERpiam6enpY7YmfPe2hzhy5AivfeMPc9nz+n3YRfWZ6gLbXMJSyKU7VY1YvyM2gQP3xPzV29/NyN4a3TLgs9G1tjIFrnZAcrbJ+EvpD02vKwh0jZPLokZJa3T6JL9yyfvXenLJpCAuN5pIvpSnv4oioiQmRsM6rlLlJa95Hj/1puswfUIsPoZrEDS2iCw+/hWXOEgMBmH2kPLNLz7MP//dJwniAaQWEJhy1rr0s8G2d5I69LTUhd5CcqokLZ9Lpebn8yXoqRS0At4eTzX3djbRGogsizR3zmoHIkDD+1IUF9aZ0mE27OnlRTdcywtedg3rN/hQgk3R49tNguI4d0ANbrvxPj7/sdsY3j/LQGkHU6M1b4lJ45qsgcjySzpVWgORBq2ByHIp50S0PYiknLKK4iTBmQiCBCcRpe6A8y/awzXXX8X5l2xl6x4hWNeGJUmLPfKQ45H7D/HoA4/zvbvuY2a8jpszaD2gZLowEqTJqLTpVppsOO2eobHR7RQ7YQ1E1mZNTmsgsmxqgMc8EJk3otOuFXIOxVmH2hgX1oi0ysDGPrbv2ppzL95RzPLw/Y9Sn4kxroSJw3TvShpU2IYtu3CbX2HGiSz0Yp2sgcgaiKwMrSlWzyhlyhLIdnyZRHDOYOKAEl3MHlL2Hj5O04BWwbg+ygkYDQiM9UqU0JfZPGfWRvMaPbW0BiKnRRlIaPPfnbwa0o0ddoFr8vs1gwvJN8o1A8YaeKw8rZTp99x6N2sgcsqUmQjPhM+BQp6O8swMyMUchE7fOW61UYsXyml1+7llPl4DkdOiMwwkZ5LOVLNXJbVwkKfd9eeWH8qax+oardEanRatcSKnRKtjlenEaOQt72RhWW0cyrJfhaTySuFBTzH6e/vmnB3jo1UF36CVbdsaiCybiiLM2SkTLDaEm13H25CenSxqa89n506JdLmlFAFnoTs0za3eZPd/0kmK3odtfl1JG/UaiJwSnR0rzUK00LRYzRJ7OyA5vdKWf31nG5xvUZo4MXf8e7J7OgOQBTmRUwky24HOxgVnjdZojVYRrRgn0hpEZrE8p4sFnTm9PKkdS81qX7Q9C9c//35XiMux+P3t2rRcOnPr8NJLbi1hNfI2nUmK35akM1lYhFnqm15+LzZzSMur7fTplEEkc6rOZD9JkwyBn5DOLexp0GmSZeezslYOTKTl+3zQKLa/WH9zMuiMGn87bf4usOjzN7dp6c+YtaX5c3m0NJ3JUkppd84t8PvZTAvpPITlT9GW8bXMliwXyP1+rsZ4ejKzBJ8SiKTTPP0uSJomQFVJ0hidZ4aTOFVqnazNUrVp0/6MMjAQ0wwqWWoDTRN+Z3v7jfhk04vRvFfcmntlgTt9XCJft21JvSeF62g501TdIm1beCB3Ar9s9mmbfURnDy3OL2R7nlJPYUnHs8q8Ra7xmd3fui8nX2aXxYksCiSpPsOloG3SvnfOkbgsmRA+Kj+CqKQ7vn0WAGkobU77NZ0iJzLf/VpESJKEJEmWuAp7yiZw8bP1BRXpTOm857U/BQMPGtlVvtYkScjD+EmWZ8UiIlgxi74TDzou33SnOFTSF78AmEjGVqvgXBp+0SUEYnPOxA/A1vuXM0qWPrJUNd1FnP3tUOtzx5gFrQNLaEUhHqvk72F+mzLdoLa8o87g2bhB5t2XTl3xPekkwdkIR5xe0bDGiWm0SVTyyQrkzJggSBrMupBqa8H2NQzE0hFInCZEcQTikEAxgZBoQpTUCcqWoOSntYuUJMlSnxqMWgIXIBhETdux3Zk6j4dTFmeSJKbUbVm3tY/u/grGin+oFAgWI+dcOmH9yp8lPnrooYfIdrKSWIxaxAVYZ/HpGbPXkQ2Hzi+m019+mkaEPcLApm56+itYm+5oEc9ZTU9PMztdpzoWMzdZx6eb9sCiBowYTDZwLNS1yradmxnY0Euc1PLB7wttfkF+MDoPGFL4RNEFw7NnA7PE0UNjzIxFSBTiYj85RNLVTiCOI4LAoiQkNuaiy/fgJPLFpBxXHEVEUYSLDcwGuLoQRTG1ao1kgXWgwUA3G4qd+p5NbJVLn3URSNy5ENoMS814XKVWr1OtVqnOValVa1SrNeq1GBKDaIC4ElYDxFi/tyhbXZsmQwcgKcSS9UCSkJgElRhnEtQkhBXLlm0b2XPRRWzZtomenh6mpqZIkgRrLKNjY0xOTjI+Ps7UxBRjoxPMTVV98lApYVyIaIBRQbApKBQBbiH3AC1c4ceEMy5tX4yaiPGJYbZsX8+u83ayc/d2Btf1p3NQCUslgsBSr0VU5+rMTs8xMTbFyIlRRk6MMjE2DUmIaIhxAURg0+zt7SUISVktmXcaTgNErDVEMsPzbngOP/yGp/kdpg5v72m3GCy2sCX+SJJXElfhe3cd4N8/dSsHHzlGPGlwtRKBljFBCWsCktgjfANI2kCGNv3V+M3EqJ2jb0uJP//ITzR6oTj+DOik8js/84/U64q4EIvnkgJjc85dRHzMEJnhzW99FduuMdn47Kw2KB4Z3i62EBR/j2H/XY4/+8N/8FnpXOiLzlltR5LEBCWl0m0pbbD83rtflu4CblNeBL/9I/9INGPBBeAz4tKep2koGf3GwOKDAeL4yV98Na/45a3N9S2JPWtzvYOkqhx+os6xgyf53jfv45u33Y3O9VCfCykH3RCDuNaJ2cqiFEFPERLQhCA0JFKjxhjrtvdw9Quu5LqXXsOuKypthtXmzu1P4IG7Rrjtc1/jvjsfpToWIXE3BCGaqN982fSwiwGeIw85YROcrZGEs+y4eBNX/MCF/MSbr2u2rc6fAvPD9CsQK3ENvvzFvdx52z0cfmiE2eEY4yoYglwumx9qotHe1sX7lEHEBIaazhGHU1ACShArGNOQD6XwPk2nQdTETikWsGp49ot385yXv4HqYeW2m+7mlhu/ytixSaJaiUrQiw1KJFE20Jtl9AxAOlWZmITITvIjP/V6KENsG3ockTSbGxAOCi961XN4/19/kk39O7AuwDnvTEQucjlUYwgikkChBJH41LZN7yFtVMZCGvG/Z9doy8o/f5UufDeQWFATA65JBARInMOIECVVpmcmeOOvvB4qkISNsrXQP0bg2pc+ky98+A7K0odV23YDXsP/oFFOQ/8jJAqI4mwVSuDKSfO9TU/XGVVatQrSJewaKLPrih085+U7eNMf/BCf+5dHuOnfbmVmdIJy0INEFhcVYt03gVLz+DBWCAIBEzNZH+G8p23nla+9gat/cCd0CZTxM2MBhnoeJgCXXbeey655NURw4/++n5s+cStuTqEWQgwkZv5NTe0r/CYONRGJqZGEczzrust5+atfyCXX9TTatpxFunBhkMAPvvZifvA1F3PwDscf/8e/RWKQZKFCtFCCtA7HU6FsqT1DJBD0ggZQ2S380Jufxdv/8Td44WufRRJOU4tmSJI6corOMioRm84b5LkvPX/+b6llyTkFAy945TNZt7MLZyNAMSaTmxss8YJ9kc+X4tRYwn2LPkPnwwaGMLAk1OjfWuGFr7pw4UFm4Ed/5mrqwRRO61QqzTFbO7ahRWfl8+uu/NhQwBlQi1+wKvDKN13M2//+V7joB7ZSMxNIyWGCTJ+UrZwNsPI6CwDBuYTp6hhJ1wyv//WX8Ufv/wWufu0uWCfQw6IAMo+yvrV47qsCP/KWp/P/ve/XOf+ZG5l1w0iYKTsX6x9Jx2BMHMyx5bJe3vZXv8pvvuMGLnlRTzPANT/i0smAC305rgSEMT7rWuvYXNo4PWVns0ZW0kYFTVWmXzIFd8d25X9nvL1vkgNiEjSAWJTencLP/9bLeP0v30B5SKm7GcRqCiRLG7ROFYcjMRGXPHMXtkfAFDmQQkmqJMC6ncJlV52PMzGJS1B1TRxEa68Un1kofFdJWVoprMqZ+NEsATb1V8aOtuk7VR8J3jnXJkFUQlARnnntpdghWfhNGygPwYtf9Twm58aYmZ5eJgykI1lI9U2d2ED/jrMemJcPpzheaHBMZF0hfjFPAohDGDpP+IO/fB0veNXVJOVZpKzYsLW+DEAURFBxxEGdoV1dvOUPfp4bfulqCCFWxWXDr7Wv2rwLacXLFMCd9e2rWyhtgLf9j9fyg6+5lplkBFNOwBZ5PN9vPvOgI4n9RHZBgvZWuegHtvOf/vINXHBVv+f0DSSSZlYsMlutc6ld1rFW0SZ9ztjFREmNehyli6dbdhbClfFYbUHDPMGZ8wCXpTkgoXlStE6QwndRiOOEmZk5bChU6zH0Ca9641Vc/+orCHpj1NUwsuAukLQ9WhiMDtsFv/jWG9Buv8K1jnjFA4sKTMfKG3/j9QyPncBpQqIpYiuFhcD/H9UTiMEqhMYvGMXDSmERSXPNFt9XDkwJnv2N0s82R2ABtWiiuNihicsnoKpDjaPSZ3nN//VKCHyRxRxRTc8rQK/wih9/EUNb+ih3B1i72NBoVe40dCW5WbTwz5ukIakrSQ2SKv6zw+HqpArjQrtpXn+cBdcNb/jd63nxjz6Pyfgktpz5Q1SP5QAAIABJREFU+7ToQkRQYoKKEAVT/PLv/ySXvWQDBF4MD8qCsdl48eKoFsdt1vdJ4dM1j5y8WzNRtSRUnfKGP3g+L/mx5zLlhhGbFuwaC4uP4+8tbVFUwwVzPOMl5/G2v30dlS2C7Zkf32XePM/amrVtoSMTtdWP85mZucK46JRMvTOduseqFl9ng5nI9zXFcHT/JJPH5yiZCmJMvsR4C076co3S29fD0JCBHsnbKyF0lUv5uKx0Bb7cPviZ//BSjj8xxoPfPIhNLKJlwC5qEnYkUE645MrzPSuXK4EbUKCSJbkGrBB0CaUh5VnPu5z9dw8jsSEwFpPJhQqihoAKJw6MY8uDaClKkbNhtvWN8at0//ou1u/q8srbAheCQm1UOfjYCUwSYlyr4AuIIEkXD33vODYKUx7fP0NuGrcOtRE7L97K0JZUFG/oxea/SgGxsHmXZfcl29j/vVFiF9CsGe1w4zJ4aYNwaO9J5ibjNN1n2rDsHRRWdRsEbN/dT2VQfAZBwzxdgAMvQlTgJ3/12dx/zwPs/+4wXWadf9h0MGaLQjWaI4lmeeNvv55Lrh9E0/ICC0lCrqui7g8BJoeVI/tPsvfhxzFpilJFCcoBlz79InZf1If0phytacwBY8CUITLCXFV5w+8/n0f3PsbxB6chKXtGIDUTG2O8XsskVPpLDOzp5jf+5FVQTsU4X2m+yIim0keBu3j82yeYmZxjbGScmelZSqUScexdFnp7e9m2bRvbtq2je4NAr5B5FITWMjAwSFAtY6NsLC2PzsgGPKN+Nf7Quz7Fw3ccJIi7KPo+WGsQgSiqE8V1jBHK5RK7d+/k5S9/Gc+6YQjWe1NqPq6KC0sAb/zN1/I79/wpzBgqpRJx4pNDSWEgZjenGRXQkmIHEl7xmpfMn5vFZUQhTmJULUFgCXqFl776et7z8IeJJy1hUkLENkaMs8hcmX/6y4+hpo6ajP3K2KusAn/c8JMv5sd/51o0nRCStjGZhC9/4tv8n/feRBB3e/NbQYmVl+AsLvIBnI1aMKYJzp3EdA0JL3rltZhuIZHGypWpZ/LHL/Rr0C+8+Iev5z0Pf5Qk6sIk4coGJK7Bp/7pi9z79UfxZvwCkBTARDA4B04SLnr6+Vz30qu4/obdJBXBhSBBMwfvLJgeeONv/yR/+IvvIEx6CcWmplxPThOkojz92vN4yY/vAAtRAjglLAnWQsZkisKB78zxiQ99ju9+4z76ugaoztbyzlJVL9qazxNUDNe//Bp+4TdfjPQI0ku++U6BIIQkzSD2y//xZ3n7r/wPymEZceRiX6KJZ05KMdXyNL/3e7+eL3LF58xfVZrE/YmvT/L/t/fmQXYc54Hn78usqnf0AXQDIIiLJHiB4C2S4AVCPMBbpG7JlmWPd0dr2es5PJ6xvbMRGxprwp6Y2fWO7Qlr5FmNLa1semzJlCiaskiKNwkSFMH7BEWCIAiCAIFuNPp6R1Vm7h+ZVa/e627ckCI28CES3f1eVd755Xd/9975CJueeAlFVLDLzlpEFEnsL4FWu401lsHBAZYvX86ikxZw+a1rOGN1BTPliHWCUhrRc9to7W8fHDsvXgtRViNqD5C0+pEZ6hmHdpYKFozDtR3bXh7jGy99h9af7uPXv/ILXHzDKehByYOSFojBOZh/hmLdzZfz+PdfotVuBZVUhwTvbU0EVGTQ/SnnfbTW9YA4kBSe2fgyF1xyHknd26SoSApe/IIrlmErDTJiLHUcukMSWoWyMbGNEerkO7GwB8m3QtD1L+hf6j+WTt+cA61AtaukezWulaBs0pkt8aPKU3orFaGiOJw9X4HDYfDqwPqimEtvWEaagQk2K5HyU7lxw6tcfsU5/l3ls/MZ69u/5MbFfPMbbdrTCrExgqJbFXF4IAFbNvdazN4EXORtgXoS8OQkvrUKpxyvbXiPF3/yOg89cAqf+Z9u5ZwrhzG2mwhyQBbByvNjrrr+Ml5+/B1UZj1SCJBmKZV58LFfvA7XLz4robEkiSqIagFGtzju+va9PHbPc0TtfupuMbQTqtBliZzbRZlWxk/ue4WNGzbyhV//FNfcvhqX4Eu4IFTsOdNTzo9Zf9s6Hr/7BSKXYNq+UeccREKLaT56/QUsO1/hdA/h6JtDGSCF//DPv8nutyaY2pmS2AWoYLlctqg1016+oVwVBTRawlt7dvHmazu474EnWH7qck5edipZU6Ezh7JzY4rc+C2f7zIcEy/eAmuVsJoxDmM7JTMOY/1msVbjXAwkiFRI3Dz+/A/+jo0/eJdsr+uWm+DJc5vALV+4gTaOdgomJ/dKN36hZxcHypIxzXW3XFqQxSqQr8r6Bfof/+0feOaRVxEDkepYDFoF9UXCLZ9aT9QnOG0wrtuQSlFWYgrOKfyRzdmCGCuatrZepdwjQ5KeQxFVKuikWpQorqLjClFcQUeJp52ld6NZnG4j1TaXX3c+VMPUOc+iaQekcP93HuEf/26DJ9ltzyaowud+9SaiehsrrZCf5siRSJiWAJpI+okYJGKAiP6iaOlDpIaoBGsjlO0jSof54JUW//F3/zsPfe8ddEqX8DWfMzTcePtHUfU2RqVYMSAGI20yPcW8ExNWrenHBDYhilVxEeQs+Nf/8A423PM6cbYQ7ebhXI3MaaxEZGiMaJyKMFZhjb88VLOC2VPhR3/1OC889CFqyqFKQgzJ2XwN1956GZN2BKszXDA4JLIYndK3MOaL/+xqTOL3eK8MKGvA7jcsv/uLf877rzZojFRRzMNSwUiCVQlOV3BRFUnqqEofutqPrg+g6wOoWj9S7UNF/dRkMbu3ttn0+GZcu4YzuftEmeQvLZxQXGC9++GYhgJwBO0BoTiKknfIoTrFaZzTkCVU20N860+/w/bXG15YVFoUFflJri8Qlp26nLZLccp21K+9RTkkMtQGNdfeehFd7iaBWNj9qmXHG3v54d886C34OtPn/9Ow7sbLqQwqrGpjMV0HuLAWJV90wTmPTIqCYMX5nC/7PZdSmh8pLZ6vQ5RCaeUtRJ0rOQBanGoxuKjKp794hR+E8jdopP2uHHnT8uaz23j2oZeg7Qohm1YhoVUE13zyXKK6BZ3SdRqOGgi4KFzXcalEvhChVIxW/vPY9tEej6i0h/n2f/kee96xaNuNQHKZ3CnnRMxfkqvkrdfG0cYmDa6+9Qqivo58XwIVlssYvvv1DXzw1jhM9aGzOuISHBFOIoxTGCdYpzCeeMY6hbWCMjEV28/Iu5Pc/93H2PpSa9ZpcwKLTxWWn7mY1DY9paq9NWqmmqw4Ywm24jUwXXsLIIVs3PHvfvs/M7KlSXtvjG0mOBujdEIUV4gTf9F4CtUjOysaS3dxNkabOrHpQ7s6saqiVAyFhlJKp6dk0DmHrPWYIJEu6lfNeqy7MGwviFNoEmoM8t/+6NvQosvqTpxfxLgmnP2RM6CSkbk0yBi7WxAB0YZMTXP+mlXMX+75015jobv/9iEWJSt4+9kPeG9TVlA/xfHUsOQMxTkfOYNMWqBm8fQ95k6HOfKZ6U/iACMZqppx3kVnQk1oBwRRWB8auP+up4imB3jj6W28/fS+rkUQJV4jEcGlV16IqhhvSDfnSh1bUEqhlRfCxypCmQQ9OcAf/7s7CBb8XWAVxEPC4lOHMNIKLgUWq9qo/owr15+JlZl7Tyy893zKj+/cwNiuKZRTga0qnxV/cvwlKFgnOAkFQaymQp23nnufB37wOO1x13W4FGHPDgmrLlxJI50G7edctCXTDT5yxXnoeKaVsPLECn/8+99m/IMWOq2gJSaOYyqVCpVKhSiKCqNDZ52/vI0t1LbdpWMWID0e67kPW2fM/uf+dsCxpUTKC1aSXB9IqK+Uxhlheizlw3fGee5Hu7qokfzijStw6uqVBRIR8Zamnbp965YMqadcc8uVnX6EJ8QBBp58+BnaY44Tasv53h33wLRfPGdcMRY0XH3jWlTFYcX6RNulsXYooWMJs9XvwmHJqA5orrruMhCwzjv5OeuJkukRxzOPv8C8eCF1hrjvrkdgosMueoGgH9P1t6wjqnmrSS/Jy+FYI8puyP2w0jTFNCxmSvP2K9uZ2uu8rQad4gSchnMvWtVxmnMOQ8rCZUPMX+JvU0tODYfZtLDh/mdxkxViqaFU2Q/CldrI1dW+GEtAJsrLyExM4uo8/chz7Nw21UUtUe7fJWdhSIODJxBZpGK48NJTe+xcPIiFve843n1tJ1FWpV7pp5pUSZIErXXhOJo7j9rgYW7tXMUW3r7GWqxx4W8varCuY7J3YAOKY4lEehFIz9dzUiFQYIlIVcj2Kp568LnZE6EoWHnmMC4yOPwE9brhq+DbsvKcpZywslKMONfYkMFjd71B5CpUo34kTXh100/Z/lYDZUDZkjelggsuX8iSlQu9BqbLMMntx7b/6INzni/02miHVRnEbZaffgKrLh7syFecvxElhacffY32VIZkEVFa5Y3nt5BOd9ebu4gvXxWz5JQhJPFOXzMCG/8cwFqLWEG5hG9/44eozCP68p1kFSw56QSvjcHbXvT11xmYXyvWqqzZF4HWuOO+ux5Gt6okUvWIq8uarIRxCuokuEc4waFDUYVF3Obnt0AW5G35AJTv3+mrl6FiCfImcGKoDyUsOV0hs2lZHdz//Y2YcUUkFa8aVn5sWZaRZRlpcKbsIJIQwqJEse7PG9qz37mhYpicg1zvYx8eUbrmv5uU7BUMBvBjEGKdUNUDbNrwgh9Pj7AKYPgEwSlvRWoygyoZSYnCWwgmhhs/cQ0Di6RzuAj1pfDgDzcgLgarEOvJ5qcffh5a3kCs6JcANeGam64iqipE4VV9xZict4c5piAz/xKLoYmuGtatv8ybhtOZ61gBDcfTDz9P1vYDSXSV8ZEp7vjGPZ7KywWVOSKsC7d95npU1WAkLTb8zwu01t7TWhTaxbz3091eKDzLbb9k2TDG5JQITE5NcvpZpxYPWtehZsXByM4MZWK0TdASleqbTTLlCkTinNdqZcYFasQXsTHPP/Wadwwss4vi5TELThD6BuogDuMsxhqGFnnEP6sizMIrz76Ba0ZUoqr3zm02aLWatNutGaE3nBiyqEUaT89ZsqSBiRo+1IEyWJntlj44OOZIxOGRsxWPhfNSHLwykpkFqUQqot1IoeGwwbBGSoigPii02k1PihuvHy9IMA1taXHSqqWcfclCpN5ZJBHAwNZnW7z/5h6UjXA5lWIjXnjqNcZ3dPjanFxGwzU3r2LhkmEyybpYGuCgwiAcPkhn0gpwniqKU4ZP7OeKa0/BGoI8pPPctldT3nz+XWKpePkJDi0VfvLISzDquim9oL0679Klx1jAenCQj0MpRaQVipj33xrxetNZujW0SIiiqOD1p6anGJhX93uPoJFTHUr0g+27mP3WdZ2fXdjAzXjKWIsVhRUNtsKWl3fM3j8BIhgY7MPYrPDVGl44v0t26UqP4+C9LR+gXQWsYIKsQ8TbXKlybBPA6JRWZYxmfQ/N2h5aoTRDadVHSPtGaVf20pJxXJQiqtc2/mCklx5+xtHeZ8ic6SaSXem0eoiiiFjFfLjDMHxaxNRUm/6hxE+WhVggijUqlTCx+RI4UAYbtbjg0rNJ5kswcQ9EjfFygice3EQig+CigmXBKPa8u4+XntzCVaecVlDyEr6P5gvnrVnFg9s2gpHgT9NBHkop78B3TECC/MJresBiXBuVZFz+0YvQg0Ia5gYlaO2vv0fvfxrbjJGKp5e11tR0nYk9ozx6z2au/sWzoL8jrxLthYC3ffoGvv//PoibynBEHkm7sv/PMRojbtY2fOAnjc0EphxUZ++HEi8kVhIxf/58zjp7VecCIXc98IGdRnaPFm3lFEaHfSvt0B7kkeswHN4vS5zk5C+TY1Ow13mv4AB5Tc2Go1qvMsaE9+dylr7+vo6pveo832oYRt5qEKmYWFVI2watvRC1CMmQB2/SIInlmpsu44v/9hyIZpmbshDJwBuPGf7o9/8ClUVo1bH6ttbOYmA2x1zP+ukxgW6s5lQZs8Nc2E5FQlTRTE5OoDXU60n3A5YioFDejgigHSlNon7DupvPgqiEmxw4A7u2WjY+9iLSrgQkElSpRiPTMQ/e/Si0OnYkkvdVwef+yUU03DhGZWEWezbYMdLUdNdqMWQYaZHpBmuv8+pr75bj+6MEmvsc9979CNrUEacLZKkkZl6yiDv+8k7PAuWETskR7dbPnIuuZaDbGDI6sdMOnmc+rDGWpfI9RYnD2WbnbJdKvhTiBO0UOnd8LJG55ee9lap0bQ7BhQM0+570iKYkc6ATgMqFeoYWzaeVMivLXq0J8+fPL33iOOmkFV22QkVbImSZKXpcyCtceRQhslpkMfUG62472yOvOr7UgGp3sVWgAibKIGmDsoj2shYIcjTplHLoCinOqyue/TmAK/3fYWW6P/E/jaREiabeX/eYtjTJvZMuQVrqtDeZbppJLr/uAgZXSPdzzpNgTz70AvtGGthMeTN28bYdkY5JpM7Od/bw4iPvFM5NJvNGcziQIeHaj10BcYYTGyKS9e6AmR8dOYSoV86T2E5n6JrlkrXns/j0YC4OxfUQObjv7mfRVIl0FVCIEk9+W7CpwrVjNt77FgS3ga5NPyBccc1FSJKB6jD5+8H7RwXC0Zj1n2847TJ2LR8pIKhnBbFBXUvHc7jcfyluhjL4wyE9f8/sX8eKQpV4bCeOZtpAzaJpyXFT7yXTarWQWU5jrrZVSmOtLdjlXADqQl0iQkqbJafP56Rzxds3audL5LyOOLIQOZz2Fr4m8qyPJSW35vKXcD7+joVS9zx0l58TEgmykh6tjb8sXNffqW2TuTYD8xI/+SVSDwhObJ2dYZzDOENm2wwsqLH2Ju/q3ZWrx0Fzj+O5x1/Btggkugu8rfGkIRAT88Ddj0G49HTOHsS+ratvvYJ5i/q8jUren7CTXVmyf9QcUMpIVjDOktFiePEA19y01ru0W9+2iKABO+l47N6niYipJDHW5YF8pQglQKZ46B82ML0rjxvbGQcaPv/L19I3P0aiLFjq9mKanz1kWdaFQMo//e+C2IA8nHTsPnqWQxVU5FwDmoMcKkFZIxgcJZhqjiNxp1PllfMhertZ+4mJye4H82/EI5JWqxkEqHNQ7EpAZ9zwyathQGbyGAeyY+qN16HmHu+Mtvf77TGD7sHM3k1/42QuJaoo+vqDdeEs89BBIoGkFAOVjJWrl3H6RQOFgVFxU1l4+6Up3n7lPSIVkaoGreo4jdoemn0jNOojTFX20K5O8uqbL7H7vWmyRs/BieHUCyssO/0EMt3CkpWm/FiesKDDF+c1T3HKyWcs5byrFvjQAgEROyBS8M6rhm2bd3k7grhFq7qPRm2U6eoepisjTFdHaMb7eGvbZnZ8MBJaKE2WgdpS4cxzToE49a7sxU01e/86ID2l88iR4tWkHnft3jIFUpC2oXhEonqMxzzo/ZyrmTD3gSpGGC4Qo1J00sVFFT91FJBgCUZHR2dEtwO/pQcHB2g2W0H21lHFdoFySORYu35Jp7E8+Igts2vMnIS5oNeEYQ74GQhWwy1Azzis9Dw1k/r3OD2jXo86q90zAY2JmRPqxNB0+7j65s96SkX1vObg0fueQmdVdKxYumqIr/7F57sjWgUBVzrliOcJNiu1kTPfCm76xDU8/djzKInQRMEztfwgR//WDoGdrUohzrj2pqtA+T3j5W3KU14ZPHjPY1RcH30DdSrD8LW/+20fHat8HkrjseXuh7+Vgds/cwMP3/sUA1GMygUoXdCDGQpM1PtYwVgccC/PSRuIZemKxR2bny5yFhp7nEcahYRSeO3VVzltzUUFC1MgFIElS5bM2Yeij71Dm4V7LT8xtGAekkhXeFOgUC03Gs2uAzE6OkqWMSP6gggsWCj09dVh3+ytWQyLTljEGRdf4HXIZWveQE0Wrh7BwK2gOI8CHFMkUsx7mKy5bp/yQnUoBsE6b4W5+rxzup09AyiB97bbIgdMHp3M6owlpw6z5vqlHQvWUt27thleevY1kqjKvuYebvzU57AVaEUQ686ZEgdx4q8SFXXLVXKMt3pNPyvPXcqu16cwmUErYcbOOcogAk5lGJosOXkB51456AWlwVcm7+au7Y4XnnqFSCqMjO/my7/xS7iq54e75Ac93c2lDt5lALCw4sKI1ReeyruvjKGoEIsKwtsO3WVL/PScfQ+tHYxMJXepnwmWs85b5bUPM28dtm8dm4HMP9ixs7MByghAYHh4uIs1cuX6Zh1DPupu6qr4VSynnH6SRwi9hpbhlYnxia53946OYs1MY0kRIIEzzjidrc/t8Vo56ygnJHc43t/+PqPNDxn76oe03TiYaYQU0Y7FKxfwhX95+2xdPSpwbNmZQ8V05Ys7UC9GDBet+UgJk3Yv8rat71KEsw/IykrG2hvXeKl0Hq2qVPf99/+Ysb0T6IrmhJXzWXPd4uIWL3fb2k6bswbGVUC/cNUNa5CKJSPDYmcIzY4+eJ9wo5pctf5SqHgeWFTgoYHIwHMbXmHPzjEQx8KTB1l742nkgZAKR0jnx5mrFwtuIEe6+bxHcMNt64iqBvJcLMoW/im5sKEwmD4aU+DmoFDFsvrCM/0V2NuOhW1vv4d3Vuzslbe3vD278ETB0uXeriSOIqIoQit1gARkLuSdCZ3sOZZOHKetPq2QxXV1z8HUpGNiYrLYJyLC5PhEV+iCHPJuXHbZmsIeJH8nz3nkDDgjTH7YYvMT23j1oW1s3rCLzU99yE83fsi2V3YHj8Njsy+PsRfvYXRawEuKM4xqk6kmqy9YUmyYQvMXqOedO/bgTEjGoyBzTYxusnb9Gu9O3cM3qwwev38jkSSoSDj30rOIgw1J2YgtM9BMjVeXltjKsu9P/vvVN5/PwmXzvKTbmaOI6Xuxlu+dlQyn2tTnxVx3y3kFgss3rAqWuPd/71Hm9S3EYjn/srOpLvBJr7LUkqaWdmppt/3vRWk70sx1fEuEQpC87tZTGVxYwekWKOOjwPX886zWAWbgUOKTODylaegE3VGOk09b1rlYcghatF3bRxGrgiBSwGn2bN8HmbcP6p1iGRQuWLOKifYIqWmECP5+DHObiQe5kBDy3tjAShqcSlm2crFXt/e8pS1M7YM01/+G2yhrKh9K1HXbp+V7bfUlyzC1Bm1aM3qilCJSMXXdh2pVqbQH0NN1omYd1ayQuL4DkB8lAephBNo+Nl68sF9xQDmgMD0/ncslIQ1abh+f+ZVbGAiet5QQiLJ+Qd54aQuSxigiVGRpq31cdcNFzFtMYaGYy7TFwoa7t2B214hsDact1966jjSiEL7mYSp9dHHtw5yKL6ZUl4MiHF5cg3MvPgOSlrelOMRAt7ND+drsbGInzscz0U3Wrb+M+rD4zZqTzWEQz/xohNF3G+jMJzK6bO3FWOXjiYqoIiSfKOVJsFBEeTW3sZ11LGJo14RrbrychhnD6AwTEEYnpGQpe18PFZFf2j6m6CHOREgS5qzgMrh+/XoWnCCdeA35uC2QwdbNOxHn03s4QExMeyRmyzMWMk9xST613jaMWz67FlefwEgDa2d6LvfaR+RaHp/QjDD2DBs1GVpc58obTvVyTUr7Bb9v33j5bT+pgZJQtkKUDfLgD7cUGKSsh3ERLFmjOOejJ2FUI1AkFE/4gFMRPotjiuoxhTh46CCQ3Ps7T3HSayNS/v2YUiL2AJTIbNQlDpwyuKTF8PI+bv7sZYUgsAjugkcI03sd776xg5haCBNoMNEU6268lKjq5SMmkOwCYODhf9iIbvVR0XWWLl7B6tU1khRqGVTapZJCn/V2OEkbkhR0J0ZzZwwKkppw66fXomvW54I5qjEFS1Mjfm7QBlWxfPT6K+iVcQYjVjb8+BnitB9lY7SrcOFZw6jUj61m/HhrWfi9VKoZ1JwPlpzLJAokIvDxz19MbUh5p7zSDebEebWgOhjd1MHs8A7yFA26CjZuMryiyhd/4xxUTbrxaxh36z3Hzq2jYIQo9iSUmIiqHeIf73zEy7yETqBjATSccnk/F151OpmeRmID2qc3NTYL1KVn2ZTuzvDobTh8kOeGmaQdj/MLX/oEaIJFcacZhSfqNj3xIpqYPMeRuIiqzOcnjz6Pdt1D8jI+mM4cv/SbH4f+Jq7S9jYf4alyNLN89g/MkvWCm+P3A8PP2Ox9/+CCqbglQ9czPvUrn6TvROnwvrk8RCB28MiD7zE12qSPhSgV0TL7OPPik1m5et4MUlJZeOfVSbb99ANss45JM9776S5+ed2fUh2ImZgYZ3h4mCzLmJqaojHdYMGCBRhrmGpMEFc1n/vS7XziS+diSrMmQV4wvFJxwRWreeHBLVhjSvFDD3s2en4KPuiQt8Q958LTOOlMXZD0uZxNLGx9uc2bL7+DzhIkVsSmxpc+9nUy8bl6oljPSHjVbrdpNBoMDg7y6V+5iVv/6SrSFO+anp8ABbJQWHfDZTz6/dcRHDZPdG4oyUOORCbSTXlZ43DSxsVtpL/JP//3vwonSuFk2DlpeArssR00xyzNyTbzBwZot1PECFpV2fzSFrLpa5FBb5lZRJRTQAS/9ju/yL/f+mc0PrS4TLCZ9jIjYwOlHMzBy2E4RVBaEK2pJMI5V5/F5R9f6pOL9ayfOBjf4XjrxXdRLilcJSIVQ9Px5ktb2P625cRVqghMlA8t6Rfqpwv/6qv/C3/ylf9ObIeJJD8YHolLV3s/Ozi2MhGxQRXZWwxGMjLapK5JKk3aMk07mqSV7KOVjPFr//qXuerW0yDxpLoVL5QyBvaNOGjB3d/5RyJTJZIYtCVV01x1/aVU50kxstwVQQw8eM/j2LZCS0xSqVJVdWpmiHhyHrXmIqqNBb5ML6SvtZhaY2Eoi6hMD/HQ959katTNZBsDIrntszdRHdBk0j6wXODgZpDyveRimSZ7AAAWSklEQVTEIpGB2LBu/RVIX4fNgw4V8vD9GyDL8xgLykTEzX7iiXnUGgupTA4Tj88nmRgqSn9rMYvUKVQmh7nzW/cx8aHzEcXD+ApZkIJrb77KR3fTphhnobE/wLj9/W4789ZTvMl+RiYN2tEE0XCThadXGDzJ8Fu//6ssW6M8Zaq6KvU86JTj3rseRtKEWCWlQFEKlWlaE4bnN+wlN3Xx1LgnVa1YasuE3/7Kr5P1TWDrDahlqIolqiqiikZH4r2JY/GJtCsOl7TZl+5mNN3BSecs4td+53aIe5xMwwIpC0/++DVGtk8iJi4Gba3DpI7IVvnR3z9KFNKOlJV8Tnw0vwvWncCXf++LtCpjtCvjpPE0NmrhdOrto3LK8Kiw1AcHxw6JCAGBGKxKi+JUCjpDosybUsctpN6C/gZp314+cvNK/vh//O+cdOGiwvLOURJuprBgQNjwwG727pggshW0KIjaDC6scv3HzvKWggG0+AVp7nZsetyrO61z6EDT5ibgWmuyLMMah0jIIGcynLE+eTcx6bTjsfs2o9KesxJu6UXLI/oWVEj6Ne6oeL12GD6f1NmQqRYLl83nwsuXdoTNhENhYXq347mnXsalM3XiZZfx/W0yMZofff9polBn0ZUwzgWLK5yyejk2Tr12hrwDpTrnqL5Sjzy7KrY4ZN3FYeIU2zcJQ6Psq23mlCti/uhvfoNzrp/nheURPopdPjwDtOHp+3awd9cUkiUoicmMK/yqrHW0pyx/+Z/voP2h8++U5HZ5CIQTLkz4s+/9HmevW8E+djJuRphOx2mlDTKbobTf1y0zhe43tCvjDJ9e4bP/4gb+zf/5eWoLpaAi8rCghKlrTzh+8Lf3MhAPgdU+fKalCCIUuwrPPvQq216wBSIp06NOge2DUy87kT/5zv/GFZ86m6xvjDSZ9AaPKrhgONcVEuNYwzFhZ1y4mZedtpDIJLiW7gQMCtI/pRyiYN78AU5euZyTT1vOsjPq9C8SWiESF3G3kFbwrODeDxyP3/ck2TTUlA80tK/1IV/45G1QpYiUnU+jWHjonldo7YUk5EO11oKYgj/WkfdN8EjEq/ys8QsSqwjnYGq0ycP3bODm21chA9JlxOYc1OcLn/iFW/naH36LPlnAAfO27H8W6VAifkuKtrTcNOvWX0ulLFCVDhXy2H2vM7WnTWL6SnUF2UJZdrIfflm5iPvuepTP/9PLkLiUukMBGfSfKFz/iWv4y3e+i5vO6JZwlgSyPfWKghNPHeLspoWsD1yPM2UAGzU595LLuPDKVSw8SSN5flztgj9K6fQ7vHFV6vibv7wT2wqJqRW0W21q9WqBPGOp0hqd5s5vbuILv3kJzPOUSp4gz1iD1poJm/K//v7t/MqXb+O1TXt48pGfMLprjLGRcaan9pFmbS68/DzmL+zngkvP45w1Q8TzBRNDM5C+Oc61eAokMvDtbzyEtBIqqo/Uem9oBzhjvXc4FaK0wh995Rt89b9+mfkrhEz7yzOvywkMLasgKXzp317HJz9/DW++uJsXfvIKY3sm2Ll9J2Mje6nXKgwPD7JkxXKuuvniLk1W97ocOcVyxEikC1PmRUNq4Yu/ud6TxD1qtdxDMBdqFekTlH83chTRp8raQGW9gdlf//n9bHl1OzqrEEcJ7WyaoaV1rrzhvBDdnC7Eg4UHfvgEFRnAheRT+YIoSlaFuUu1eMl5l6jJOZKozq63xtjwo52s+8wSn+8kb0QBCVywdglLTlvE3s1pz9Gafc7KIORsQ34FhSdCtHqJDJUBzdobzy2sa8tJ5zwSeQqdJSirwrg6O6fjvHYAgbeNYarKo3dt5+ovrCjC+kn4qRVctv4E/uavFc3tGdpUOu+WkNOM8UXwud9aj5uahSXM3xGQ3D8pGGt1uttj5ZoLDBR87Q/uYWKkTZzViVRYVWuL8BDOObSLiGSQpx54njNWL+SSm1d6r9ZcGBlr0lbGwJBHbv0rhItPWMSlt3+sg8vLF7zxIRes8ikuUaB1Zzs7xIcpsrDp/g945HvPEGeDiI/yXKyOCvleTOrIxizZVIvvf+tJ/ud/dSV60Jsf5IgEOkaFrRbMO1VxxemLueLTi7sPYV55OGNWB2NAepPfHjkcPs3T5aU1E5zymevTGNJqd2lVoVWBdiV8X4EsgTTyqlSnSjcs+AhRLVBt+H/+8CGeffRlmqMZkUuIlCa1Dc655EwWn6qKWzOfJGXh+Sc+YGJPE9tQ2Aygo/u3LsTqtB3BbjhxIVxBZ7pjlVBjHt/9qx8wOeptFxwU0b8z5yPQr11/CValyCxWtmUJcSfyfVmIFvwmlRTvWufjZrZMkzXrLmB4id9RuVraPwTPP7aLkR0TpFPQamZYa4uwedZ6qssYU3w2V8laFpVWue8HD5Ptc9iUjiGagtRBPE9Yf9taHxmLYDWcj8HaghIpFyNgI2C+4IYEN9wphCJDghv0ruouT+CUb7Mybi2lGv3Onz3GpsdfpTXhUKKLFpVShY+KUsGbN9U0Rg0/vmsjY29ZT8WUQgHoOCJzIQme9uxDK4Fm4vdtO4aGgoZAQ0OaAIlHkGUzfLGgjRCnCt2EO772A7KxBNvUTOyb9hed9UGVveLHexwrExGlNR6+eyPf+tOn0G2Qpmfjuy41wQfIr/o+pBV/ttr5+Qq/p1V/xnwKipkI5GgE0TrsGtrtlPlDwygVMT7uJ0LnZFxY9F79cjk2gSoZd3U4fw+5bUeubVApyIjj2/9hA8898DpxY5AoraFMhFLC8OJB1t+8zh+s8gwZb1y24YHnoR0jmUKMNx6RIKntitEZjIZ0TuLi3aZ9kjmFs15dOL57mg/ebRZhBS0eiRiBpoNPfvFCohohXmYPzneOyeCxaUvFuCCclIi+wXmI0sGGIwQFdoJVjvUfW0cWe77b5MI3A64BP3nseVoTBmV95jrPqlnvuKVkFivL2YsCyBS7tu/h8Ud+WrgtBQUImUCq4PJrzqOZTWFc1hEgiiKztpiX3pJJ4D72UzL8XORiwrxdI2F9LdCCqa2O7/7fm9j4j5tJsnkM1Ia9xkP5wfsD4sdUxCu3FjEV3n5hlN/58h/z2N+/C42wXcTf2CZH0FKSxZX6AmEvq7Dnw77WAe9r8f5GUQs23T3Kb9zyNaZ2avqThbhMU6vUPVJ2HXNMl1duQWURZizhkbs28fWvPEr2oSMOuYDLaVd1OVWM0CX8zqnUnOLuRR4e2UMcz85SHgocNhJptto0Gk2sESpRoDqttwgUOnK23PenXFRPkZ5Chg8GlAFTsO1Zy1d/6w5+/N0NNEcs/dEgFVUjjiKa2RSDQ1VWnzfgQweEkHQKzxalI443n3+XqvRTiWvEOqTADEGO88Xs9ozMjWm6g9t6y0lB24TvfPP7RCFqYG68FEXe8IyqsO7atSXhan4KBWucz6ciHRuvYhNqEOVzhmitg0GYoCKFqsDKM07ijPPr6AqFSteFG3lyj+PlZzajbUItqRPHXjtRGJWVxpF/NnfRiFWYVHj60ef9JjHBPN4UQ2HpyYqbP34DLTsd7CrwpthhW/Wu69x06+wQuDgfMDvzlCiTkI067vnmq3zlX36D++/cyNRukLSCJu4gDvEyNy+HC4gUB86hbURs+pFGP3/xJ9/lP/7u3/PBZotug868EaMO1CnOI4vCpUD5dY6Cn1UuuI+ctyOKUh9NUrfgP/3eXXztD/6abG8NO53QnraIjTyTU9p3OFfIpBWgnKavMo8k6+fp+1/md770NZ65bxeVlrdXijIvG8xtSspz2nVRS48czHXW0KSQtiDSczHdBw+HLRPRSlFJEmIVezNr1+l4foj3CzMvaF9sWEgHj39vO0/c9wzvvL6d5kRK5GpExExOTCASQeKoDMBnfunj3vjIQSUCG8ybIwuP/MM2xne0US1NbAm+Bl4r4+gY6uwPep8RE/Pms9vY+qLl5I8oDN69u8xarF9/EU/d8yIOnYs1g0rR+zqQltSi+MWd3uuYnmpiDShXShukDUm/Y+11lwKQtQN7rsOcG3j9md1M7GpSVUPBQ7qX63WHYMXosb+YiLdefJ+3nslYdp4mGpQinot10E7h6ps+wmP3P4WdytBKkcQaY2yJnOydzP0gktBlF0iP/Gb3LAc0djsev3cLD97zOKM7J5A0RpsqympEwjznh971VNrbCCA2IWkP8ObGD/jdjf8Xa69fw2f+yTUsOkkwkfjToT1F2eXSH1TEcWjHNgLV6eC9FyybnnqFB3/0JGO7GiRugMZkm1pSpeDxRLonx/WeF+dldZlCuyrtXYav/R93cOc3FvCpX7qVVRcuYMEyQdUFpSjiFuejy6mV/IIuFAyB2nHAyJ42L2x8jbu/+WN6BeOHCoeJRASlNeIiRt6f4JWnRqkOxqSm5RMNxfEMY6Yy5CHtlVLEcYy1lrGxMbZv387WrVvZs2OMka1TNEccNCpUpE7VVb1QyNkQUV3IsoxaFFPRdbZsstg4JY5j0iwFgYqL+dF3H6E9LlSUj0mai3KEmcihPD4Ps/df2Ygo6+Ouv76P27kem/ioVLlMJU77iDKHxaDQQZjlfL0Wdu8Y5c1nM7KoUdS5cFE/+3Y6JkfauLaX3JclxM1mixVLVvDWsylNJoginwTdOYdqVbjnbx9ApzUyY0mzJlo0Wh3e5siDBydxlamxJj/82we4PltL37Bfq2Yr9WxXUiNrwND8Yfbsm0ScwjQdzbGMNze1MfH0gRvLwZaRi0K7iA/e38XO7bvZtX03u94fYWTHPtxUhGtFaNOHcho1I0pV10j206CgrAZbRduESOo8++PNPPHg05x81lJOO3slS08+kZVnrmD5yVX653s5FIZCVTL6vuODd0d5b8v7bNm8ja0/3c7ESIvGuPWhKBs1LI5YxRjrAmWQs1izIfruvisETIzYhFhq7H2nydf/8NvofsvJZ53IklNOYMXKpZy0ciknrhhmwSKP5IuIahYmxxwjuzN27fyQHdt38N5729m5cxdvb9nC1FibebKIqh0MeZG7aJoSnts/DSlfXvVXhyyoFRyNxhROZ/QtiKn0xUX4+oM1cullIbr+NsqTnKpGrBJsFuTchfZEEUUJ1lma7WnmLehn7+QI7axJFEdU61Xi2EuT9u6cZPGCE5mebPpbymMPT5HIXIjEP9gVB7b8nReq4HSG1S3vdOVsSVOiGO5fyOTuKVRaQZzH1VZlNO0EK05bynsfvl963msPlNUokxC52If1I3hpKsvY+CgnLFtAIxsHbajXa0xPT3sbg0wY6l/I2O4JXCrgPEuiDguJ+MhwFktc0zTbU5ywbAEpTaaak7SabdLUMDg4RKuZ0V+fx749k9DWRFqTmiaLls5n9773cZKRb779EkFOup9yDmvAZWCMJdYJkYqJVIK2kTeiEx0c8maH/aW4KCiKcqg7CQnJVBooD+v/xmCtjy2rtKC11+5hHFkrxbQtkYqItLdNEaexBlpNQxayD8SF2W8QZAqFwV0RyX4/0yOIDzyNwWrvWiEh3GFmvJtFu90iTVv0DdQZHh5mYmKCLDOYzIWg4YJWPmO0iMI4S7uRUov70c73W7kOGwqUcpZ1Sy39me2c28NmZyqVClFSQ5qO5pQhTSNiXfU5Ys1sdOyBoTjQjuAI5nAhGJDN1QP4sH7GGOI4wbU10yMZdT1MYoznozMhC9ROQg1nhTiKCnuBA6O5XlFvDvmbCp0HqsyqIB1kaAFj24xOjxLrpPtN5xdw1/sjJMwDExbVdQvZynPhnMOmjv7KIK29BmcrxImmNeFwaQ0VQju2rQ2qLX9rlKPPHw4opEgU1dpnmW4YrKmibQ3lhHZDYawiTYWEOk47Yq1x1tAeN1TToVlndDbIg1aV9fni8uDD+QQKUgoGtr+QRgd/K+bUgJ835RTKRl4m11t/uIByvCwWkpxtNx1ZkQNsliHWUomSwj+mq76CpTnInjqflU4C9STKx8F0zgXrfyEOSYXTvRm79zSBGCUVBPHGmHgEpnK5mHNIlqFtXHTJhDAWYQf5mmWus9CBw0Yieej+zGa0WilaaeLEszF5PpYiEdL+5me21ApCkSs0/7s8GOc6JLeIUK3V/POAdaZAFkprKlqTpdkhbKxDgVy6KcVehHyxFILz+n3nLU4REBvhrEIVhhIHnqNcMGpM5g3jVEyz2UBHUYEs0jSDnHI5wsFKrlpzPsTC9FQT5yCJEpwIxnj1dqy9b4koH71OR4rIxbRTc0hIzBvL5ZqjALbXBb8jTHGFR+X+Kj3o5g+igxTyFh/hLkf4Ujh3Fp4r4u0+Ep2UEq13kEgnHsgRdMfaIM/rfKa0wuFIVIKLeo0ce2R6IkENPzPMQZGY/oDz13nvsJBIrs7LMuuFaIFPdEBmTNjQzC5YOyCUxck92Dq48SrtD2mWZSTVhMxkhW1CTq6JUlRrVZrNpl9M1+1deqA58mzVLJ/nqt8Zz9PBJ87nZ9U69srFgsAStIp9fo9uudqMPhVGb8XYFcZ6J7A0tVgrRE4XgaWLeKKiCvnd4UOwJ7CC4MnczBgkytkj0zk8xmFSE9zhNVp0CA3QO7oDQ+cVv7ltHq2uh0oDOBDbPHcsG3eIveqF7nqL+8P1rF+OVA6hrrke7pagdBBTWZtYznN0sEGx5nqu3N6B5/kIBKu5FBgUlWoNxGGynM87ElJ6LhYifCed9vPoTuWBSq6LQ5iebvhEUsEqrEtcWr7VZuvFHLKSPDbszLek9MPz7S4NusHwhYhCSeRlPAXF4Hpr6LRWusm8ejECHM4JSkXBJia/Tbywu4x8Di/CmpQ8QgUd2swRn3MO5RR5igzvW+SfNpn1YzKCKmyODwfC+uKd0/Kwlwc7GlccsNn3kss3w3671/2lcxSsI4WgvLfH4bXCRVjN2WflZlmjAwxw9llwQd3fc072A957WaHVzGddeRhu9j3Ue2aOgJ3xZuFeeOdKSIXSwTmsmilJHHEzQmB3hG+IdJZSOphZIJCSHbLNh+4rvX9YG7zDQ8+FfHyIOy/rcDMCVAvOqTCumVXP2SMXNnHQ6ZfnPZ/rnJMl8LX2YEj+ucYYptxPfYdD9ny/UHA7Lj8MXvNlrN2vrOLgoXRQpcwy+O8OBjnOTomEWg6pi529aEuIKb9K5lqzA0X1OxwE77own3R/I6rzVdcjc+/zA/WhsBSe0Y9Qeaj6CHxnDoZcOwwo99zNTdXMdkYKYWT3pwXC6fryAIKtA2uZZl+Aoreu05dutJUjSVeq5tBnsXeT5kknPXJ3ByWPmgmy3zkvt5ZTR3nXlZuxGl0/Dg/yjZrfwftH4OXeHWHDPe3T2T9dbXSaKe/HnEr+2UFnnrqg2PeHQm33VjHbu93tHSUv3iNmwrvrOsh6D75JKZNJ4eVDIZCPDOZYwqPQD+nazR2e+UjW4yD60pUJ7AB1HfG+6PSncxMf4bodSozXrnWa5bvSx0f9Qj1YmA2BED47Zvu8U+dRDAVwrA7k0ap3jpvy5w5H2o+fz7hmUh5zwdHuz9Ger8N97+e1fw61H8e+nz+7yCXH4Tgch/9fwnEkchyOw3E4IjiORI7DcTgORwTHkchxOA7H4YjgOBI5DsfhOBwRHEcix+E4HIcjguNI5Dgch+NwRPD/AeoNS71mpUxmAAAAAElFTkSuQmCC;rounded=1;" parent="1" vertex="1">
          <mxGeometry x="1063.0034801185611" y="2004" width="70.77" height="69.47" as="geometry" />
        </mxCell>
        <mxCell id="nmlVHp5XbvUtxbq8LukC-3" value="Mulesoft API Gateway&#xa;HTTP API" style="shape=image;verticalLabelPosition=bottom;labelBackgroundColor=default;verticalAlign=top;aspect=fixed;imageAspect=0;image=https://www.ibm.com/content/dam/adobe-cms/instana/media_logo/Mulesoft.png/_jcr_content/renditions/cq5dam.web.1280.1280.png;clipPath=inset(17.7% 28% 19.03% 28%);rounded=1;" parent="1" vertex="1">
          <mxGeometry x="1052" y="2085" width="93.29" height="101.06" as="geometry" />
        </mxCell>
        <mxCell id="nmlVHp5XbvUtxbq8LukC-5" value="On-premise" style="points=[[0,0],[0.25,0],[0.5,0],[0.75,0],[1,0],[1,0.25],[1,0.5],[1,0.75],[1,1],[0.75,1],[0.5,1],[0.25,1],[0,1],[0,0.75],[0,0.5],[0,0.25]];outlineConnect=0;gradientColor=none;html=1;whiteSpace=wrap;fontSize=12;fontStyle=0;container=1;pointerEvents=0;collapsible=0;recursiveResize=0;shape=mxgraph.aws4.group;grIcon=mxgraph.aws4.group_aws_cloud;strokeColor=#232F3E;fillColor=none;verticalAlign=top;align=left;spacingLeft=30;fontColor=#232F3E;dashed=0;rounded=1;" parent="1" vertex="1">
          <mxGeometry x="-833" y="1994" width="179" height="1046" as="geometry" />
        </mxCell>
        <mxCell id="nmlVHp5XbvUtxbq8LukC-6" value="Privatelink" style="points=[[0,0,0],[0.25,0,0],[0.5,0,0],[0.75,0,0],[1,0,0],[0,1,0],[0.25,1,0],[0.5,1,0],[0.75,1,0],[1,1,0],[0,0.25,0],[0,0.5,0],[0,0.75,0],[1,0.25,0],[1,0.5,0],[1,0.75,0]];outlineConnect=0;fontColor=#232F3E;fillColor=#8C4FFF;strokeColor=#ffffff;dashed=0;verticalLabelPosition=bottom;verticalAlign=top;align=center;html=1;fontSize=12;fontStyle=0;aspect=fixed;shape=mxgraph.aws4.resourceIcon;resIcon=mxgraph.aws4.vpc_privatelink;rounded=1;" parent="1" vertex="1">
          <mxGeometry x="-1031" y="1993" width="78" height="78" as="geometry" />
        </mxCell>
        <mxCell id="mRyLPyqAp4D9J7UMtu-6-3" value="" style="group;rounded=1;" parent="1" vertex="1" connectable="0">
          <mxGeometry x="-251.00174442190672" y="3319" width="166.8174306964165" height="85.7199999999998" as="geometry" />
        </mxCell>
        <mxCell id="mRyLPyqAp4D9J7UMtu-6-1" value="API&lt;div&gt;event-manager&lt;/div&gt;" style="rounded=1;whiteSpace=wrap;html=1;fillColor=#e1d5e7;strokeColor=#9673a6;" parent="mRyLPyqAp4D9J7UMtu-6-3" vertex="1">
          <mxGeometry width="140.04056795131845" height="60" as="geometry" />
        </mxCell>
        <mxCell id="mRyLPyqAp4D9J7UMtu-6-2" value="" style="shape=image;verticalLabelPosition=bottom;labelBackgroundColor=default;verticalAlign=top;aspect=fixed;imageAspect=0;image=https://pbs.twimg.com/profile_images/1235868806079057921/fTL08u_H_400x400.png;clipPath=inset(18.67% 15.33% 18.33% 15%);rounded=1;" parent="mRyLPyqAp4D9J7UMtu-6-3" vertex="1">
          <mxGeometry x="123.99743069641649" y="47" width="42.82" height="38.72" as="geometry" />
        </mxCell>
        <mxCell id="mRyLPyqAp4D9J7UMtu-6-4" value="" style="group;rounded=1;" parent="1" vertex="1" connectable="0">
          <mxGeometry x="-247.00174442190672" y="3182" width="166.8174306964165" height="85.7199999999998" as="geometry" />
        </mxCell>
        <mxCell id="mRyLPyqAp4D9J7UMtu-6-5" value="API&lt;div&gt;event-broker-admin&lt;/div&gt;" style="rounded=1;whiteSpace=wrap;html=1;fillColor=#e1d5e7;strokeColor=#9673a6;" parent="mRyLPyqAp4D9J7UMtu-6-4" vertex="1">
          <mxGeometry width="140.04056795131845" height="60" as="geometry" />
        </mxCell>
        <mxCell id="mRyLPyqAp4D9J7UMtu-6-6" value="" style="shape=image;verticalLabelPosition=bottom;labelBackgroundColor=default;verticalAlign=top;aspect=fixed;imageAspect=0;image=https://pbs.twimg.com/profile_images/1235868806079057921/fTL08u_H_400x400.png;clipPath=inset(18.67% 15.33% 18.33% 15%);rounded=1;" parent="mRyLPyqAp4D9J7UMtu-6-4" vertex="1">
          <mxGeometry x="123.99743069641649" y="47" width="42.82" height="38.72" as="geometry" />
        </mxCell>
        <mxCell id="mRyLPyqAp4D9J7UMtu-6-7" value="- admin broker" style="text;html=1;align=center;verticalAlign=middle;resizable=0;points=[];autosize=1;strokeColor=none;fillColor=none;rounded=1;" parent="1" vertex="1">
          <mxGeometry x="-81" y="3185" width="95" height="26" as="geometry" />
        </mxCell>
        <mxCell id="WjiKPggIOsOp9bSHbbAo-4" value="Criar serviço para poder controlar o topico kafka (para listener, retomar, etc.,)" style="whiteSpace=wrap;html=1;aspect=fixed;" vertex="1" parent="1">
          <mxGeometry x="-2097" y="3750" width="111" height="111" as="geometry" />
        </mxCell>
        <mxCell id="WjiKPggIOsOp9bSHbbAo-5" value="Criar serviço para injeção de transações IBM MQ de maneira constante&lt;div&gt;(mock)&lt;/div&gt;" style="whiteSpace=wrap;html=1;aspect=fixed;" vertex="1" parent="1">
          <mxGeometry x="-2100" y="3909" width="111" height="111" as="geometry" />
        </mxCell>
        <mxCell id="WjiKPggIOsOp9bSHbbAo-6" value="Criar ms connector, para consumir os eventos IBM MQ, persistir, e gerar os eventos KAFKA" style="whiteSpace=wrap;html=1;aspect=fixed;" vertex="1" parent="1">
          <mxGeometry x="-2103" y="4047" width="111" height="111" as="geometry" />
        </mxCell>
        <mxCell id="WjiKPggIOsOp9bSHbbAo-7" value="Criar também solução batck&amp;nbsp;&lt;div&gt;para agrupar transações antes de gerar eventos&lt;/div&gt;" style="whiteSpace=wrap;html=1;aspect=fixed;" vertex="1" parent="1">
          <mxGeometry x="-1958" y="4048" width="111" height="111" as="geometry" />
        </mxCell>
        <mxCell id="WjiKPggIOsOp9bSHbbAo-8" value="Criar serviço para consumir e criar os pagamentos (com retry e DLQ)" style="whiteSpace=wrap;html=1;aspect=fixed;" vertex="1" parent="1">
          <mxGeometry x="-2096" y="4176" width="111" height="111" as="geometry" />
        </mxCell>
        <mxCell id="WjiKPggIOsOp9bSHbbAo-9" value="Criar serviço cadatro API para retornar informações para consumidor pagamentos" style="whiteSpace=wrap;html=1;aspect=fixed;" vertex="1" parent="1">
          <mxGeometry x="-2093" y="4321" width="111" height="111" as="geometry" />
        </mxCell>
        <mxCell id="WjiKPggIOsOp9bSHbbAo-10" value="Crise serviço para simular análise de fraudes (sync e async)" style="whiteSpace=wrap;html=1;aspect=fixed;" vertex="1" parent="1">
          <mxGeometry x="-2100" y="4459" width="111" height="111" as="geometry" />
        </mxCell>
        <mxCell id="WjiKPggIOsOp9bSHbbAo-11" value="Criar APi paa receber callback de prevenção enviar topic&amp;nbsp;&lt;div&gt;pagamento validado&lt;/div&gt;" style="whiteSpace=wrap;html=1;aspect=fixed;" vertex="1" parent="1">
          <mxGeometry x="-2098" y="4612" width="111" height="111" as="geometry" />
        </mxCell>
        <mxCell id="WjiKPggIOsOp9bSHbbAo-12" value="Criar gateway de pagamento para liquidação (chamar API externa - criar MOCK)" style="whiteSpace=wrap;html=1;aspect=fixed;" vertex="1" parent="1">
          <mxGeometry x="-2084" y="4778" width="111" height="111" as="geometry" />
        </mxCell>
      </root>
    </mxGraphModel>
  </diagram>
</mxfile>
